  0
SECTION
  2
HEADER
  9
$ACADVER
  1
AC1024
  9
$ACADMAINTVER
 70
6
  9
$DWGCODEPAGE
  3
ANSI_1252
  9
$LASTSAVEDBY
  1
ezdxf
  9
$INSBASE
 10
0.0
 20
0.0
 30
0.0
  9
$EXTMIN
 10
1e+20
 20
1e+20
 30
1e+20
  9
$EXTMAX
 10
-1e+20
 20
-1e+20
 30
-1e+20
  9
$LIMMIN
 10
0.0
 20
0.0
  9
$LIMMAX
 10
420.0
 20
297.0
  9
$ORTHOMODE
 70
0
  9
$REGENMODE
 70
1
  9
$FILLMODE
 70
1
  9
$QTEXTMODE
 70
0
  9
$MIRRTEXT
 70
1
  9
$LTSCALE
 40
1.0
  9
$ATTMODE
 70
1
  9
$TEXTSIZE
 40
2.5
  9
$TRACEWID
 40
1.0
  9
$TEXTSTYLE
  7
Standard
  9
$CLAYER
  8
0
  9
$CELTYPE
  6
ByLayer
  9
$CECOLOR
 62
256
  9
$CELTSCALE
 40
1.0
  9
$DISPSILH
 70
0
  9
$DIMSCALE
 40
1.0
  9
$DIMASZ
 40
2.5
  9
$DIMEXO
 40
0.625
  9
$DIMDLI
 40
3.75
  9
$DIMRND
 40
0.0
  9
$DIMDLE
 40
0.0
  9
$DIMEXE
 40
1.25
  9
$DIMTP
 40
0.0
  9
$DIMTM
 40
0.0
  9
$DIMTXT
 40
2.5
  9
$DIMCEN
 40
2.5
  9
$DIMTSZ
 40
0.0
  9
$DIMTOL
 70
0
  9
$DIMLIM
 70
0
  9
$DIMTIH
 70
0
  9
$DIMTOH
 70
0
  9
$DIMSE1
 70
0
  9
$DIMSE2
 70
0
  9
$DIMTAD
 70
1
  9
$DIMZIN
 70
8
  9
$DIMBLK
  1

  9
$DIMASO
 70
1
  9
$DIMSHO
 70
1
  9
$DIMPOST
  1

  9
$DIMAPOST
  1

  9
$DIMALT
 70
0
  9
$DIMALTD
 70
3
  9
$DIMALTF
 40
0.03937007874
  9
$DIMLFAC
 40
1.0
  9
$DIMTOFL
 70
1
  9
$DIMTVP
 40
0.0
  9
$DIMTIX
 70
0
  9
$DIMSOXD
 70
0
  9
$DIMSAH
 70
0
  9
$DIMBLK1
  1

  9
$DIMBLK2
  1

  9
$DIMSTYLE
  2
ISO-25
  9
$DIMCLRD
 70
0
  9
$DIMCLRE
 70
0
  9
$DIMCLRT
 70
0
  9
$DIMTFAC
 40
1.0
  9
$DIMGAP
 40
0.625
  9
$DIMJUST
 70
0
  9
$DIMSD1
 70
0
  9
$DIMSD2
 70
0
  9
$DIMTOLJ
 70
0
  9
$DIMTZIN
 70
8
  9
$DIMALTZ
 70
0
  9
$DIMALTTZ
 70
0
  9
$DIMUPT
 70
0
  9
$DIMDEC
 70
2
  9
$DIMTDEC
 70
2
  9
$DIMALTU
 70
2
  9
$DIMALTTD
 70
3
  9
$DIMTXSTY
  7
Standard
  9
$DIMAUNIT
 70
0
  9
$DIMADEC
 70
0
  9
$DIMALTRND
 40
0.0
  9
$DIMAZIN
 70
0
  9
$DIMDSEP
 70
44
  9
$DIMATFIT
 70
3
  9
$DIMFRAC
 70
0
  9
$DIMLDRBLK
  1

  9
$DIMLUNIT
 70
2
  9
$DIMLWD
 70
-2
  9
$DIMLWE
 70
-2
  9
$DIMTMOVE
 70
0
  9
$DIMFXL
 40
1.0
  9
$DIMFXLON
 70
0
  9
$DIMJOGANG
 40
0.785398163397
  9
$DIMTFILL
 70
0
  9
$DIMTFILLCLR
 70
0
  9
$DIMARCSYM
 70
0
  9
$DIMLTYPE
  6

  9
$DIMLTEX1
  6

  9
$DIMLTEX2
  6

  9
$DIMTXTDIRECTION
 70
0
  9
$LUNITS
 70
2
  9
$LUPREC
 70
4
  9
$SKETCHINC
 40
1.0
  9
$FILLETRAD
 40
10.0
  9
$AUNITS
 70
0
  9
$AUPREC
 70
2
  9
$MENU
  1
.
  9
$ELEVATION
 40
0.0
  9
$PELEVATION
 40
0.0
  9
$THICKNESS
 40
0.0
  9
$LIMCHECK
 70
0
  9
$CHAMFERA
 40
0.0
  9
$CHAMFERB
 40
0.0
  9
$CHAMFERC
 40
0.0
  9
$CHAMFERD
 40
0.0
  9
$SKPOLY
 70
0
  9
$TDCREATE
 40
2461322.466863426
  9
$TDUCREATE
 40
2458532.153996898
  9
$TDUPDATE
 40
2461322.466863426
  9
$TDUUPDATE
 40
2458532.1544311
  9
$TDINDWG
 40
0.0
  9
$TDUSRTIMER
 40
0.0
  9
$USRTIMER
 70
1
  9
$ANGBASE
 50
0.0
  9
$ANGDIR
 70
0
  9
$PDMODE
 70
0
  9
$PDSIZE
 40
0.0
  9
$PLINEWID
 40
0.0
  9
$SPLFRAME
 70
0
  9
$SPLINETYPE
 70
6
  9
$SPLINESEGS
 70
8
  9
$HANDSEED
  5
14E
  9
$SURFTAB1
 70
6
  9
$SURFTAB2
 70
6
  9
$SURFTYPE
 70
6
  9
$SURFU
 70
6
  9
$SURFV
 70
6
  9
$UCSBASE
  2

  9
$UCSNAME
  2

  9
$UCSORG
 10
0.0
 20
0.0
 30
0.0
  9
$UCSXDIR
 10
1.0
 20
0.0
 30
0.0
  9
$UCSYDIR
 10
0.0
 20
1.0
 30
0.0
  9
$UCSORTHOREF
  2

  9
$UCSORTHOVIEW
 70
0
  9
$UCSORGTOP
 10
0.0
 20
0.0
 30
0.0
  9
$UCSORGBOTTOM
 10
0.0
 20
0.0
 30
0.0
  9
$UCSORGLEFT
 10
0.0
 20
0.0
 30
0.0
  9
$UCSORGRIGHT
 10
0.0
 20
0.0
 30
0.0
  9
$UCSORGFRONT
 10
0.0
 20
0.0
 30
0.0
  9
$UCSORGBACK
 10
0.0
 20
0.0
 30
0.0
  9
$PUCSBASE
  2

  9
$PUCSNAME
  2

  9
$PUCSORG
 10
0.0
 20
0.0
 30
0.0
  9
$PUCSXDIR
 10
1.0
 20
0.0
 30
0.0
  9
$PUCSYDIR
 10
0.0
 20
1.0
 30
0.0
  9
$PUCSORTHOREF
  2

  9
$PUCSORTHOVIEW
 70
0
  9
$PUCSORGTOP
 10
0.0
 20
0.0
 30
0.0
  9
$PUCSORGBOTTOM
 10
0.0
 20
0.0
 30
0.0
  9
$PUCSORGLEFT
 10
0.0
 20
0.0
 30
0.0
  9
$PUCSORGRIGHT
 10
0.0
 20
0.0
 30
0.0
  9
$PUCSORGFRONT
 10
0.0
 20
0.0
 30
0.0
  9
$PUCSORGBACK
 10
0.0
 20
0.0
 30
0.0
  9
$USERI1
 70
0
  9
$USERI2
 70
0
  9
$USERI3
 70
0
  9
$USERI4
 70
0
  9
$USERI5
 70
0
  9
$USERR1
 40
0.0
  9
$USERR2
 40
0.0
  9
$USERR3
 40
0.0
  9
$USERR4
 40
0.0
  9
$USERR5
 40
0.0
  9
$WORLDVIEW
 70
1
  9
$SHADEDGE
 70
3
  9
$SHADEDIF
 70
70
  9
$TILEMODE
 70
1
  9
$MAXACTVP
 70
64
  9
$PINSBASE
 10
0.0
 20
0.0
 30
0.0
  9
$PLIMCHECK
 70
0
  9
$PEXTMIN
 10
1e+20
 20
1e+20
 30
1e+20
  9
$PEXTMAX
 10
-1e+20
 20
-1e+20
 30
-1e+20
  9
$PLIMMIN
 10
0.0
 20
0.0
  9
$PLIMMAX
 10
420.0
 20
297.0
  9
$UNITMODE
 70
0
  9
$VISRETAIN
 70
1
  9
$PLINEGEN
 70
0
  9
$PSLTSCALE
 70
1
  9
$TREEDEPTH
 70
3020
  9
$CMLSTYLE
  2
Standard
  9
$CMLJUST
 70
0
  9
$CMLSCALE
 40
20.0
  9
$PROXYGRAPHICS
 70
1
  9
$MEASUREMENT
 70
1
  9
$CELWEIGHT
370
-1
  9
$ENDCAPS
280
0
  9
$JOINSTYLE
280
0
  9
$LWDISPLAY
290
0
  9
$INSUNITS
 70
4
  9
$HYPERLINKBASE
  1

  9
$STYLESHEET
  1

  9
$XEDIT
290
1
  9
$CEPSNTYPE
380
0
  9
$PSTYLEMODE
290
1
  9
$FINGERPRINTGUID
  2
{86760768-DDDD-43A5-AE6E-6783E1929435}
  9
$VERSIONGUID
  2
{FB229E74-D92F-4DA0-BC58-7447ABBE1864}
  9
$EXTNAMES
290
1
  9
$PSVPSCALE
 40
0.0
  9
$OLESTARTUP
290
0
  9
$SORTENTS
280
127
  9
$INDEXCTL
280
0
  9
$HIDETEXT
280
1
  9
$XCLIPFRAME
280
1
  9
$HALOGAP
280
0
  9
$OBSCOLOR
 70
257
  9
$OBSLTYPE
280
0
  9
$INTERSECTIONDISPLAY
280
0
  9
$INTERSECTIONCOLOR
 70
257
  9
$DIMASSOC
280
2
  9
$PROJECTNAME
  1

  9
$CAMERADISPLAY
290
0
  9
$LENSLENGTH
 40
50.0
  9
$CAMERAHEIGHT
 40
0.0
  9
$STEPSPERSEC
 40
24.0
  9
$STEPSIZE
 40
100.0
  9
$3DDWFPREC
 40
2.0
  9
$PSOLWIDTH
 40
0.005
  9
$PSOLHEIGHT
 40
0.08
  9
$LOFTANG1
 40
1.570796326795
  9
$LOFTANG2
 40
1.570796326795
  9
$LOFTMAG1
 40
0.0
  9
$LOFTMAG2
 40
0.0
  9
$LOFTPARAM
 70
7
  9
$LOFTNORMALS
280
1
  9
$LATITUDE
 40
37.795
  9
$LONGITUDE
 40
-122.394
  9
$NORTHDIRECTION
 40
0.0
  9
$TIMEZONE
 70
-8000
  9
$LIGHTGLYPHDISPLAY
280
1
  9
$TILEMODELIGHTSYNCH
280
1
  9
$CMATERIAL
347
20
  9
$SOLIDHIST
280
0
  9
$SHOWHIST
280
1
  9
$DWFFRAME
280
2
  9
$DGNFRAME
280
2
  9
$REALWORLDSCALE
290
1
  9
$INTERFERECOLOR
 62
256
  9
$CSHADOW
280
0
  9
$SHADOWPLANELOCATION
 40
0.0
  0
ENDSEC
  0
SECTION
  2
CLASSES
  0
CLASS
  1
ACDBDICTIONARYWDFLT
  2
AcDbDictionaryWithDefault
  3
ObjectDBX Classes
 90
0
 91
0
280
0
281
0
  0
CLASS
  1
SUN
  2
AcDbSun
  3
SCENEOE
 90
1153
 91
0
280
0
281
0
  0
CLASS
  1
VISUALSTYLE
  2
AcDbVisualStyle
  3
ObjectDBX Classes
 90
4095
 91
0
280
0
281
0
  0
CLASS
  1
MATERIAL
  2
AcDbMaterial
  3
ObjectDBX Classes
 90
1153
 91
0
280
0
281
0
  0
CLASS
  1
SCALE
  2
AcDbScale
  3
ObjectDBX Classes
 90
1153
 91
0
280
0
281
0
  0
CLASS
  1
TABLESTYLE
  2
AcDbTableStyle
  3
ObjectDBX Classes
 90
4095
 91
0
280
0
281
0
  0
CLASS
  1
MLEADERSTYLE
  2
AcDbMLeaderStyle
  3
ACDB_MLEADERSTYLE_CLASS
 90
4095
 91
0
280
0
281
0
  0
CLASS
  1
DICTIONARYVAR
  2
AcDbDictionaryVar
  3
ObjectDBX Classes
 90
0
 91
0
280
0
281
0
  0
CLASS
  1
CELLSTYLEMAP
  2
AcDbCellStyleMap
  3
ObjectDBX Classes
 90
1152
 91
0
280
0
281
0
  0
CLASS
  1
MENTALRAYRENDERSETTINGS
  2
AcDbMentalRayRenderSettings
  3
SCENEOE
 90
1024
 91
0
280
0
281
0
  0
CLASS
  1
ACDBDETAILVIEWSTYLE
  2
AcDbDetailViewStyle
  3
ObjectDBX Classes
 90
1025
 91
0
280
0
281
0
  0
CLASS
  1
ACDBSECTIONVIEWSTYLE
  2
AcDbSectionViewStyle
  3
ObjectDBX Classes
 90
1025
 91
0
280
0
281
0
  0
CLASS
  1
RASTERVARIABLES
  2
AcDbRasterVariables
  3
ISM
 90
0
 91
0
280
0
281
0
  0
CLASS
  1
LAYOUT
  2
AcDbLayout
  3
ObjectDBX Classes
 90
0
 91
0
280
0
281
0
  0
CLASS
  1
ACDBPLACEHOLDER
  2
AcDbPlaceHolder
  3
ObjectDBX Classes
 90
0
 91
0
280
0
281
0
  0
ENDSEC
  0
SECTION
  2
TABLES
  0
TABLE
  2
VPORT
  5
8
330
0
100
AcDbSymbolTable
 70
1
  0
VPORT
  5
23
330
8
100
AcDbSymbolTableRecord
100
AcDbViewportTableRecord
  2
*Active
 70
0
 10
0.0
 20
0.0
 11
1.0
 21
1.0
 12
0.0
 22
0.0
 13
0.0
 23
0.0
 14
0.5
 24
0.5
 15
0.5
 25
0.5
 16
0.0
 26
0.0
 36
1.0
 17
0.0
 27
0.0
 37
0.0
 40
1000.0
 41
1.34
 42
50.0
 43
0.0
 44
0.0
 50
0.0
 51
0.0
 71
0
 72
1000
 73
1
 74
3
 75
0
 76
0
 77
0
 78
0
281
0
 65
0
146
0.0
  0
ENDTAB
  0
TABLE
  2
LTYPE
  5
2
330
0
100
AcDbSymbolTable
 70
3
  0
LTYPE
  5
24
330
2
100
AcDbSymbolTableRecord
100
AcDbLinetypeTableRecord
  2
ByBlock
 70
0
  3

 72
65
 73
0
 40
0.0
  0
LTYPE
  5
25
330
2
100
AcDbSymbolTableRecord
100
AcDbLinetypeTableRecord
  2
ByLayer
 70
0
  3

 72
65
 73
0
 40
0.0
  0
LTYPE
  5
26
330
2
100
AcDbSymbolTableRecord
100
AcDbLinetypeTableRecord
  2
Continuous
 70
0
  3

 72
65
 73
0
 40
0.0
  0
ENDTAB
  0
TABLE
  2
LAYER
  5
1
330
0
100
AcDbSymbolTable
 70
7
  0
LAYER
  5
27
330
1
100
AcDbSymbolTableRecord
100
AcDbLayerTableRecord
  2
0
 70
0
 62
7
  6
Continuous
370
-3
390
13
347
21
  0
LAYER
  5
28
330
1
100
AcDbSymbolTableRecord
100
AcDbLayerTableRecord
  2
Defpoints
 70
0
 62
7
  6
Continuous
290
0
370
-3
390
13
347
21
  0
LAYER
  5
2F
330
1
100
AcDbSymbolTableRecord
100
AcDbLayerTableRecord
  2
IMPL_FLOOR_2F
 70
0
 62
4
  6
Continuous
370
-3
390
13
347
21
  0
LAYER
  5
30
330
1
100
AcDbSymbolTableRecord
100
AcDbLayerTableRecord
  2
IMPL_COLLIDER
 70
0
 62
8
  6
Continuous
370
-3
390
13
347
21
  0
LAYER
  5
31
330
1
100
AcDbSymbolTableRecord
100
AcDbLayerTableRecord
  2
IMPL_GUARD
 70
0
 62
3
  6
Continuous
370
-3
390
13
347
21
  0
LAYER
  5
32
330
1
100
AcDbSymbolTableRecord
100
AcDbLayerTableRecord
  2
SOURCE_ZONE
 70
0
 62
7
  6
Continuous
370
-3
390
13
347
21
  0
LAYER
  5
33
330
1
100
AcDbSymbolTableRecord
100
AcDbLayerTableRecord
  2
NOTES
 70
0
 62
2
  6
Continuous
370
-3
390
13
347
21
  0
ENDTAB
  0
TABLE
  2
STYLE
  5
5
330
0
100
AcDbSymbolTable
 70
1
  0
STYLE
  5
29
330
5
100
AcDbSymbolTableRecord
100
AcDbTextStyleTableRecord
  2
Standard
 70
0
 40
0.0
 41
1.0
 50
0.0
 71
0
 42
2.5
  3
txt
  4

  0
ENDTAB
  0
TABLE
  2
VIEW
  5
7
330
0
100
AcDbSymbolTable
 70
0
  0
ENDTAB
  0
TABLE
  2
UCS
  5
6
330
0
100
AcDbSymbolTable
 70
0
  0
ENDTAB
  0
TABLE
  2
APPID
  5
3
330
0
100
AcDbSymbolTable
 70
3
  0
APPID
  5
2A
330
3
100
AcDbSymbolTableRecord
100
AcDbRegAppTableRecord
  2
ACAD
 70
0
  0
APPID
  5
14B
330
3
100
AcDbSymbolTableRecord
100
AcDbRegAppTableRecord
  2
HATCHBACKGROUNDCOLOR
 70
0
  0
APPID
  5
14C
330
3
100
AcDbSymbolTableRecord
100
AcDbRegAppTableRecord
  2
EZDXF
 70
0
  0
ENDTAB
  0
TABLE
  2
DIMSTYLE
  5
4
330
0
100
AcDbSymbolTable
 70
1
100
AcDbDimStyleTable
  0
DIMSTYLE
105
2B
330
4
100
AcDbSymbolTableRecord
100
AcDbDimStyleTableRecord
  2
Standard
 70
0
 40
1.0
 41
2.5
 42
0.625
 43
3.75
 44
1.25
 45
0.0
 46
0.0
 47
0.0
 48
0.0
 49
2.5
140
2.5
141
2.5
142
0.0
143
0.03937007874
144
1.0
145
0.0
146
1.0
147
0.625
148
0.0
 69
0
 70
0
 71
0
 72
0
 73
0
 74
0
 75
0
 76
0
 77
1
 78
8
 79
3
170
0
171
3
172
1
173
0
174
0
175
0
176
0
177
0
178
0
179
2
271
2
272
2
273
2
274
3
275
0
276
0
277
2
278
44
279
0
280
0
281
0
282
0
283
0
284
8
285
0
286
0
288
0
289
3
290
0
371
-2
372
-2
  0
ENDTAB
  0
TABLE
  2
BLOCK_RECORD
  5
9
330
0
100
AcDbSymbolTable
 70
2
  0
BLOCK_RECORD
  5
17
330
9
100
AcDbSymbolTableRecord
100
AcDbBlockTableRecord
  2
*Model_Space
340
1A
 70
0
280
1
281
0
  0
BLOCK_RECORD
  5
1B
330
9
100
AcDbSymbolTableRecord
100
AcDbBlockTableRecord
  2
*Paper_Space
340
1E
 70
0
280
1
281
0
  0
ENDTAB
  0
ENDSEC
  0
SECTION
  2
BLOCKS
  0
BLOCK
  5
18
330
17
100
AcDbEntity
  8
0
100
AcDbBlockBegin
  2
*Model_Space
 70
0
 10
0.0
 20
0.0
 30
0.0
  3
*Model_Space
  1

  0
ENDBLK
  5
19
330
17
100
AcDbEntity
  8
0
100
AcDbBlockEnd
  0
BLOCK
  5
1C
330
1B
100
AcDbEntity
  8
0
100
AcDbBlockBegin
  2
*Paper_Space
 70
0
 10
0.0
 20
0.0
 30
0.0
  3
*Paper_Space
  1

  0
ENDBLK
  5
1D
330
1B
100
AcDbEntity
  8
0
100
AcDbBlockEnd
  0
ENDSEC
  0
SECTION
  2
ENTITIES
  0
LWPOLYLINE
  5
34
330
17
100
AcDbEntity
  8
SOURCE_ZONE
100
AcDbPolyline
 90
4
 70
1
 10
500.0
 20
4200.0
 10
8800.0
 20
4200.0
 10
8800.0
 20
16800.0
 10
500.0
 20
16800.0
  0
LWPOLYLINE
  5
35
330
17
100
AcDbEntity
  8
SOURCE_ZONE
100
AcDbPolyline
 90
4
 70
1
 10
8800.0
 20
15300.0
 10
19500.0
 20
15300.0
 10
19500.0
 20
17550.0
 10
8800.0
 20
17550.0
  0
LWPOLYLINE
  5
36
330
17
100
AcDbEntity
  8
SOURCE_ZONE
100
AcDbPolyline
 90
4
 70
1
 10
11000.0
 20
12600.0
 10
17000.0
 20
12600.0
 10
17000.0
 20
15800.0
 10
11000.0
 20
15800.0
  0
LWPOLYLINE
  5
37
330
17
100
AcDbEntity
  8
SOURCE_ZONE
100
AcDbPolyline
 90
4
 70
1
 10
20000.0
 20
9000.0
 10
27500.0
 20
9000.0
 10
27500.0
 20
16800.0
 10
20000.0
 20
16800.0
  0
LWPOLYLINE
  5
38
330
17
100
AcDbEntity
  8
SOURCE_ZONE
100
AcDbPolyline
 90
4
 70
1
 10
20000.0
 20
1000.0
 10
27500.0
 20
1000.0
 10
27500.0
 20
7800.0
 10
20000.0
 20
7800.0
  0
LWPOLYLINE
  5
39
330
17
100
AcDbEntity
  8
SOURCE_ZONE
100
AcDbPolyline
 90
4
 70
1
 10
8800.0
 20
2600.0
 10
20000.0
 20
2600.0
 10
20000.0
 20
5000.0
 10
8800.0
 20
5000.0
  0
LWPOLYLINE
  5
3A
330
17
100
AcDbEntity
  8
IMPL_COLLIDER
100
AcDbPolyline
 90
4
 70
1
 10
0.0
 20
0.0
 10
28000.0
 20
0.0
 10
28000.0
 20
18000.0
 10
0.0
 20
18000.0
  0
LWPOLYLINE
  5
3B
330
17
100
AcDbEntity
  8
IMPL_COLLIDER
100
AcDbPolyline
 90
4
 70
1
 10
0.0
 20
250.0
 10
250.0
 20
250.0
 10
250.0
 20
17750.0
 10
0.0
 20
17750.0
  0
LWPOLYLINE
  5
3C
330
17
100
AcDbEntity
  8
IMPL_COLLIDER
100
AcDbPolyline
 90
4
 70
1
 10
0.0
 20
17750.0
 10
28000.0
 20
17750.0
 10
28000.0
 20
18000.0
 10
0.0
 20
18000.0
  0
LWPOLYLINE
  5
3D
330
17
100
AcDbEntity
  8
IMPL_COLLIDER
100
AcDbPolyline
 90
4
 70
1
 10
0.0
 20
0.0
 10
11500.0
 20
0.0
 10
11500.0
 20
250.0
 10
0.0
 20
250.0
  0
LWPOLYLINE
  5
3E
330
17
100
AcDbEntity
  8
IMPL_COLLIDER
100
AcDbPolyline
 90
4
 70
1
 10
16500.0
 20
0.0
 10
28000.0
 20
0.0
 10
28000.0
 20
250.0
 10
16500.0
 20
250.0
  0
LWPOLYLINE
  5
3F
330
17
100
AcDbEntity
  8
IMPL_COLLIDER
100
AcDbPolyline
 90
4
 70
1
 10
27750.0
 20
0.0
 10
28000.0
 20
0.0
 10
28000.0
 20
18000.0
 10
27750.0
 20
18000.0
  0
LWPOLYLINE
  5
40
330
17
100
AcDbEntity
  8
IMPL_COLLIDER
100
AcDbPolyline
 90
4
 70
1
 10
11440.0
 20
5.000000000000004
 10
16560.0
 20
5.000000000000004
 10
16560.0
 20
245.0
 10
11440.0
 20
245.0
  0
LWPOLYLINE
  5
41
330
17
100
AcDbEntity
  8
IMPL_FLOOR_2F
100
AcDbPolyline
 90
4
 70
1
 10
500.0
 20
4199.999999999999
 10
7000.0
 20
4199.999999999999
 10
7000.0
 20
16800.0
 10
500.0
 20
16800.0
  0
LWPOLYLINE
  5
42
330
17
100
AcDbEntity
  8
IMPL_FLOOR_2F
100
AcDbPolyline
 90
4
 70
1
 10
7000.0
 20
4199.999999999999
 10
8800.0
 20
4199.999999999999
 10
8800.0
 20
11800.0
 10
7000.0
 20
11800.0
  0
LWPOLYLINE
  5
43
330
17
100
AcDbEntity
  8
IMPL_FLOOR_2F
100
AcDbPolyline
 90
4
 70
1
 10
7000.0
 20
16100.000000000002
 10
8800.0
 20
16100.000000000002
 10
8800.0
 20
17550.000000000004
 10
7000.0
 20
17550.000000000004
  0
LWPOLYLINE
  5
44
330
17
100
AcDbEntity
  8
IMPL_FLOOR_2F
100
AcDbPolyline
 90
4
 70
1
 10
500.0
 20
16800.0
 10
7000.0
 20
16800.0
 10
7000.0
 20
17550.0
 10
500.0
 20
17550.0
  0
LWPOLYLINE
  5
45
330
17
100
AcDbEntity
  8
IMPL_FLOOR_2F
100
AcDbPolyline
 90
4
 70
1
 10
8800.0
 20
2599.9999999999995
 10
20000.0
 20
2599.9999999999995
 10
20000.0
 20
5000.0
 10
8800.0
 20
5000.0
  0
LWPOLYLINE
  5
46
330
17
100
AcDbEntity
  8
IMPL_FLOOR_2F
100
AcDbPolyline
 90
4
 70
1
 10
7000.0
 20
2600.0000000000005
 10
8800.0
 20
2600.0000000000005
 10
8800.0
 20
4200.0
 10
7000.0
 20
4200.0
  0
LWPOLYLINE
  5
47
330
17
100
AcDbEntity
  8
IMPL_FLOOR_2F
100
AcDbPolyline
 90
4
 70
1
 10
8800.0
 20
15300.0
 10
19500.0
 20
15300.0
 10
19500.0
 20
17550.0
 10
8800.0
 20
17550.0
  0
LWPOLYLINE
  5
48
330
17
100
AcDbEntity
  8
IMPL_FLOOR_2F
100
AcDbPolyline
 90
4
 70
1
 10
19500.0
 20
14999.999999999998
 10
21299.999999999996
 20
14999.999999999998
 10
21299.999999999996
 20
17549.999999999996
 10
19500.0
 20
17549.999999999996
  0
LWPOLYLINE
  5
49
330
17
100
AcDbEntity
  8
IMPL_FLOOR_2F
100
AcDbPolyline
 90
4
 70
1
 10
21299.999999999996
 20
9000.0
 10
27500.0
 20
9000.0
 10
27500.0
 20
16800.0
 10
21299.999999999996
 20
16800.0
  0
LWPOLYLINE
  5
4A
330
17
100
AcDbEntity
  8
IMPL_FLOOR_2F
100
AcDbPolyline
 90
4
 70
1
 10
20000.0
 20
13500.0
 10
21299.999999999996
 20
13500.0
 10
21299.999999999996
 20
15000.0
 10
20000.0
 20
15000.0
  0
LWPOLYLINE
  5
4B
330
17
100
AcDbEntity
  8
IMPL_FLOOR_2F
100
AcDbPolyline
 90
4
 70
1
 10
21299.999999999996
 20
7800.000000000001
 10
27500.0
 20
7800.000000000001
 10
27500.0
 20
9000.0
 10
21299.999999999996
 20
9000.0
  0
LWPOLYLINE
  5
4C
330
17
100
AcDbEntity
  8
IMPL_FLOOR_2F
100
AcDbPolyline
 90
4
 70
1
 10
20000.0
 20
1000.0
 10
27500.0
 20
1000.0
 10
27500.0
 20
7000.0
 10
20000.0
 20
7000.0
  0
LWPOLYLINE
  5
4D
330
17
100
AcDbEntity
  8
IMPL_FLOOR_2F
100
AcDbPolyline
 90
4
 70
1
 10
21299.999999999996
 20
7000.0
 10
27500.0
 20
7000.0
 10
27500.0
 20
7800.000000000001
 10
21299.999999999996
 20
7800.000000000001
  0
LWPOLYLINE
  5
4E
330
17
100
AcDbEntity
  8
IMPL_FLOOR_2F
100
AcDbPolyline
 90
4
 70
1
 10
11000.0
 20
12599.999999999998
 10
17000.0
 20
12599.999999999998
 10
17000.0
 20
15300.0
 10
11000.0
 20
15300.0
  0
LWPOLYLINE
  5
4F
330
17
100
AcDbEntity
  8
IMPL_GUARD
100
AcDbPolyline
 90
4
 70
1
 10
8755.000190734863
 20
4999.999556821936
 10
8845.000190734863
 20
4999.999556821936
 10
8845.000190734863
 20
11799.99968023861
 10
8755.000190734863
 20
11799.99968023861
  0
LWPOLYLINE
  5
50
330
17
100
AcDbEntity
  8
IMPL_GUARD
100
AcDbPolyline
 90
4
 70
1
 10
8799.999734333585
 20
4955.0
 10
19999.99950272696
 20
4955.0
 10
19999.99950272696
 20
5045.0
 10
8799.999734333585
 20
5045.0
  0
LWPOLYLINE
  5
51
330
17
100
AcDbEntity
  8
IMPL_GUARD
100
AcDbPolyline
 90
4
 70
1
 10
7000.0
 20
2554.9999046325684
 10
20000.0
 20
2554.9999046325684
 10
20000.0
 20
2644.9999046325684
 10
7000.0
 20
2644.9999046325684
  0
LWPOLYLINE
  5
52
330
17
100
AcDbEntity
  8
IMPL_GUARD
100
AcDbPolyline
 90
4
 70
1
 10
11000.0
 20
12555.000381469727
 10
17000.0
 20
12555.000381469727
 10
17000.0
 20
12645.000381469727
 10
11000.0
 20
12645.000381469727
  0
LWPOLYLINE
  5
53
330
17
100
AcDbEntity
  8
IMPL_GUARD
100
AcDbPolyline
 90
4
 70
1
 10
10955.0
 20
12600.00085477476
 10
11045.0
 20
12600.00085477476
 10
11045.0
 20
15300.000671104146
 10
10955.0
 20
15300.000671104146
  0
LWPOLYLINE
  5
54
330
17
100
AcDbEntity
  8
IMPL_GUARD
100
AcDbPolyline
 90
4
 70
1
 10
16955.0
 20
12600.00085477476
 10
17045.0
 20
12600.00085477476
 10
17045.0
 20
15300.000671104146
 10
16955.0
 20
15300.000671104146
  0
LWPOLYLINE
  5
55
330
17
100
AcDbEntity
  8
IMPL_GUARD
100
AcDbPolyline
 90
4
 70
1
 10
17000.0
 20
15255.000190734863
 10
19500.0
 20
15255.000190734863
 10
19500.0
 20
15345.000190734863
 10
17000.0
 20
15345.000190734863
  0
LWPOLYLINE
  5
56
330
17
100
AcDbEntity
  8
IMPL_GUARD
100
AcDbPolyline
 90
4
 70
1
 10
8799.999709562826
 20
15255.000190734863
 10
10999.999527497721
 20
15255.000190734863
 10
10999.999527497721
 20
15345.000190734863
 10
8799.999709562826
 20
15345.000190734863
  0
LWPOLYLINE
  5
57
330
17
100
AcDbEntity
  8
IMPL_GUARD
100
AcDbPolyline
 90
4
 70
1
 10
21254.999237060547
 20
7000.0
 10
21344.999237060547
 20
7000.0
 10
21344.999237060547
 20
13500.0
 10
21254.999237060547
 20
13500.0
  0
LWPOLYLINE
  5
58
330
17
100
AcDbEntity
  8
IMPL_GUARD
100
AcDbPolyline
 90
4
 70
1
 10
19955.0
 20
13500.0
 10
20045.0
 20
13500.0
 10
20045.0
 20
15000.0
 10
19955.0
 20
15000.0
  0
LWPOLYLINE
  5
59
330
17
100
AcDbEntity
  8
IMPL_GUARD
100
AcDbPolyline
 90
4
 70
1
 10
500.0
 20
4154.999809265137
 10
7000.0
 20
4154.999809265137
 10
7000.0
 20
4244.999809265137
 10
500.0
 20
4244.999809265137
  0
LWPOLYLINE
  5
5A
330
17
100
AcDbEntity
  8
IMPL_GUARD
100
AcDbPolyline
 90
4
 70
1
 10
6955.0
 20
2599.9999031424536
 10
7045.0
 20
2599.9999031424536
 10
7045.0
 20
4199.999810755251
 10
6955.0
 20
4199.999810755251
  0
LWPOLYLINE
  5
5B
330
17
100
AcDbEntity
  8
IMPL_GUARD
100
AcDbPolyline
 90
4
 70
1
 10
500.00011375151485
 20
17504.999237060547
 10
8800.000076983348
 20
17504.999237060547
 10
8800.000076983348
 20
17594.999237060547
 10
500.00011375151485
 20
17594.999237060547
  0
LWPOLYLINE
  5
5C
330
17
100
AcDbEntity
  8
IMPL_GUARD
100
AcDbPolyline
 90
4
 70
1
 10
6955.0
 20
11800.000665354177
 10
7045.0
 20
11800.000665354177
 10
7045.0
 20
16100.00086052473
 10
6955.0
 20
16100.00086052473
  0
LWPOLYLINE
  5
5D
330
17
100
AcDbEntity
  8
IMPL_GUARD
100
AcDbPolyline
 90
4
 70
1
 10
6999.999994701815
 20
11755.000190734863
 10
8800.000196033048
 20
11755.000190734863
 10
8800.000196033048
 20
11845.000190734863
 10
6999.999994701815
 20
11845.000190734863
  0
LWPOLYLINE
  5
5E
330
17
100
AcDbEntity
  8
IMPL_GUARD
100
AcDbPolyline
 90
4
 70
1
 10
19999.999997249128
 20
6955.0
 10
21299.99923981142
 20
6955.0
 10
21299.99923981142
 20
7045.0
 10
19999.999997249128
 20
7045.0
  0
LWPOLYLINE
  5
5F
330
17
100
AcDbEntity
  8
IMPL_GUARD
100
AcDbPolyline
 90
4
 70
1
 10
21299.999212449624
 20
16754.999237060547
 10
27500.000024610923
 20
16754.999237060547
 10
27500.000024610923
 20
16844.999237060547
 10
21299.999212449624
 20
16844.999237060547
  0
LWPOLYLINE
  5
60
330
17
100
AcDbEntity
  8
IMPL_COLLIDER
100
AcDbPolyline
 90
4
 70
1
 10
1299.9999999999998
 20
5600.0
 10
6600.0
 20
5600.0
 10
6600.0
 20
6500.0
 10
1299.9999999999998
 20
6500.0
  0
LWPOLYLINE
  5
61
330
17
100
AcDbEntity
  8
IMPL_COLLIDER
100
AcDbPolyline
 90
4
 70
1
 10
1299.9999999999998
 20
6499.999999999999
 10
2200.0
 20
6499.999999999999
 10
2200.0
 20
13899.999999999998
 10
1299.9999999999998
 20
13899.999999999998
  0
LWPOLYLINE
  5
62
330
17
100
AcDbEntity
  8
IMPL_COLLIDER
100
AcDbPolyline
 90
4
 70
1
 10
20000.0
 20
1100.0
 10
20100.0
 20
1100.0
 10
20100.0
 20
3900.0
 10
20000.0
 20
3900.0
  0
LWPOLYLINE
  5
63
330
17
100
AcDbEntity
  8
IMPL_COLLIDER
100
AcDbPolyline
 90
4
 70
1
 10
20000.0
 20
5400.0
 10
20100.0
 20
5400.0
 10
20100.0
 20
7000.0
 10
20000.0
 20
7000.0
  0
LWPOLYLINE
  5
64
330
17
100
AcDbEntity
  8
IMPL_COLLIDER
100
AcDbPolyline
 90
4
 70
1
 10
20000.0
 20
1000.0
 10
27500.0
 20
1000.0
 10
27500.0
 20
1100.0
 10
20000.0
 20
1100.0
  0
LWPOLYLINE
  5
65
330
17
100
AcDbEntity
  8
IMPL_COLLIDER
100
AcDbPolyline
 90
4
 70
1
 10
21299.999999999996
 20
7700.0
 10
27500.0
 20
7700.0
 10
27500.0
 20
7800.0
 10
21299.999999999996
 20
7800.0
  0
LWPOLYLINE
  5
66
330
17
100
AcDbEntity
  8
IMPL_COLLIDER
100
AcDbPolyline
 90
4
 70
1
 10
19349.999999999996
 20
15580.0
 10
27050.0
 20
15580.0
 10
27050.0
 20
15720.0
 10
19349.999999999996
 20
15720.0
  0
LWPOLYLINE
  5
67
330
17
100
AcDbEntity
  8
IMPL_COLLIDER
100
AcDbPolyline
 90
4
 70
1
 10
-64000.0
 20
0.0
 10
-28000.0
 20
0.0
 10
-28000.0
 20
26000.0
 10
-64000.0
 20
26000.0
  0
LWPOLYLINE
  5
68
330
17
100
AcDbEntity
  8
IMPL_COLLIDER
100
AcDbPolyline
 90
4
 70
1
 10
-64000.0
 20
0.0
 10
-63800.0
 20
0.0
 10
-63800.0
 20
26000.0
 10
-64000.0
 20
26000.0
  0
LWPOLYLINE
  5
69
330
17
100
AcDbEntity
  8
IMPL_COLLIDER
100
AcDbPolyline
 90
4
 70
1
 10
-28200.000000000004
 20
0.0
 10
-28000.0
 20
0.0
 10
-28000.0
 20
26000.0
 10
-28200.000000000004
 20
26000.0
  0
LWPOLYLINE
  5
6A
330
17
100
AcDbEntity
  8
IMPL_COLLIDER
100
AcDbPolyline
 90
4
 70
1
 10
-63800.0
 20
0.0
 10
-28200.0
 20
0.0
 10
-28200.0
 20
200.0
 10
-63800.0
 20
200.0
  0
LWPOLYLINE
  5
6B
330
17
100
AcDbEntity
  8
IMPL_COLLIDER
100
AcDbPolyline
 90
4
 70
1
 10
-63800.0
 20
25799.999999999996
 10
-28200.0
 20
25799.999999999996
 10
-28200.0
 20
26000.0
 10
-63800.0
 20
26000.0
  0
LWPOLYLINE
  5
6C
330
17
100
AcDbEntity
  8
IMPL_COLLIDER
100
AcDbPolyline
 90
4
 70
1
 10
-64000.0
 20
0.0
 10
-28000.0
 20
0.0
 10
-28000.0
 20
6000.0
 10
-64000.0
 20
6000.0
  0
LWPOLYLINE
  5
6D
330
17
100
AcDbEntity
  8
IMPL_COLLIDER
100
AcDbPolyline
 90
4
 70
1
 10
-64000.0
 20
8000.0
 10
-28000.0
 20
8000.0
 10
-28000.0
 20
17000.0
 10
-64000.0
 20
17000.0
  0
LWPOLYLINE
  5
6E
330
17
100
AcDbEntity
  8
IMPL_COLLIDER
100
AcDbPolyline
 90
4
 70
1
 10
-64000.0
 20
19000.0
 10
-28000.0
 20
19000.0
 10
-28000.0
 20
26000.0
 10
-64000.0
 20
26000.0
  0
LWPOLYLINE
  5
6F
330
17
100
AcDbEntity
  8
IMPL_COLLIDER
100
AcDbPolyline
 90
4
 70
1
 10
-63800.0
 20
6000.0
 10
-28200.0
 20
6000.0
 10
-28200.0
 20
8000.0
 10
-63800.0
 20
8000.0
  0
LWPOLYLINE
  5
70
330
17
100
AcDbEntity
  8
IMPL_COLLIDER
100
AcDbPolyline
 90
4
 70
1
 10
-63800.0
 20
17000.0
 10
-28200.0
 20
17000.0
 10
-28200.0
 20
19000.0
 10
-63800.0
 20
19000.0
  0
LWPOLYLINE
  5
71
330
17
100
AcDbEntity
  8
IMPL_COLLIDER
100
AcDbPolyline
 90
4
 70
1
 10
-63120.0
 20
880.0
 10
-62880.0
 20
880.0
 10
-62880.0
 20
1120.0
 10
-63120.0
 20
1120.0
  0
LWPOLYLINE
  5
72
330
17
100
AcDbEntity
  8
IMPL_COLLIDER
100
AcDbPolyline
 90
4
 70
1
 10
-63170.0
 20
830.0
 10
-62830.0
 20
830.0
 10
-62830.0
 20
1170.0
 10
-63170.0
 20
1170.0
  0
LWPOLYLINE
  5
73
330
17
100
AcDbEntity
  8
IMPL_COLLIDER
100
AcDbPolyline
 90
4
 70
1
 10
-63120.0
 20
8880.0
 10
-62880.0
 20
8880.0
 10
-62880.0
 20
9120.0
 10
-63120.0
 20
9120.0
  0
LWPOLYLINE
  5
74
330
17
100
AcDbEntity
  8
IMPL_COLLIDER
100
AcDbPolyline
 90
4
 70
1
 10
-63170.0
 20
8830.0
 10
-62830.0
 20
8830.0
 10
-62830.0
 20
9170.0
 10
-63170.0
 20
9170.0
  0
LWPOLYLINE
  5
75
330
17
100
AcDbEntity
  8
IMPL_COLLIDER
100
AcDbPolyline
 90
4
 70
1
 10
-63120.0
 20
16880.0
 10
-62880.0
 20
16880.0
 10
-62880.0
 20
17120.0
 10
-63120.0
 20
17120.0
  0
LWPOLYLINE
  5
76
330
17
100
AcDbEntity
  8
IMPL_COLLIDER
100
AcDbPolyline
 90
4
 70
1
 10
-63170.0
 20
16830.0
 10
-62830.0
 20
16830.0
 10
-62830.0
 20
17170.0
 10
-63170.0
 20
17170.0
  0
LWPOLYLINE
  5
77
330
17
100
AcDbEntity
  8
IMPL_COLLIDER
100
AcDbPolyline
 90
4
 70
1
 10
-63120.0
 20
24880.0
 10
-62880.0
 20
24880.0
 10
-62880.0
 20
25120.0
 10
-63120.0
 20
25120.0
  0
LWPOLYLINE
  5
78
330
17
100
AcDbEntity
  8
IMPL_COLLIDER
100
AcDbPolyline
 90
4
 70
1
 10
-63170.0
 20
24830.0
 10
-62830.0
 20
24830.0
 10
-62830.0
 20
25170.0
 10
-63170.0
 20
25170.0
  0
LWPOLYLINE
  5
79
330
17
100
AcDbEntity
  8
IMPL_COLLIDER
100
AcDbPolyline
 90
4
 70
1
 10
-29120.0
 20
880.0
 10
-28880.0
 20
880.0
 10
-28880.0
 20
1120.0
 10
-29120.0
 20
1120.0
  0
LWPOLYLINE
  5
7A
330
17
100
AcDbEntity
  8
IMPL_COLLIDER
100
AcDbPolyline
 90
4
 70
1
 10
-29170.0
 20
830.0
 10
-28830.0
 20
830.0
 10
-28830.0
 20
1170.0
 10
-29170.0
 20
1170.0
  0
LWPOLYLINE
  5
7B
330
17
100
AcDbEntity
  8
IMPL_COLLIDER
100
AcDbPolyline
 90
4
 70
1
 10
-29120.0
 20
8880.0
 10
-28880.0
 20
8880.0
 10
-28880.0
 20
9120.0
 10
-29120.0
 20
9120.0
  0
LWPOLYLINE
  5
7C
330
17
100
AcDbEntity
  8
IMPL_COLLIDER
100
AcDbPolyline
 90
4
 70
1
 10
-29170.0
 20
8830.0
 10
-28830.0
 20
8830.0
 10
-28830.0
 20
9170.0
 10
-29170.0
 20
9170.0
  0
LWPOLYLINE
  5
7D
330
17
100
AcDbEntity
  8
IMPL_COLLIDER
100
AcDbPolyline
 90
4
 70
1
 10
-29120.0
 20
16880.0
 10
-28880.0
 20
16880.0
 10
-28880.0
 20
17120.0
 10
-29120.0
 20
17120.0
  0
LWPOLYLINE
  5
7E
330
17
100
AcDbEntity
  8
IMPL_COLLIDER
100
AcDbPolyline
 90
4
 70
1
 10
-29170.0
 20
16830.0
 10
-28830.0
 20
16830.0
 10
-28830.0
 20
17170.0
 10
-29170.0
 20
17170.0
  0
LWPOLYLINE
  5
7F
330
17
100
AcDbEntity
  8
IMPL_COLLIDER
100
AcDbPolyline
 90
4
 70
1
 10
-29120.0
 20
24880.0
 10
-28880.0
 20
24880.0
 10
-28880.0
 20
25120.0
 10
-29120.0
 20
25120.0
  0
LWPOLYLINE
  5
80
330
17
100
AcDbEntity
  8
IMPL_COLLIDER
100
AcDbPolyline
 90
4
 70
1
 10
-29170.0
 20
24830.0
 10
-28830.0
 20
24830.0
 10
-28830.0
 20
25170.0
 10
-29170.0
 20
25170.0
  0
LWPOLYLINE
  5
81
330
17
100
AcDbEntity
  8
IMPL_COLLIDER
100
AcDbPolyline
 90
4
 70
1
 10
-54090.0
 20
7220.0
 10
-53910.0
 20
7220.0
 10
-53910.0
 20
7399.999999999999
 10
-54090.0
 20
7399.999999999999
  0
LWPOLYLINE
  5
82
330
17
100
AcDbEntity
  8
IMPL_COLLIDER
100
AcDbPolyline
 90
4
 70
1
 10
-54090.0
 20
7220.0
 10
-53910.0
 20
7220.0
 10
-53910.0
 20
7399.999999999999
 10
-54090.0
 20
7399.999999999999
  0
LWPOLYLINE
  5
83
330
17
100
AcDbEntity
  8
IMPL_COLLIDER
100
AcDbPolyline
 90
4
 70
1
 10
-54350.0
 20
7109.999999999999
 10
-53650.0
 20
7109.999999999999
 10
-53650.0
 20
7510.0
 10
-54350.0
 20
7510.0
  0
LWPOLYLINE
  5
84
330
17
100
AcDbEntity
  8
IMPL_COLLIDER
100
AcDbPolyline
 90
4
 70
1
 10
-54090.0
 20
10600.0
 10
-53910.0
 20
10600.0
 10
-53910.0
 20
10780.0
 10
-54090.0
 20
10780.0
  0
LWPOLYLINE
  5
85
330
17
100
AcDbEntity
  8
IMPL_COLLIDER
100
AcDbPolyline
 90
4
 70
1
 10
-54090.0
 20
10600.0
 10
-53910.0
 20
10600.0
 10
-53910.0
 20
10780.0
 10
-54090.0
 20
10780.0
  0
LWPOLYLINE
  5
86
330
17
100
AcDbEntity
  8
IMPL_COLLIDER
100
AcDbPolyline
 90
4
 70
1
 10
-54350.0
 20
10490.0
 10
-53650.0
 20
10490.0
 10
-53650.0
 20
10889.999999999998
 10
-54350.0
 20
10889.999999999998
  0
LWPOLYLINE
  5
87
330
17
100
AcDbEntity
  8
IMPL_COLLIDER
100
AcDbPolyline
 90
4
 70
1
 10
-54090.0
 20
7400.0
 10
-53910.0
 20
7400.0
 10
-53910.0
 20
10600.0
 10
-54090.0
 20
10600.0
  0
LWPOLYLINE
  5
88
330
17
100
AcDbEntity
  8
IMPL_COLLIDER
100
AcDbPolyline
 90
4
 70
1
 10
-54090.0
 20
7400.0
 10
-53910.0
 20
7400.0
 10
-53910.0
 20
10600.0
 10
-54090.0
 20
10600.0
  0
LWPOLYLINE
  5
89
330
17
100
AcDbEntity
  8
IMPL_COLLIDER
100
AcDbPolyline
 90
4
 70
1
 10
-54060.0
 20
8475.0
 10
-53940.0
 20
8475.0
 10
-53940.0
 20
9525.0
 10
-54060.0
 20
9525.0
  0
LWPOLYLINE
  5
8A
330
17
100
AcDbEntity
  8
IMPL_COLLIDER
100
AcDbPolyline
 90
4
 70
1
 10
-43090.0
 20
7220.0
 10
-42910.0
 20
7220.0
 10
-42910.0
 20
7399.999999999999
 10
-43090.0
 20
7399.999999999999
  0
LWPOLYLINE
  5
8B
330
17
100
AcDbEntity
  8
IMPL_COLLIDER
100
AcDbPolyline
 90
4
 70
1
 10
-43090.0
 20
7220.0
 10
-42910.0
 20
7220.0
 10
-42910.0
 20
7399.999999999999
 10
-43090.0
 20
7399.999999999999
  0
LWPOLYLINE
  5
8C
330
17
100
AcDbEntity
  8
IMPL_COLLIDER
100
AcDbPolyline
 90
4
 70
1
 10
-43350.0
 20
7109.999999999999
 10
-42650.0
 20
7109.999999999999
 10
-42650.0
 20
7510.0
 10
-43350.0
 20
7510.0
  0
LWPOLYLINE
  5
8D
330
17
100
AcDbEntity
  8
IMPL_COLLIDER
100
AcDbPolyline
 90
4
 70
1
 10
-43090.0
 20
10600.0
 10
-42910.0
 20
10600.0
 10
-42910.0
 20
10780.0
 10
-43090.0
 20
10780.0
  0
LWPOLYLINE
  5
8E
330
17
100
AcDbEntity
  8
IMPL_COLLIDER
100
AcDbPolyline
 90
4
 70
1
 10
-43090.0
 20
10600.0
 10
-42910.0
 20
10600.0
 10
-42910.0
 20
10780.0
 10
-43090.0
 20
10780.0
  0
LWPOLYLINE
  5
8F
330
17
100
AcDbEntity
  8
IMPL_COLLIDER
100
AcDbPolyline
 90
4
 70
1
 10
-43350.0
 20
10490.0
 10
-42650.0
 20
10490.0
 10
-42650.0
 20
10889.999999999998
 10
-43350.0
 20
10889.999999999998
  0
LWPOLYLINE
  5
90
330
17
100
AcDbEntity
  8
IMPL_COLLIDER
100
AcDbPolyline
 90
4
 70
1
 10
-43090.0
 20
7400.0
 10
-42910.0
 20
7400.0
 10
-42910.0
 20
10600.0
 10
-43090.0
 20
10600.0
  0
LWPOLYLINE
  5
91
330
17
100
AcDbEntity
  8
IMPL_COLLIDER
100
AcDbPolyline
 90
4
 70
1
 10
-43090.0
 20
7400.0
 10
-42910.0
 20
7400.0
 10
-42910.0
 20
10600.0
 10
-43090.0
 20
10600.0
  0
LWPOLYLINE
  5
92
330
17
100
AcDbEntity
  8
IMPL_COLLIDER
100
AcDbPolyline
 90
4
 70
1
 10
-43060.0
 20
8475.0
 10
-42940.0
 20
8475.0
 10
-42940.0
 20
9525.0
 10
-43060.0
 20
9525.0
  0
LWPOLYLINE
  5
93
330
17
100
AcDbEntity
  8
IMPL_COLLIDER
100
AcDbPolyline
 90
4
 70
1
 10
-32400.000000000007
 20
12910.0
 10
-32220.0
 20
12910.0
 10
-32220.0
 20
13090.0
 10
-32400.000000000007
 20
13090.0
  0
LWPOLYLINE
  5
94
330
17
100
AcDbEntity
  8
IMPL_COLLIDER
100
AcDbPolyline
 90
4
 70
1
 10
-32400.000000000007
 20
12910.0
 10
-32220.0
 20
12910.0
 10
-32220.0
 20
13090.0
 10
-32400.000000000007
 20
13090.0
  0
LWPOLYLINE
  5
95
330
17
100
AcDbEntity
  8
IMPL_COLLIDER
100
AcDbPolyline
 90
4
 70
1
 10
-32510.000000000004
 20
12650.0
 10
-32110.0
 20
12650.0
 10
-32110.0
 20
13350.0
 10
-32510.000000000004
 20
13350.0
  0
LWPOLYLINE
  5
96
330
17
100
AcDbEntity
  8
IMPL_COLLIDER
100
AcDbPolyline
 90
4
 70
1
 10
-35780.0
 20
12910.0
 10
-35599.99999999999
 20
12910.0
 10
-35599.99999999999
 20
13090.0
 10
-35780.0
 20
13090.0
  0
LWPOLYLINE
  5
97
330
17
100
AcDbEntity
  8
IMPL_COLLIDER
100
AcDbPolyline
 90
4
 70
1
 10
-35780.0
 20
12910.0
 10
-35599.99999999999
 20
12910.0
 10
-35599.99999999999
 20
13090.0
 10
-35780.0
 20
13090.0
  0
LWPOLYLINE
  5
98
330
17
100
AcDbEntity
  8
IMPL_COLLIDER
100
AcDbPolyline
 90
4
 70
1
 10
-35890.0
 20
12650.0
 10
-35489.99999999999
 20
12650.0
 10
-35489.99999999999
 20
13350.0
 10
-35890.0
 20
13350.0
  0
LWPOLYLINE
  5
99
330
17
100
AcDbEntity
  8
IMPL_COLLIDER
100
AcDbPolyline
 90
4
 70
1
 10
-35600.0
 20
12910.0
 10
-32400.0
 20
12910.0
 10
-32400.0
 20
13090.0
 10
-35600.0
 20
13090.0
  0
LWPOLYLINE
  5
9A
330
17
100
AcDbEntity
  8
IMPL_COLLIDER
100
AcDbPolyline
 90
4
 70
1
 10
-35600.0
 20
12910.0
 10
-32400.0
 20
12910.0
 10
-32400.0
 20
13090.0
 10
-35600.0
 20
13090.0
  0
LWPOLYLINE
  5
9B
330
17
100
AcDbEntity
  8
IMPL_COLLIDER
100
AcDbPolyline
 90
4
 70
1
 10
-34525.0
 20
12940.0
 10
-33475.0
 20
12940.0
 10
-33475.0
 20
13060.0
 10
-34525.0
 20
13060.0
  0
LWPOLYLINE
  5
9C
330
17
100
AcDbEntity
  8
IMPL_COLLIDER
100
AcDbPolyline
 90
4
 70
1
 10
-37090.0
 20
22600.0
 10
-36910.0
 20
22600.0
 10
-36910.0
 20
22780.0
 10
-37090.0
 20
22780.0
  0
LWPOLYLINE
  5
9D
330
17
100
AcDbEntity
  8
IMPL_COLLIDER
100
AcDbPolyline
 90
4
 70
1
 10
-37090.0
 20
22600.0
 10
-36910.0
 20
22600.0
 10
-36910.0
 20
22780.0
 10
-37090.0
 20
22780.0
  0
LWPOLYLINE
  5
9E
330
17
100
AcDbEntity
  8
IMPL_COLLIDER
100
AcDbPolyline
 90
4
 70
1
 10
-37350.0
 20
22490.000000000004
 10
-36650.0
 20
22490.000000000004
 10
-36650.0
 20
22890.0
 10
-37350.0
 20
22890.0
  0
LWPOLYLINE
  5
9F
330
17
100
AcDbEntity
  8
IMPL_COLLIDER
100
AcDbPolyline
 90
4
 70
1
 10
-37090.0
 20
19220.0
 10
-36910.0
 20
19220.0
 10
-36910.0
 20
19400.0
 10
-37090.0
 20
19400.0
  0
LWPOLYLINE
  5
A0
330
17
100
AcDbEntity
  8
IMPL_COLLIDER
100
AcDbPolyline
 90
4
 70
1
 10
-37090.0
 20
19220.0
 10
-36910.0
 20
19220.0
 10
-36910.0
 20
19400.0
 10
-37090.0
 20
19400.0
  0
LWPOLYLINE
  5
A1
330
17
100
AcDbEntity
  8
IMPL_COLLIDER
100
AcDbPolyline
 90
4
 70
1
 10
-37350.0
 20
19110.0
 10
-36650.0
 20
19110.0
 10
-36650.0
 20
19509.999999999996
 10
-37350.0
 20
19509.999999999996
  0
LWPOLYLINE
  5
A2
330
17
100
AcDbEntity
  8
IMPL_COLLIDER
100
AcDbPolyline
 90
4
 70
1
 10
-37090.0
 20
19400.0
 10
-36910.0
 20
19400.0
 10
-36910.0
 20
22600.0
 10
-37090.0
 20
22600.0
  0
LWPOLYLINE
  5
A3
330
17
100
AcDbEntity
  8
IMPL_COLLIDER
100
AcDbPolyline
 90
4
 70
1
 10
-37090.0
 20
19400.0
 10
-36910.0
 20
19400.0
 10
-36910.0
 20
22600.0
 10
-37090.0
 20
22600.0
  0
LWPOLYLINE
  5
A4
330
17
100
AcDbEntity
  8
IMPL_COLLIDER
100
AcDbPolyline
 90
4
 70
1
 10
-37060.0
 20
20475.0
 10
-36940.0
 20
20475.0
 10
-36940.0
 20
21525.0
 10
-37060.0
 20
21525.0
  0
LWPOLYLINE
  5
A5
330
17
100
AcDbEntity
  8
IMPL_COLLIDER
100
AcDbPolyline
 90
4
 70
1
 10
-44090.0
 20
23600.0
 10
-43910.0
 20
23600.0
 10
-43910.0
 20
23780.0
 10
-44090.0
 20
23780.0
  0
LWPOLYLINE
  5
A6
330
17
100
AcDbEntity
  8
IMPL_COLLIDER
100
AcDbPolyline
 90
4
 70
1
 10
-44090.0
 20
23600.0
 10
-43910.0
 20
23600.0
 10
-43910.0
 20
23780.0
 10
-44090.0
 20
23780.0
  0
LWPOLYLINE
  5
A7
330
17
100
AcDbEntity
  8
IMPL_COLLIDER
100
AcDbPolyline
 90
4
 70
1
 10
-44350.0
 20
23490.000000000004
 10
-43650.0
 20
23490.000000000004
 10
-43650.0
 20
23890.0
 10
-44350.0
 20
23890.0
  0
LWPOLYLINE
  5
A8
330
17
100
AcDbEntity
  8
IMPL_COLLIDER
100
AcDbPolyline
 90
4
 70
1
 10
-44090.0
 20
20220.0
 10
-43910.0
 20
20220.0
 10
-43910.0
 20
20400.0
 10
-44090.0
 20
20400.0
  0
LWPOLYLINE
  5
A9
330
17
100
AcDbEntity
  8
IMPL_COLLIDER
100
AcDbPolyline
 90
4
 70
1
 10
-44090.0
 20
20220.0
 10
-43910.0
 20
20220.0
 10
-43910.0
 20
20400.0
 10
-44090.0
 20
20400.0
  0
LWPOLYLINE
  5
AA
330
17
100
AcDbEntity
  8
IMPL_COLLIDER
100
AcDbPolyline
 90
4
 70
1
 10
-44350.0
 20
20110.0
 10
-43650.0
 20
20110.0
 10
-43650.0
 20
20509.999999999996
 10
-44350.0
 20
20509.999999999996
  0
LWPOLYLINE
  5
AB
330
17
100
AcDbEntity
  8
IMPL_COLLIDER
100
AcDbPolyline
 90
4
 70
1
 10
-44090.0
 20
20400.0
 10
-43910.0
 20
20400.0
 10
-43910.0
 20
23600.0
 10
-44090.0
 20
23600.0
  0
LWPOLYLINE
  5
AC
330
17
100
AcDbEntity
  8
IMPL_COLLIDER
100
AcDbPolyline
 90
4
 70
1
 10
-44090.0
 20
20400.0
 10
-43910.0
 20
20400.0
 10
-43910.0
 20
23600.0
 10
-44090.0
 20
23600.0
  0
LWPOLYLINE
  5
AD
330
17
100
AcDbEntity
  8
IMPL_COLLIDER
100
AcDbPolyline
 90
4
 70
1
 10
-44060.0
 20
21475.0
 10
-43940.0
 20
21475.0
 10
-43940.0
 20
22525.0
 10
-44060.0
 20
22525.0
  0
LWPOLYLINE
  5
AE
330
17
100
AcDbEntity
  8
IMPL_COLLIDER
100
AcDbPolyline
 90
4
 70
1
 10
-53090.0
 20
22600.0
 10
-52910.0
 20
22600.0
 10
-52910.0
 20
22780.0
 10
-53090.0
 20
22780.0
  0
LWPOLYLINE
  5
AF
330
17
100
AcDbEntity
  8
IMPL_COLLIDER
100
AcDbPolyline
 90
4
 70
1
 10
-53090.0
 20
22600.0
 10
-52910.0
 20
22600.0
 10
-52910.0
 20
22780.0
 10
-53090.0
 20
22780.0
  0
LWPOLYLINE
  5
B0
330
17
100
AcDbEntity
  8
IMPL_COLLIDER
100
AcDbPolyline
 90
4
 70
1
 10
-53350.0
 20
22490.000000000004
 10
-52650.0
 20
22490.000000000004
 10
-52650.0
 20
22890.0
 10
-53350.0
 20
22890.0
  0
LWPOLYLINE
  5
B1
330
17
100
AcDbEntity
  8
IMPL_COLLIDER
100
AcDbPolyline
 90
4
 70
1
 10
-53090.0
 20
19220.0
 10
-52910.0
 20
19220.0
 10
-52910.0
 20
19400.0
 10
-53090.0
 20
19400.0
  0
LWPOLYLINE
  5
B2
330
17
100
AcDbEntity
  8
IMPL_COLLIDER
100
AcDbPolyline
 90
4
 70
1
 10
-53090.0
 20
19220.0
 10
-52910.0
 20
19220.0
 10
-52910.0
 20
19400.0
 10
-53090.0
 20
19400.0
  0
LWPOLYLINE
  5
B3
330
17
100
AcDbEntity
  8
IMPL_COLLIDER
100
AcDbPolyline
 90
4
 70
1
 10
-53350.0
 20
19110.0
 10
-52650.0
 20
19110.0
 10
-52650.0
 20
19509.999999999996
 10
-53350.0
 20
19509.999999999996
  0
LWPOLYLINE
  5
B4
330
17
100
AcDbEntity
  8
IMPL_COLLIDER
100
AcDbPolyline
 90
4
 70
1
 10
-53090.0
 20
19400.0
 10
-52910.0
 20
19400.0
 10
-52910.0
 20
22600.0
 10
-53090.0
 20
22600.0
  0
LWPOLYLINE
  5
B5
330
17
100
AcDbEntity
  8
IMPL_COLLIDER
100
AcDbPolyline
 90
4
 70
1
 10
-53090.0
 20
19400.0
 10
-52910.0
 20
19400.0
 10
-52910.0
 20
22600.0
 10
-53090.0
 20
22600.0
  0
LWPOLYLINE
  5
B6
330
17
100
AcDbEntity
  8
IMPL_COLLIDER
100
AcDbPolyline
 90
4
 70
1
 10
-53060.0
 20
20475.0
 10
-52940.0
 20
20475.0
 10
-52940.0
 20
21525.0
 10
-53060.0
 20
21525.0
  0
LWPOLYLINE
  5
B7
330
17
100
AcDbEntity
  8
IMPL_COLLIDER
100
AcDbPolyline
 90
4
 70
1
 10
-59780.0
 20
17910.0
 10
-59599.99999999999
 20
17910.0
 10
-59599.99999999999
 20
18090.0
 10
-59780.0
 20
18090.0
  0
LWPOLYLINE
  5
B8
330
17
100
AcDbEntity
  8
IMPL_COLLIDER
100
AcDbPolyline
 90
4
 70
1
 10
-59780.0
 20
17910.0
 10
-59599.99999999999
 20
17910.0
 10
-59599.99999999999
 20
18090.0
 10
-59780.0
 20
18090.0
  0
LWPOLYLINE
  5
B9
330
17
100
AcDbEntity
  8
IMPL_COLLIDER
100
AcDbPolyline
 90
4
 70
1
 10
-59890.0
 20
17650.0
 10
-59489.99999999999
 20
17650.0
 10
-59489.99999999999
 20
18350.0
 10
-59890.0
 20
18350.0
  0
LWPOLYLINE
  5
BA
330
17
100
AcDbEntity
  8
IMPL_COLLIDER
100
AcDbPolyline
 90
4
 70
1
 10
-56400.00000000001
 20
17910.0
 10
-56220.0
 20
17910.0
 10
-56220.0
 20
18090.0
 10
-56400.00000000001
 20
18090.0
  0
LWPOLYLINE
  5
BB
330
17
100
AcDbEntity
  8
IMPL_COLLIDER
100
AcDbPolyline
 90
4
 70
1
 10
-56400.00000000001
 20
17910.0
 10
-56220.0
 20
17910.0
 10
-56220.0
 20
18090.0
 10
-56400.00000000001
 20
18090.0
  0
LWPOLYLINE
  5
BC
330
17
100
AcDbEntity
  8
IMPL_COLLIDER
100
AcDbPolyline
 90
4
 70
1
 10
-56510.00000000001
 20
17650.0
 10
-56110.0
 20
17650.0
 10
-56110.0
 20
18350.0
 10
-56510.00000000001
 20
18350.0
  0
LWPOLYLINE
  5
BD
330
17
100
AcDbEntity
  8
IMPL_COLLIDER
100
AcDbPolyline
 90
4
 70
1
 10
-59600.0
 20
17910.0
 10
-56400.0
 20
17910.0
 10
-56400.0
 20
18090.0
 10
-59600.0
 20
18090.0
  0
LWPOLYLINE
  5
BE
330
17
100
AcDbEntity
  8
IMPL_COLLIDER
100
AcDbPolyline
 90
4
 70
1
 10
-59600.0
 20
17910.0
 10
-56400.0
 20
17910.0
 10
-56400.0
 20
18090.0
 10
-59600.0
 20
18090.0
  0
LWPOLYLINE
  5
BF
330
17
100
AcDbEntity
  8
IMPL_COLLIDER
100
AcDbPolyline
 90
4
 70
1
 10
-58525.0
 20
17940.0
 10
-57475.0
 20
17940.0
 10
-57475.0
 20
18060.0
 10
-58525.0
 20
18060.0
  0
LWPOLYLINE
  5
C0
330
17
100
AcDbEntity
  8
IMPL_COLLIDER
100
AcDbPolyline
 90
4
 70
1
 10
-59780.0
 20
11910.0
 10
-59599.99999999999
 20
11910.0
 10
-59599.99999999999
 20
12090.0
 10
-59780.0
 20
12090.0
  0
LWPOLYLINE
  5
C1
330
17
100
AcDbEntity
  8
IMPL_COLLIDER
100
AcDbPolyline
 90
4
 70
1
 10
-59780.0
 20
11910.0
 10
-59599.99999999999
 20
11910.0
 10
-59599.99999999999
 20
12090.0
 10
-59780.0
 20
12090.0
  0
LWPOLYLINE
  5
C2
330
17
100
AcDbEntity
  8
IMPL_COLLIDER
100
AcDbPolyline
 90
4
 70
1
 10
-59890.0
 20
11650.0
 10
-59489.99999999999
 20
11650.0
 10
-59489.99999999999
 20
12350.0
 10
-59890.0
 20
12350.0
  0
LWPOLYLINE
  5
C3
330
17
100
AcDbEntity
  8
IMPL_COLLIDER
100
AcDbPolyline
 90
4
 70
1
 10
-56400.00000000001
 20
11910.0
 10
-56220.0
 20
11910.0
 10
-56220.0
 20
12090.0
 10
-56400.00000000001
 20
12090.0
  0
LWPOLYLINE
  5
C4
330
17
100
AcDbEntity
  8
IMPL_COLLIDER
100
AcDbPolyline
 90
4
 70
1
 10
-56400.00000000001
 20
11910.0
 10
-56220.0
 20
11910.0
 10
-56220.0
 20
12090.0
 10
-56400.00000000001
 20
12090.0
  0
LWPOLYLINE
  5
C5
330
17
100
AcDbEntity
  8
IMPL_COLLIDER
100
AcDbPolyline
 90
4
 70
1
 10
-56510.00000000001
 20
11650.0
 10
-56110.0
 20
11650.0
 10
-56110.0
 20
12350.0
 10
-56510.00000000001
 20
12350.0
  0
LWPOLYLINE
  5
C6
330
17
100
AcDbEntity
  8
IMPL_COLLIDER
100
AcDbPolyline
 90
4
 70
1
 10
-59600.0
 20
11910.0
 10
-56400.0
 20
11910.0
 10
-56400.0
 20
12090.0
 10
-59600.0
 20
12090.0
  0
LWPOLYLINE
  5
C7
330
17
100
AcDbEntity
  8
IMPL_COLLIDER
100
AcDbPolyline
 90
4
 70
1
 10
-59600.0
 20
11910.0
 10
-56400.0
 20
11910.0
 10
-56400.0
 20
12090.0
 10
-59600.0
 20
12090.0
  0
LWPOLYLINE
  5
C8
330
17
100
AcDbEntity
  8
IMPL_COLLIDER
100
AcDbPolyline
 90
4
 70
1
 10
-58525.0
 20
11940.0
 10
-57475.0
 20
11940.0
 10
-57475.0
 20
12060.0
 10
-58525.0
 20
12060.0
  0
LWPOLYLINE
  5
C9
330
17
100
AcDbEntity
  8
IMPL_COLLIDER
100
AcDbPolyline
 90
4
 70
1
 10
-63000.0
 20
5580.0
 10
-43500.0
 20
5580.0
 10
-43500.0
 20
5720.000000000001
 10
-63000.0
 20
5720.000000000001
  0
LWPOLYLINE
  5
CA
330
17
100
AcDbEntity
  8
IMPL_COLLIDER
100
AcDbPolyline
 90
4
 70
1
 10
-63000.0
 20
5610.0
 10
-43500.0
 20
5610.0
 10
-43500.0
 20
5690.0
 10
-63000.0
 20
5690.0
  0
LWPOLYLINE
  5
CB
330
17
100
AcDbEntity
  8
IMPL_COLLIDER
100
AcDbPolyline
 90
4
 70
1
 10
-41500.0
 20
5580.0
 10
-29000.0
 20
5580.0
 10
-29000.0
 20
5720.000000000001
 10
-41500.0
 20
5720.000000000001
  0
LWPOLYLINE
  5
CC
330
17
100
AcDbEntity
  8
IMPL_COLLIDER
100
AcDbPolyline
 90
4
 70
1
 10
-41500.0
 20
5610.0
 10
-29000.0
 20
5610.0
 10
-29000.0
 20
5690.0
 10
-41500.0
 20
5690.0
  0
LWPOLYLINE
  5
CD
330
17
100
AcDbEntity
  8
IMPL_COLLIDER
100
AcDbPolyline
 90
4
 70
1
 10
-61250.0
 20
3724.9999999999995
 10
-58750.0
 20
3724.9999999999995
 10
-58750.0
 20
4375.0
 10
-61250.0
 20
4375.0
  0
LWPOLYLINE
  5
CE
330
17
100
AcDbEntity
  8
IMPL_COLLIDER
100
AcDbPolyline
 90
4
 70
1
 10
-61035.0
 20
3809.9999999999995
 10
-60965.0
 20
3809.9999999999995
 10
-60965.0
 20
4290.0
 10
-61035.0
 20
4290.0
  0
LWPOLYLINE
  5
CF
330
17
100
AcDbEntity
  8
IMPL_COLLIDER
100
AcDbPolyline
 90
4
 70
1
 10
-59035.0
 20
3809.9999999999995
 10
-58965.0
 20
3809.9999999999995
 10
-58965.0
 20
4290.0
 10
-59035.0
 20
4290.0
  0
LWPOLYLINE
  5
D0
330
17
100
AcDbEntity
  8
IMPL_COLLIDER
100
AcDbPolyline
 90
4
 70
1
 10
-57250.0
 20
3724.9999999999995
 10
-54750.0
 20
3724.9999999999995
 10
-54750.0
 20
4375.0
 10
-57250.0
 20
4375.0
  0
LWPOLYLINE
  5
D1
330
17
100
AcDbEntity
  8
IMPL_COLLIDER
100
AcDbPolyline
 90
4
 70
1
 10
-57035.0
 20
3809.9999999999995
 10
-56965.0
 20
3809.9999999999995
 10
-56965.0
 20
4290.0
 10
-57035.0
 20
4290.0
  0
LWPOLYLINE
  5
D2
330
17
100
AcDbEntity
  8
IMPL_COLLIDER
100
AcDbPolyline
 90
4
 70
1
 10
-55035.0
 20
3809.9999999999995
 10
-54965.0
 20
3809.9999999999995
 10
-54965.0
 20
4290.0
 10
-55035.0
 20
4290.0
  0
LWPOLYLINE
  5
D3
330
17
100
AcDbEntity
  8
IMPL_COLLIDER
100
AcDbPolyline
 90
4
 70
1
 10
-53250.0
 20
3724.9999999999995
 10
-50750.0
 20
3724.9999999999995
 10
-50750.0
 20
4375.0
 10
-53250.0
 20
4375.0
  0
LWPOLYLINE
  5
D4
330
17
100
AcDbEntity
  8
IMPL_COLLIDER
100
AcDbPolyline
 90
4
 70
1
 10
-53035.0
 20
3809.9999999999995
 10
-52965.0
 20
3809.9999999999995
 10
-52965.0
 20
4290.0
 10
-53035.0
 20
4290.0
  0
LWPOLYLINE
  5
D5
330
17
100
AcDbEntity
  8
IMPL_COLLIDER
100
AcDbPolyline
 90
4
 70
1
 10
-51035.0
 20
3809.9999999999995
 10
-50965.0
 20
3809.9999999999995
 10
-50965.0
 20
4290.0
 10
-51035.0
 20
4290.0
  0
LWPOLYLINE
  5
D6
330
17
100
AcDbEntity
  8
IMPL_COLLIDER
100
AcDbPolyline
 90
4
 70
1
 10
-49250.0
 20
3724.9999999999995
 10
-46750.0
 20
3724.9999999999995
 10
-46750.0
 20
4375.0
 10
-49250.0
 20
4375.0
  0
LWPOLYLINE
  5
D7
330
17
100
AcDbEntity
  8
IMPL_COLLIDER
100
AcDbPolyline
 90
4
 70
1
 10
-49035.0
 20
3809.9999999999995
 10
-48965.0
 20
3809.9999999999995
 10
-48965.0
 20
4290.0
 10
-49035.0
 20
4290.0
  0
LWPOLYLINE
  5
D8
330
17
100
AcDbEntity
  8
IMPL_COLLIDER
100
AcDbPolyline
 90
4
 70
1
 10
-47035.0
 20
3809.9999999999995
 10
-46965.0
 20
3809.9999999999995
 10
-46965.0
 20
4290.0
 10
-47035.0
 20
4290.0
  0
LWPOLYLINE
  5
D9
330
17
100
AcDbEntity
  8
IMPL_COLLIDER
100
AcDbPolyline
 90
4
 70
1
 10
180000.0
 20
0.0
 10
328000.0
 20
0.0
 10
328000.0
 20
160000.0
 10
180000.0
 20
160000.0
  0
LWPOLYLINE
  5
DA
330
17
100
AcDbEntity
  8
IMPL_COLLIDER
100
AcDbPolyline
 90
4
 70
1
 10
179725.0
 20
0.0
 10
180275.0
 20
0.0
 10
180275.0
 20
160000.0
 10
179725.0
 20
160000.0
  0
LWPOLYLINE
  5
DB
330
17
100
AcDbEntity
  8
IMPL_COLLIDER
100
AcDbPolyline
 90
4
 70
1
 10
327725.0
 20
0.0
 10
328275.0
 20
0.0
 10
328275.0
 20
160000.0
 10
327725.0
 20
160000.0
  0
LWPOLYLINE
  5
DC
330
17
100
AcDbEntity
  8
IMPL_COLLIDER
100
AcDbPolyline
 90
4
 70
1
 10
180000.0
 20
-275.0
 10
328000.0
 20
-275.0
 10
328000.0
 20
275.0
 10
180000.0
 20
275.0
  0
LWPOLYLINE
  5
DD
330
17
100
AcDbEntity
  8
IMPL_COLLIDER
100
AcDbPolyline
 90
4
 70
1
 10
180000.0
 20
159725.0
 10
328000.0
 20
159725.0
 10
328000.0
 20
160275.0
 10
180000.0
 20
160275.0
  0
LWPOLYLINE
  5
DE
330
17
100
AcDbEntity
  8
IMPL_COLLIDER
100
AcDbPolyline
 90
4
 70
1
 10
179500.0
 20
-500.0
 10
328500.0
 20
-500.0
 10
328500.0
 20
160500.0
 10
179500.0
 20
160500.0
  0
LWPOLYLINE
  5
DF
330
17
100
AcDbEntity
  8
IMPL_COLLIDER
100
AcDbPolyline
 90
4
 70
1
 10
297304.85157172085
 20
132304.65765213215
 10
297724.8515717208
 20
132304.65765213215
 10
297724.8515717208
 20
132724.65765213218
 10
297304.85157172085
 20
132724.65765213218
  0
LWPOLYLINE
  5
E0
330
17
100
AcDbEntity
  8
IMPL_COLLIDER
100
AcDbPolyline
 90
4
 70
1
 10
300806.65885958204
 20
127139.87830363317
 10
301226.65885958204
 20
127139.87830363317
 10
301226.65885958204
 20
127559.87830363316
 10
300806.65885958204
 20
127559.87830363316
  0
LWPOLYLINE
  5
E1
330
17
100
AcDbEntity
  8
IMPL_COLLIDER
100
AcDbPolyline
 90
4
 70
1
 10
290692.174782571
 20
120608.58029781151
 10
291112.1747825709
 20
120608.58029781151
 10
291112.1747825709
 20
121028.5802978115
 10
290692.174782571
 20
121028.5802978115
  0
LWPOLYLINE
  5
E2
330
17
100
AcDbEntity
  8
IMPL_COLLIDER
100
AcDbPolyline
 90
4
 70
1
 10
296923.02328500204
 20
120270.75350823854
 10
297343.023285002
 20
120270.75350823854
 10
297343.023285002
 20
120690.75350823853
 10
296923.02328500204
 20
120690.75350823853
  0
LWPOLYLINE
  5
E3
330
17
100
AcDbEntity
  8
IMPL_COLLIDER
100
AcDbPolyline
 90
4
 70
1
 10
296001.51937409886
 20
108266.10972647011
 10
296421.5193740988
 20
108266.10972647011
 10
296421.5193740988
 20
108686.1097264701
 10
296001.51937409886
 20
108686.1097264701
  0
LWPOLYLINE
  5
E4
330
17
100
AcDbEntity
  8
IMPL_COLLIDER
100
AcDbPolyline
 90
4
 70
1
 10
300041.2097911374
 20
113022.00095046662
 10
300461.2097911373
 20
113022.00095046662
 10
300461.2097911373
 20
113442.00095046661
 10
300041.2097911374
 20
113442.00095046661
  0
LWPOLYLINE
  5
E5
330
17
100
AcDbEntity
  8
IMPL_COLLIDER
100
AcDbPolyline
 90
4
 70
1
 10
309040.35305599077
 20
105023.4971976635
 10
309460.3530559907
 20
105023.4971976635
 10
309460.3530559907
 20
105443.49719766348
 10
309040.35305599077
 20
105443.49719766348
  0
LWPOLYLINE
  5
E6
330
17
100
AcDbEntity
  8
IMPL_COLLIDER
100
AcDbPolyline
 90
4
 70
1
 10
307698.9375090739
 20
111117.60946529442
 10
308118.9375090738
 20
111117.60946529442
 10
308118.9375090738
 20
111537.60946529442
 10
307698.9375090739
 20
111537.60946529442
  0
LWPOLYLINE
  5
E7
330
17
100
AcDbEntity
  8
IMPL_COLLIDER
100
AcDbPolyline
 90
4
 70
1
 10
320910.0
 20
126218.57142857143
 10
321330.0
 20
126218.57142857143
 10
321330.0
 20
126638.57142857142
 10
320910.0
 20
126638.57142857142
  0
LWPOLYLINE
  5
E8
330
17
100
AcDbEntity
  8
IMPL_COLLIDER
100
AcDbPolyline
 90
4
 70
1
 10
320909.4124225643
 20
137850.5486412044
 10
321329.41242256423
 20
137850.5486412044
 10
321329.41242256423
 20
138270.54864120443
 10
320909.4124225643
 20
138270.54864120443
  0
LWPOLYLINE
  5
E9
330
17
100
AcDbEntity
  8
IMPL_COLLIDER
100
AcDbPolyline
 90
4
 70
1
 10
314670.58757743577
 20
137729.45135879557
 10
315090.5875774357
 20
137729.45135879557
 10
315090.5875774357
 20
138149.4513587956
 10
314670.58757743577
 20
138149.4513587956
  0
LWPOLYLINE
  5
EA
330
17
100
AcDbEntity
  8
IMPL_COLLIDER
100
AcDbPolyline
 90
4
 70
1
 10
311529.5512512474
 20
148773.09434741794
 10
311949.5512512474
 20
148773.09434741794
 10
311949.5512512474
 20
149193.09434741794
 10
311529.5512512474
 20
149193.09434741794
  0
LWPOLYLINE
  5
EB
330
17
100
AcDbEntity
  8
IMPL_COLLIDER
100
AcDbPolyline
 90
4
 70
1
 10
310553.40018939634
 20
142609.91910210426
 10
310973.40018939634
 20
142609.91910210426
 10
310973.40018939634
 20
143029.9191021043
 10
310553.40018939634
 20
143029.9191021043
  0
LWPOLYLINE
  5
EC
330
17
100
AcDbEntity
  8
IMPL_COLLIDER
100
AcDbPolyline
 90
4
 70
1
 10
299477.5678705993
 20
148910.0
 10
299897.5678705992
 20
148910.0
 10
299897.5678705992
 20
149330.0
 10
299477.5678705993
 20
149330.0
  0
LWPOLYLINE
  5
ED
330
17
100
AcDbEntity
  8
IMPL_COLLIDER
100
AcDbPolyline
 90
4
 70
1
 10
299477.5678705993
 20
142670.0
 10
299897.5678705992
 20
142670.0
 10
299897.5678705992
 20
143090.0
 10
299477.5678705993
 20
143090.0
  0
LWPOLYLINE
  5
EE
330
17
100
AcDbEntity
  8
IMPL_COLLIDER
100
AcDbPolyline
 90
4
 70
1
 10
287876.08172502345
 20
148910.0
 10
288296.0817250234
 20
148910.0
 10
288296.0817250234
 20
149330.0
 10
287876.08172502345
 20
149330.0
  0
LWPOLYLINE
  5
EF
330
17
100
AcDbEntity
  8
IMPL_COLLIDER
100
AcDbPolyline
 90
4
 70
1
 10
287876.08172502345
 20
142670.0
 10
288296.0817250234
 20
142670.0
 10
288296.0817250234
 20
143090.0
 10
287876.08172502345
 20
143090.0
  0
LWPOLYLINE
  5
F0
330
17
100
AcDbEntity
  8
IMPL_COLLIDER
100
AcDbPolyline
 90
4
 70
1
 10
275657.24281097454
 20
144386.27939836116
 10
276077.2428109745
 20
144386.27939836116
 10
276077.2428109745
 20
144806.27939836116
 10
275657.24281097454
 20
144806.27939836116
  0
LWPOLYLINE
  5
F1
330
17
100
AcDbEntity
  8
IMPL_COLLIDER
100
AcDbPolyline
 90
4
 70
1
 10
278964.4361965945
 20
139094.76998136946
 10
279384.43619659444
 20
139094.76998136946
 10
279384.43619659444
 20
139514.7699813695
 10
278964.4361965945
 20
139514.7699813695
  0
LWPOLYLINE
  5
F2
330
17
100
AcDbEntity
  8
IMPL_COLLIDER
100
AcDbPolyline
 90
4
 70
1
 10
267336.948408158
 20
141511.65840192197
 10
267756.9484081579
 20
141511.65840192197
 10
267756.9484081579
 20
141931.658401922
 10
267336.948408158
 20
141931.658401922
  0
LWPOLYLINE
  5
F3
330
17
100
AcDbEntity
  8
IMPL_COLLIDER
100
AcDbPolyline
 90
4
 70
1
 10
266584.68638834194
 20
135317.1687656773
 10
267004.6863883419
 20
135317.1687656773
 10
267004.6863883419
 20
135737.1687656773
 10
266584.68638834194
 20
135737.1687656773
  0
LWPOLYLINE
  5
F4
330
17
100
AcDbEntity
  8
IMPL_COLLIDER
100
AcDbPolyline
 90
4
 70
1
 10
258079.3499851742
 20
146539.8536997304
 10
258499.34998517414
 20
146539.8536997304
 10
258499.34998517414
 20
146959.85369973042
 10
258079.3499851742
 20
146959.85369973042
  0
LWPOLYLINE
  5
F5
330
17
100
AcDbEntity
  8
IMPL_COLLIDER
100
AcDbPolyline
 90
4
 70
1
 10
255483.74522938803
 20
140865.31090301624
 10
255903.74522938806
 20
140865.31090301624
 10
255903.74522938806
 20
141285.31090301627
 10
255483.74522938803
 20
141285.31090301627
  0
LWPOLYLINE
  5
F6
330
17
100
AcDbEntity
  8
IMPL_COLLIDER
100
AcDbPolyline
 90
4
 70
1
 10
244064.9384237548
 20
145787.6083816685
 10
244484.93842375482
 20
145787.6083816685
 10
244484.93842375482
 20
146207.60838166854
 10
244064.9384237548
 20
146207.60838166854
  0
LWPOLYLINE
  5
F7
330
17
100
AcDbEntity
  8
IMPL_COLLIDER
100
AcDbPolyline
 90
4
 70
1
 10
247253.05907426865
 20
140423.51603367832
 10
247673.05907426865
 20
140423.51603367832
 10
247673.05907426865
 20
140843.51603367832
 10
247253.05907426865
 20
140843.51603367832
  0
LWPOLYLINE
  5
F8
330
17
100
AcDbEntity
  8
IMPL_COLLIDER
100
AcDbPolyline
 90
4
 70
1
 10
235317.42475615008
 20
141448.07593809636
 10
235737.42475615008
 20
141448.07593809636
 10
235737.42475615008
 20
141868.0759380964
 10
235317.42475615008
 20
141868.0759380964
  0
LWPOLYLINE
  5
F9
330
17
100
AcDbEntity
  8
IMPL_COLLIDER
100
AcDbPolyline
 90
4
 70
1
 10
235419.24629683117
 20
135208.906732677
 10
235839.2462968312
 20
135208.906732677
 10
235839.2462968312
 20
135628.906732677
 10
235419.24629683117
 20
135628.906732677
  0
LWPOLYLINE
  5
FA
330
17
100
AcDbEntity
  8
IMPL_COLLIDER
100
AcDbPolyline
 90
4
 70
1
 10
226905.40635099306
 20
145022.12367213145
 10
227325.40635099306
 20
145022.12367213145
 10
227325.40635099306
 20
145442.12367213145
 10
226905.40635099306
 20
145442.12367213145
  0
LWPOLYLINE
  5
FB
330
17
100
AcDbEntity
  8
IMPL_COLLIDER
100
AcDbPolyline
 90
4
 70
1
 10
223598.2129653732
 20
139730.61425513963
 10
224018.21296537324
 20
139730.61425513963
 10
224018.21296537324
 20
140150.61425513966
 10
223598.2129653732
 20
140150.61425513966
  0
LWPOLYLINE
  5
FC
330
17
100
AcDbEntity
  8
IMPL_COLLIDER
100
AcDbPolyline
 90
4
 70
1
 10
214467.18328845012
 20
148910.0
 10
214887.18328845012
 20
148910.0
 10
214887.18328845012
 20
149330.0
 10
214467.18328845012
 20
149330.0
  0
LWPOLYLINE
  5
FD
330
17
100
AcDbEntity
  8
IMPL_COLLIDER
100
AcDbPolyline
 90
4
 70
1
 10
214467.18328845012
 20
142670.0
 10
214887.18328845012
 20
142670.0
 10
214887.18328845012
 20
143090.0
 10
214467.18328845012
 20
143090.0
  0
LWPOLYLINE
  5
FE
330
17
100
AcDbEntity
  8
IMPL_COLLIDER
100
AcDbPolyline
 90
4
 70
1
 10
203179.61132076604
 20
148910.0
 10
203599.61132076607
 20
148910.0
 10
203599.61132076607
 20
149330.0
 10
203179.61132076604
 20
149330.0
  0
LWPOLYLINE
  5
FF
330
17
100
AcDbEntity
  8
IMPL_COLLIDER
100
AcDbPolyline
 90
4
 70
1
 10
203179.61132076604
 20
142670.0
 10
203599.61132076607
 20
142670.0
 10
203599.61132076607
 20
143090.0
 10
203179.61132076604
 20
143090.0
  0
LWPOLYLINE
  5
100
330
17
100
AcDbEntity
  8
IMPL_COLLIDER
100
AcDbPolyline
 90
4
 70
1
 10
190219.86581201904
 20
145360.13418798093
 10
190639.86581201907
 20
145360.13418798093
 10
190639.86581201907
 20
145780.13418798096
 10
190219.86581201904
 20
145780.13418798096
  0
LWPOLYLINE
  5
101
330
17
100
AcDbEntity
  8
IMPL_COLLIDER
100
AcDbPolyline
 90
4
 70
1
 10
194632.2121266231
 20
140947.7878733769
 10
195052.2121266231
 20
140947.7878733769
 10
195052.2121266231
 20
141367.7878733769
 10
194632.2121266231
 20
141367.7878733769
  0
LWPOLYLINE
  5
102
330
17
100
AcDbEntity
  8
IMPL_COLLIDER
100
AcDbPolyline
 90
4
 70
1
 10
186806.90565258206
 20
132050.44874875256
 10
187226.90565258206
 20
132050.44874875256
 10
187226.90565258206
 20
132470.44874875256
 10
186806.90565258206
 20
132470.44874875256
  0
LWPOLYLINE
  5
103
330
17
100
AcDbEntity
  8
IMPL_COLLIDER
100
AcDbPolyline
 90
4
 70
1
 10
192970.0808978957
 20
133026.59981060372
 10
193390.08089789574
 20
133026.59981060372
 10
193390.08089789574
 20
133446.59981060374
 10
192970.0808978957
 20
133446.59981060374
  0
LWPOLYLINE
  5
104
330
17
100
AcDbEntity
  8
IMPL_COLLIDER
100
AcDbPolyline
 90
4
 70
1
 10
197728.81459746836
 20
122670.60000216115
 10
198148.8145974684
 20
122670.60000216115
 10
198148.8145974684
 20
123090.60000216114
 10
197728.81459746836
 20
123090.60000216114
  0
LWPOLYLINE
  5
105
330
17
100
AcDbEntity
  8
IMPL_COLLIDER
100
AcDbPolyline
 90
4
 70
1
 10
197851.1854025316
 20
128909.39999783885
 10
198271.18540253164
 20
128909.39999783885
 10
198271.18540253164
 20
129329.39999783886
 10
197851.1854025316
 20
129329.39999783886
  0
LWPOLYLINE
  5
106
330
17
100
AcDbEntity
  8
IMPL_COLLIDER
100
AcDbPolyline
 90
4
 70
1
 10
209123.33333333334
 20
122670.0
 10
209543.33333333334
 20
122670.0
 10
209543.33333333334
 20
123089.99999999999
 10
209123.33333333334
 20
123089.99999999999
  0
LWPOLYLINE
  5
107
330
17
100
AcDbEntity
  8
IMPL_COLLIDER
100
AcDbPolyline
 90
4
 70
1
 10
209123.33333333334
 20
128910.0
 10
209543.33333333334
 20
128910.0
 10
209543.33333333334
 20
129330.00000000001
 10
209123.33333333334
 20
129330.00000000001
  0
LWPOLYLINE
  5
108
330
17
100
AcDbEntity
  8
IMPL_COLLIDER
100
AcDbPolyline
 90
4
 70
1
 10
217657.35459881613
 20
121403.93909734866
 10
218077.35459881616
 20
121403.93909734866
 10
218077.35459881616
 20
121823.93909734864
 10
217657.35459881613
 20
121823.93909734864
  0
LWPOLYLINE
  5
109
330
17
100
AcDbEntity
  8
IMPL_COLLIDER
100
AcDbPolyline
 90
4
 70
1
 10
222268.77024227308
 20
125607.79991370316
 10
222688.7702422731
 20
125607.79991370316
 10
222688.7702422731
 20
126027.79991370314
 10
222268.77024227308
 20
126027.79991370314
  0
LWPOLYLINE
  5
10A
330
17
100
AcDbEntity
  8
IMPL_COLLIDER
100
AcDbPolyline
 90
4
 70
1
 10
217128.22238915155
 20
115693.69315815272
 10
217548.22238915158
 20
115693.69315815272
 10
217548.22238915158
 20
116113.6931581527
 10
217128.22238915155
 20
116113.6931581527
  0
LWPOLYLINE
  5
10B
330
17
100
AcDbEntity
  8
IMPL_COLLIDER
100
AcDbPolyline
 90
4
 70
1
 10
220888.66252015802
 20
110714.06565992396
 10
221308.66252015805
 20
110714.06565992396
 10
221308.66252015805
 20
111134.06565992394
 10
220888.66252015802
 20
111134.06565992394
  0
LWPOLYLINE
  5
10C
330
17
100
AcDbEntity
  8
IMPL_COLLIDER
100
AcDbPolyline
 90
4
 70
1
 10
207790.0
 20
114910.00000000001
 10
208210.0
 20
114910.00000000001
 10
208210.0
 20
115330.0
 10
207790.0
 20
115330.0
  0
LWPOLYLINE
  5
10D
330
17
100
AcDbEntity
  8
IMPL_COLLIDER
100
AcDbPolyline
 90
4
 70
1
 10
207790.0
 20
108670.0
 10
208210.0
 20
108670.0
 10
208210.0
 20
109089.99999999999
 10
207790.0
 20
109089.99999999999
  0
LWPOLYLINE
  5
10E
330
17
100
AcDbEntity
  8
IMPL_COLLIDER
100
AcDbPolyline
 90
4
 70
1
 10
194981.5022809529
 20
113427.46935355515
 10
195401.5022809529
 20
113427.46935355515
 10
195401.5022809529
 20
113847.46935355513
 10
194981.5022809529
 20
113847.46935355513
  0
LWPOLYLINE
  5
10F
330
17
100
AcDbEntity
  8
IMPL_COLLIDER
100
AcDbPolyline
 90
4
 70
1
 10
197972.01595808603
 20
107950.75245865548
 10
198392.01595808606
 20
107950.75245865548
 10
198392.01595808606
 20
108370.75245865546
 10
197972.01595808603
 20
108370.75245865546
  0
LWPOLYLINE
  5
110
330
17
100
AcDbEntity
  8
IMPL_COLLIDER
100
AcDbPolyline
 90
4
 70
1
 10
188670.36052140646
 20
100894.79316524511
 10
189090.36052140646
 20
100894.79316524511
 10
189090.36052140646
 20
101314.7931652451
 10
188670.36052140646
 20
101314.7931652451
  0
LWPOLYLINE
  5
111
330
17
100
AcDbEntity
  8
IMPL_COLLIDER
100
AcDbPolyline
 90
4
 70
1
 10
194909.63947859354
 20
100989.6514511369
 10
195329.63947859354
 20
100989.6514511369
 10
195329.63947859354
 20
101409.6514511369
 10
194909.63947859354
 20
101409.6514511369
  0
LWPOLYLINE
  5
112
330
17
100
AcDbEntity
  8
IMPL_COLLIDER
100
AcDbPolyline
 90
4
 70
1
 10
193865.9536895774
 20
89357.34958991256
 10
194285.9536895774
 20
89357.34958991256
 10
194285.9536895774
 20
89777.34958991254
 10
193865.9536895774
 20
89777.34958991254
  0
LWPOLYLINE
  5
113
330
17
100
AcDbEntity
  8
IMPL_COLLIDER
100
AcDbPolyline
 90
4
 70
1
 10
199221.27099732836
 20
92560.18841403454
 10
199641.27099732836
 20
92560.18841403454
 10
199641.27099732836
 20
92980.18841403454
 10
199221.27099732836
 20
92980.18841403454
  0
LWPOLYLINE
  5
114
330
17
100
AcDbEntity
  8
IMPL_COLLIDER
100
AcDbPolyline
 90
4
 70
1
 10
193268.88916959765
 20
81020.98890309749
 10
193688.88916959768
 20
81020.98890309749
 10
193688.88916959768
 20
81440.98890309747
 10
193268.88916959765
 20
81440.98890309747
  0
LWPOLYLINE
  5
115
330
17
100
AcDbEntity
  8
IMPL_COLLIDER
100
AcDbPolyline
 90
4
 70
1
 10
199294.5909096398
 20
79399.71824708322
 10
199714.59090963984
 20
79399.71824708322
 10
199714.59090963984
 20
79819.7182470832
 10
199294.5909096398
 20
79819.7182470832
  0
LWPOLYLINE
  5
116
330
17
100
AcDbEntity
  8
IMPL_COLLIDER
100
AcDbPolyline
 90
4
 70
1
 10
194664.8387835179
 20
67415.8778471547
 10
195084.83878351792
 20
67415.8778471547
 10
195084.83878351792
 20
67835.8778471547
 10
194664.8387835179
 20
67835.8778471547
  0
LWPOLYLINE
  5
117
330
17
100
AcDbEntity
  8
IMPL_COLLIDER
100
AcDbPolyline
 90
4
 70
1
 10
200160.59187239796
 20
70371.26242214073
 10
200580.59187239798
 20
70371.26242214073
 10
200580.59187239798
 20
70791.26242214072
 10
200160.59187239796
 20
70791.26242214072
  0
LWPOLYLINE
  5
118
330
17
100
AcDbEntity
  8
IMPL_COLLIDER
100
AcDbPolyline
 90
4
 70
1
 10
207334.36156543516
 20
65242.228315095344
 10
207754.3615654352
 20
65242.228315095344
 10
207754.3615654352
 20
65662.22831509533
 10
207334.36156543516
 20
65662.22831509533
  0
LWPOLYLINE
  5
119
330
17
100
AcDbEntity
  8
IMPL_COLLIDER
100
AcDbPolyline
 90
4
 70
1
 10
217536.42784226796
 20
64910.00000000001
 10
217956.42784226796
 20
64910.00000000001
 10
217956.42784226796
 20
65330.0
 10
217536.42784226796
 20
65330.0
  0
LWPOLYLINE
  5
11A
330
17
100
AcDbEntity
  8
IMPL_COLLIDER
100
AcDbPolyline
 90
4
 70
1
 10
229539.92350489087
 20
59005.57136442123
 10
229959.9235048909
 20
59005.57136442123
 10
229959.9235048909
 20
59425.57136442123
 10
229539.92350489087
 20
59425.57136442123
  0
LWPOLYLINE
  5
11B
330
17
100
AcDbEntity
  8
IMPL_COLLIDER
100
AcDbPolyline
 90
4
 70
1
 10
228431.99156026402
 20
65146.42527947861
 10
228851.99156026405
 20
65146.42527947861
 10
228851.99156026405
 20
65566.4252794786
 10
228431.99156026402
 20
65566.4252794786
  0
LWPOLYLINE
  5
11C
330
17
100
AcDbEntity
  8
IMPL_COLLIDER
100
AcDbPolyline
 90
4
 70
1
 10
241247.61230847804
 20
65398.45311577702
 10
241667.61230847804
 20
65398.45311577702
 10
241667.61230847804
 20
65818.45311577701
 10
241247.61230847804
 20
65818.45311577701
  0
LWPOLYLINE
  5
11D
330
17
100
AcDbEntity
  8
IMPL_COLLIDER
100
AcDbPolyline
 90
4
 70
1
 10
236680.59049006406
 20
69650.5010588429
 10
237100.59049006406
 20
69650.5010588429
 10
237100.59049006406
 20
70070.5010588429
 10
236680.59049006406
 20
70070.5010588429
  0
LWPOLYLINE
  5
11E
330
17
100
AcDbEntity
  8
IMPL_COLLIDER
100
AcDbPolyline
 90
4
 70
1
 10
246788.98877342246
 20
77532.37503254486
 10
247208.9887734225
 20
77532.37503254486
 10
247208.9887734225
 20
77952.37503254485
 10
246788.98877342246
 20
77952.37503254485
  0
LWPOLYLINE
  5
11F
330
17
100
AcDbEntity
  8
IMPL_COLLIDER
100
AcDbPolyline
 90
4
 70
1
 10
240584.74209036585
 20
78199.40059111109
 10
241004.74209036585
 20
78199.40059111109
 10
241004.74209036585
 20
78619.40059111107
 10
240584.74209036585
 20
78619.40059111107
  0
LWPOLYLINE
  5
120
330
17
100
AcDbEntity
  8
IMPL_COLLIDER
100
AcDbPolyline
 90
4
 70
1
 10
242326.1720054923
 20
90786.26897744942
 10
242746.1720054923
 20
90786.26897744942
 10
242746.1720054923
 20
91206.2689774494
 10
242326.1720054923
 20
91206.2689774494
  0
LWPOLYLINE
  5
121
330
17
100
AcDbEntity
  8
IMPL_COLLIDER
100
AcDbPolyline
 90
4
 70
1
 10
238658.39203118728
 20
85738.00293254973
 10
239078.39203118728
 20
85738.00293254973
 10
239078.39203118728
 20
86158.00293254972
 10
238658.39203118728
 20
86158.00293254972
  0
LWPOLYLINE
  5
122
330
17
100
AcDbEntity
  8
IMPL_COLLIDER
100
AcDbPolyline
 90
4
 70
1
 10
229456.66666666666
 20
92910.00000000001
 10
229876.66666666666
 20
92910.00000000001
 10
229876.66666666666
 20
93330.0
 10
229456.66666666666
 20
93330.0
  0
LWPOLYLINE
  5
123
330
17
100
AcDbEntity
  8
IMPL_COLLIDER
100
AcDbPolyline
 90
4
 70
1
 10
229456.66666666666
 20
86670.0
 10
229876.66666666666
 20
86670.0
 10
229876.66666666666
 20
87089.99999999999
 10
229456.66666666666
 20
87089.99999999999
  0
LWPOLYLINE
  5
124
330
17
100
AcDbEntity
  8
IMPL_COLLIDER
100
AcDbPolyline
 90
4
 70
1
 10
223055.54166522512
 20
95308.8377908799
 10
223475.54166522514
 20
95308.8377908799
 10
223475.54166522514
 20
95728.83779087989
 10
223055.54166522512
 20
95728.83779087989
  0
LWPOLYLINE
  5
125
330
17
100
AcDbEntity
  8
IMPL_COLLIDER
100
AcDbPolyline
 90
4
 70
1
 10
217084.23397025614
 20
93497.46140481209
 10
217504.23397025617
 20
93497.46140481209
 10
217504.23397025617
 20
93917.46140481207
 10
217084.23397025614
 20
93917.46140481207
  0
LWPOLYLINE
  5
126
330
17
100
AcDbEntity
  8
IMPL_COLLIDER
100
AcDbPolyline
 90
4
 70
1
 10
225958.70206568608
 20
99653.72437615202
 10
226378.7020656861
 20
99653.72437615202
 10
226378.7020656861
 20
100073.72437615201
 10
225958.70206568608
 20
100073.72437615201
  0
LWPOLYLINE
  5
127
330
17
100
AcDbEntity
  8
IMPL_COLLIDER
100
AcDbPolyline
 90
4
 70
1
 10
225347.07511002963
 20
105863.67707058655
 10
225767.07511002966
 20
105863.67707058655
 10
225767.07511002966
 20
106283.67707058653
 10
225347.07511002963
 20
106283.67707058653
  0
LWPOLYLINE
  5
128
330
17
100
AcDbEntity
  8
IMPL_COLLIDER
100
AcDbPolyline
 90
4
 70
1
 10
237889.09771421656
 20
105679.54366638674
 10
238309.0977142166
 20
105679.54366638674
 10
238309.0977142166
 20
106099.54366638673
 10
237889.09771421656
 20
106099.54366638673
  0
LWPOLYLINE
  5
129
330
17
100
AcDbEntity
  8
IMPL_COLLIDER
100
AcDbPolyline
 90
4
 70
1
 10
232347.10544903736
 20
108547.28175287475
 10
232767.1054490374
 20
108547.28175287475
 10
232767.1054490374
 20
108967.28175287474
 10
232347.10544903736
 20
108967.28175287474
  0
LWPOLYLINE
  5
12A
330
17
100
AcDbEntity
  8
IMPL_COLLIDER
100
AcDbPolyline
 90
4
 70
1
 10
240720.12146416737
 20
116217.1602324894
 10
241140.12146416737
 20
116217.1602324894
 10
241140.12146416737
 20
116637.16023248939
 10
240720.12146416737
 20
116637.16023248939
  0
LWPOLYLINE
  5
12B
330
17
100
AcDbEntity
  8
IMPL_COLLIDER
100
AcDbPolyline
 90
4
 70
1
 10
235685.08148699178
 20
119903.0756450082
 10
236105.08148699178
 20
119903.0756450082
 10
236105.08148699178
 20
120323.07564500818
 10
235685.08148699178
 20
120323.07564500818
  0
LWPOLYLINE
  5
12C
330
17
100
AcDbEntity
  8
IMPL_COLLIDER
100
AcDbPolyline
 90
4
 70
1
 10
247820.72623200904
 20
118363.65742419899
 10
248240.72623200907
 20
118363.65742419899
 10
248240.72623200907
 20
118783.65742419897
 10
247820.72623200904
 20
118783.65742419897
  0
LWPOLYLINE
  5
12D
330
17
100
AcDbEntity
  8
IMPL_COLLIDER
100
AcDbPolyline
 90
4
 70
1
 10
248922.03157682272
 20
124505.703218353
 10
249342.03157682274
 20
124505.703218353
 10
249342.03157682274
 20
124925.70321835298
 10
248922.03157682272
 20
124925.70321835298
  0
LWPOLYLINE
  5
12E
330
17
100
AcDbEntity
  8
IMPL_COLLIDER
100
AcDbPolyline
 90
4
 70
1
 10
257807.47882000537
 20
112708.50965531154
 10
258227.47882000534
 20
112708.50965531154
 10
258227.47882000534
 20
113128.50965531153
 10
257807.47882000537
 20
113128.50965531153
  0
LWPOLYLINE
  5
12F
330
17
100
AcDbEntity
  8
IMPL_COLLIDER
100
AcDbPolyline
 90
4
 70
1
 10
258351.33065475078
 20
118924.76457140403
 10
258771.33065475072
 20
118924.76457140403
 10
258771.33065475072
 20
119344.76457140401
 10
258351.33065475078
 20
119344.76457140401
  0
LWPOLYLINE
  5
130
330
17
100
AcDbEntity
  8
IMPL_COLLIDER
100
AcDbPolyline
 90
4
 70
1
 10
270195.47901102796
 20
117762.25243930165
 10
270615.4790110279
 20
117762.25243930165
 10
270615.4790110279
 20
118182.25243930164
 10
270195.47901102796
 20
118182.25243930164
  0
LWPOLYLINE
  5
131
330
17
100
AcDbEntity
  8
IMPL_COLLIDER
100
AcDbPolyline
 90
4
 70
1
 10
266184.48432658386
 20
122542.36976436405
 10
266604.4843265838
 20
122542.36976436405
 10
266604.4843265838
 20
122962.36976436405
 10
266184.48432658386
 20
122962.36976436405
  0
LWPOLYLINE
  5
132
330
17
100
AcDbEntity
  8
IMPL_COLLIDER
100
AcDbPolyline
 90
4
 70
1
 10
277465.33250410313
 20
118149.9121207723
 10
277885.3325041031
 20
118149.9121207723
 10
277885.3325041031
 20
118569.9121207723
 10
277465.33250410313
 20
118569.9121207723
  0
LWPOLYLINE
  5
133
330
17
100
AcDbEntity
  8
IMPL_COLLIDER
100
AcDbPolyline
 90
4
 70
1
 10
280586.0745891623
 20
123553.48212943695
 10
281006.07458916225
 20
123553.48212943695
 10
281006.07458916225
 20
123973.48212943693
 10
280586.0745891623
 20
123973.48212943693
  0
LWPOLYLINE
  5
134
330
17
100
AcDbEntity
  8
IMPL_COLLIDER
100
AcDbPolyline
 90
4
 70
1
 10
280527.8146264256
 20
112123.12797110982
 10
280947.81462642556
 20
112123.12797110982
 10
280947.81462642556
 20
112543.12797110982
 10
280527.8146264256
 20
112543.12797110982
  0
LWPOLYLINE
  5
135
330
17
100
AcDbEntity
  8
IMPL_COLLIDER
100
AcDbPolyline
 90
4
 70
1
 10
286673.7490287946
 20
111043.73447391947
 10
287093.7490287945
 20
111043.73447391947
 10
287093.7490287945
 20
111463.73447391945
 10
286673.7490287946
 20
111463.73447391945
  0
LWPOLYLINE
  5
136
330
17
100
AcDbEntity
  8
IMPL_COLLIDER
100
AcDbPolyline
 90
4
 70
1
 10
274783.2629126799
 20
105520.81325962684
 10
275203.2629126798
 20
105520.81325962684
 10
275203.2629126798
 20
105940.81325962683
 10
274783.2629126799
 20
105940.81325962683
  0
LWPOLYLINE
  5
137
330
17
100
AcDbEntity
  8
IMPL_COLLIDER
100
AcDbPolyline
 90
4
 70
1
 10
279107.22197842546
 20
101021.8158160005
 10
279527.2219784254
 20
101021.8158160005
 10
279527.2219784254
 20
101441.81581600048
 10
279107.22197842546
 20
101441.81581600048
  0
LWPOLYLINE
  5
138
330
17
100
AcDbEntity
  8
IMPL_COLLIDER
100
AcDbPolyline
 90
4
 70
1
 10
277557.1529101015
 20
81926.5654785522
 10
277977.1529101015
 20
81926.5654785522
 10
277977.1529101015
 20
82346.56547855219
 10
277557.1529101015
 20
82346.56547855219
  0
LWPOLYLINE
  5
139
330
17
100
AcDbEntity
  8
IMPL_COLLIDER
100
AcDbPolyline
 90
4
 70
1
 10
283720.79381375486
 20
82899.77193702389
 10
284140.79381375486
 20
82899.77193702389
 10
284140.79381375486
 20
83319.77193702388
 10
283720.79381375486
 20
83319.77193702388
  0
LWPOLYLINE
  5
13A
330
17
100
AcDbEntity
  8
IMPL_COLLIDER
100
AcDbPolyline
 90
4
 70
1
 10
279352.7080715243
 20
70554.71612287474
 10
279772.7080715242
 20
70554.71612287474
 10
279772.7080715242
 20
70974.71612287473
 10
279352.7080715243
 20
70974.71612287473
  0
LWPOLYLINE
  5
13B
330
17
100
AcDbEntity
  8
IMPL_COLLIDER
100
AcDbPolyline
 90
4
 70
1
 10
281148.2632329471
 20
59182.866767197
 10
281568.26323294704
 20
59182.866767197
 10
281568.26323294704
 20
59602.866767197
 10
281148.2632329471
 20
59602.866767197
  0
LWPOLYLINE
  5
13C
330
17
100
AcDbEntity
  8
IMPL_COLLIDER
100
AcDbPolyline
 90
4
 70
1
 10
287311.90413660044
 20
60156.07322566868
 10
287731.9041366004
 20
60156.07322566868
 10
287731.9041366004
 20
60576.07322566869
 10
287311.90413660044
 20
60576.07322566869
  0
LWPOLYLINE
  5
13D
330
17
100
AcDbEntity
  8
IMPL_COLLIDER
100
AcDbPolyline
 90
4
 70
1
 10
278294.73862539255
 20
53281.26513372996
 10
278714.7386253925
 20
53281.26513372996
 10
278714.7386253925
 20
53701.26513372996
 10
278294.73862539255
 20
53701.26513372996
  0
LWPOLYLINE
  5
13E
330
17
100
AcDbEntity
  8
IMPL_COLLIDER
100
AcDbPolyline
 90
4
 70
1
 10
280682.0572598313
 20
47515.997599810886
 10
281102.0572598313
 20
47515.997599810886
 10
281102.0572598313
 20
47935.997599810886
 10
280682.0572598313
 20
47935.997599810886
  0
LWPOLYLINE
  5
13F
330
17
100
AcDbEntity
  8
IMPL_COLLIDER
100
AcDbPolyline
 90
4
 70
1
 10
268080.5272873415
 20
52910.0
 10
268500.5272873414
 20
52910.0
 10
268500.5272873414
 20
53330.0
 10
268080.5272873415
 20
53330.0
  0
LWPOLYLINE
  5
140
330
17
100
AcDbEntity
  8
IMPL_COLLIDER
100
AcDbPolyline
 90
4
 70
1
 10
268080.5272873415
 20
46670.0
 10
268500.5272873414
 20
46670.0
 10
268500.5272873414
 20
47090.0
 10
268080.5272873415
 20
47090.0
  0
LWPOLYLINE
  5
141
330
17
100
AcDbEntity
  8
IMPL_COLLIDER
100
AcDbPolyline
 90
4
 70
1
 10
227310.10683211446
 20
4500.0
 10
275310.10683211446
 20
4500.0
 10
275310.10683211446
 20
19500.0
 10
227310.10683211446
 20
19500.0
  0
LWPOLYLINE
  5
142
330
17
100
AcDbEntity
  8
IMPL_COLLIDER
100
AcDbPolyline
 90
4
 70
1
 10
234310.10683211446
 20
10250.0
 10
268310.10683211446
 20
10250.0
 10
268310.10683211446
 20
11750.0
 10
234310.10683211446
 20
11750.0
  0
LWPOLYLINE
  5
143
330
17
100
AcDbEntity
  8
IMPL_COLLIDER
100
AcDbPolyline
 90
4
 70
1
 10
234310.10683211446
 20
8750.0
 10
268310.10683211446
 20
8750.0
 10
268310.10683211446
 20
10250.0
 10
234310.10683211446
 20
10250.0
  0
LWPOLYLINE
  5
144
330
17
100
AcDbEntity
  8
IMPL_COLLIDER
100
AcDbPolyline
 90
4
 70
1
 10
234310.10683211446
 20
7250.0
 10
268310.10683211446
 20
7250.0
 10
268310.10683211446
 20
8750.0
 10
234310.10683211446
 20
8750.0
  0
LWPOLYLINE
  5
145
330
17
100
AcDbEntity
  8
IMPL_COLLIDER
100
AcDbPolyline
 90
4
 70
1
 10
226810.10683211446
 20
4500.0
 10
275810.10683211446
 20
4500.0
 10
275810.10683211446
 20
19500.0
 10
226810.10683211446
 20
19500.0
  0
LWPOLYLINE
  5
146
330
17
100
AcDbEntity
  8
IMPL_COLLIDER
100
AcDbPolyline
 90
4
 70
1
 10
229200.10683211446
 20
18390.0
 10
229420.10683211446
 20
18390.0
 10
229420.10683211446
 20
18610.0
 10
229200.10683211446
 20
18610.0
  0
LWPOLYLINE
  5
147
330
17
100
AcDbEntity
  8
IMPL_COLLIDER
100
AcDbPolyline
 90
4
 70
1
 10
229200.10683211446
 20
5390.0
 10
229420.10683211446
 20
5390.0
 10
229420.10683211446
 20
5610.0
 10
229200.10683211446
 20
5610.0
  0
LWPOLYLINE
  5
148
330
17
100
AcDbEntity
  8
IMPL_COLLIDER
100
AcDbPolyline
 90
4
 70
1
 10
273200.10683211446
 20
18390.0
 10
273420.10683211446
 20
18390.0
 10
273420.10683211446
 20
18610.0
 10
273200.10683211446
 20
18610.0
  0
LWPOLYLINE
  5
149
330
17
100
AcDbEntity
  8
IMPL_COLLIDER
100
AcDbPolyline
 90
4
 70
1
 10
273200.10683211446
 20
5390.0
 10
273420.10683211446
 20
5390.0
 10
273420.10683211446
 20
5610.0
 10
273200.10683211446
 20
5610.0
  0
TEXT
  5
14A
330
17
100
AcDbEntity
  8
NOTES
100
AcDbText
 10
0.0
 20
19000.0
 30
0.0
 40
240.0
  1
THE COMMONS - v0.7.0 IMPLEMENTATION OVERLAY / PROPOSED CHANGES - NOT SOURCE CAD
100
AcDbText
  0
ENDSEC
  0
SECTION
  2
OBJECTS
  0
DICTIONARY
  5
A
330
0
100
AcDbDictionary
281
1
  3
ACAD_COLOR
350
B
  3
ACAD_GROUP
350
C
  3
ACAD_LAYOUT
350
D
  3
ACAD_MATERIAL
350
E
  3
ACAD_MLEADERSTYLE
350
F
  3
ACAD_MLINESTYLE
350
10
  3
ACAD_PLOTSETTINGS
350
11
  3
ACAD_PLOTSTYLENAME
350
12
  3
ACAD_SCALELIST
350
14
  3
ACAD_TABLESTYLE
350
15
  3
ACAD_VISUALSTYLE
350
16
  3
EZDXF_META
350
2D
  0
DICTIONARY
  5
B
330
A
100
AcDbDictionary
281
1
  0
DICTIONARY
  5
C
330
A
100
AcDbDictionary
281
1
  0
DICTIONARY
  5
D
330
A
100
AcDbDictionary
281
1
  3
Model
350
1A
  3
Layout1
350
1E
  0
DICTIONARY
  5
E
330
A
100
AcDbDictionary
281
1
  3
ByBlock
350
1F
  3
ByLayer
350
20
  3
Global
350
21
  0
DICTIONARY
  5
F
330
A
100
AcDbDictionary
281
1
  3
Standard
350
2C
  0
DICTIONARY
  5
10
330
A
100
AcDbDictionary
281
1
  3
Standard
350
22
  0
DICTIONARY
  5
11
330
A
100
AcDbDictionary
281
1
  0
ACDBDICTIONARYWDFLT
  5
12
330
A
100
AcDbDictionary
281
1
  3
Normal
350
13
100
AcDbDictionaryWithDefault
340
13
  0
ACDBPLACEHOLDER
  5
13
330
12
  0
DICTIONARY
  5
14
330
A
100
AcDbDictionary
281
1
  0
DICTIONARY
  5
15
330
A
100
AcDbDictionary
281
1
  0
DICTIONARY
  5
16
330
A
100
AcDbDictionary
281
1
  0
LAYOUT
  5
1A
330
D
100
AcDbPlotSettings
  1

  4
A3
  6

 40
7.5
 41
20.0
 42
7.5
 43
20.0
 44
420.0
 45
297.0
 46
0.0
 47
0.0
 48
0.0
 49
0.0
140
0.0
141
0.0
142
1.0
143
1.0
 70
1024
 72
1
 73
0
 74
5
  7

 75
16
 76
0
 77
2
 78
300
147
1.0
148
0.0
149
0.0
100
AcDbLayout
  1
Model
 70
1
 71
0
 10
0.0
 20
0.0
 11
420.0
 21
297.0
 12
0.0
 22
0.0
 32
0.0
 14
1e+20
 24
1e+20
 34
1e+20
 15
-1e+20
 25
-1e+20
 35
-1e+20
146
0.0
 13
0.0
 23
0.0
 33
0.0
 16
1.0
 26
0.0
 36
0.0
 17
0.0
 27
1.0
 37
0.0
 76
1
330
17
  0
LAYOUT
  5
1E
330
D
100
AcDbPlotSettings
  1

  4
A3
  6

 40
7.5
 41
20.0
 42
7.5
 43
20.0
 44
420.0
 45
297.0
 46
0.0
 47
0.0
 48
0.0
 49
0.0
140
0.0
141
0.0
142
1.0
143
1.0
 70
0
 72
1
 73
0
 74
5
  7

 75
16
 76
0
 77
2
 78
300
147
1.0
148
0.0
149
0.0
100
AcDbLayout
  1
Layout1
 70
1
 71
1
 10
0.0
 20
0.0
 11
420.0
 21
297.0
 12
0.0
 22
0.0
 32
0.0
 14
1e+20
 24
1e+20
 34
1e+20
 15
-1e+20
 25
-1e+20
 35
-1e+20
146
0.0
 13
0.0
 23
0.0
 33
0.0
 16
1.0
 26
0.0
 36
0.0
 17
0.0
 27
1.0
 37
0.0
 76
1
330
1B
  0
MATERIAL
  5
1F
102
{ACAD_REACTORS
330
E
102
}
330
E
100
AcDbMaterial
  1
ByBlock
  2

 70
0
 40
1.0
 71
1
 41
1.0
 91
-1023410177
 42
1.0
 72
1
  3

 73
1
 74
1
 75
1
 44
0.5
 73
0
 45
1.0
 46
1.0
 77
1
  4

 78
1
 79
1
170
1
 48
1.0
171
1
  6

172
1
173
1
174
1
140
1.0
141
1.0
175
1
  7

176
1
177
1
178
1
143
1.0
179
1
  8

270
1
271
1
272
1
145
1.0
146
1.0
273
1
  9

274
1
275
1
276
1
 42
1.0
 72
1
  3

 73
1
 74
1
 75
1
 94
63
  0
MATERIAL
  5
20
102
{ACAD_REACTORS
330
E
102
}
330
E
100
AcDbMaterial
  1
ByLayer
  2

 70
0
 40
1.0
 71
1
 41
1.0
 91
-1023410177
 42
1.0
 72
1
  3

 73
1
 74
1
 75
1
 44
0.5
 73
0
 45
1.0
 46
1.0
 77
1
  4

 78
1
 79
1
170
1
 48
1.0
171
1
  6

172
1
173
1
174
1
140
1.0
141
1.0
175
1
  7

176
1
177
1
178
1
143
1.0
179
1
  8

270
1
271
1
272
1
145
1.0
146
1.0
273
1
  9

274
1
275
1
276
1
 42
1.0
 72
1
  3

 73
1
 74
1
 75
1
 94
63
  0
MATERIAL
  5
21
102
{ACAD_REACTORS
330
E
102
}
330
E
100
AcDbMaterial
  1
Global
  2

 70
0
 40
1.0
 71
1
 41
1.0
 91
-1023410177
 42
1.0
 72
1
  3

 73
1
 74
1
 75
1
 44
0.5
 73
0
 45
1.0
 46
1.0
 77
1
  4

 78
1
 79
1
170
1
 48
1.0
171
1
  6

172
1
173
1
174
1
140
1.0
141
1.0
175
1
  7

176
1
177
1
178
1
143
1.0
179
1
  8

270
1
271
1
272
1
145
1.0
146
1.0
273
1
  9

274
1
275
1
276
1
 42
1.0
 72
1
  3

 73
1
 74
1
 75
1
 94
63
  0
MLINESTYLE
  5
22
102
{ACAD_REACTORS
330
10
102
}
330
10
100
AcDbMlineStyle
  2
Standard
 70
0
  3

 62
256
 51
90.0
 52
90.0
 71
2
 49
0.5
 62
256
  6
BYLAYER
 49
-0.5
 62
256
  6
BYLAYER
  0
MLEADERSTYLE
  5
2C
102
{ACAD_REACTORS
330
F
102
}
330
F
100
AcDbMLeaderStyle
179
2
170
2
171
1
172
0
 90
2
 40
0.0
 41
0.0
173
1
 91
-1056964608
 92
-2
290
1
 42
2.0
291
1
 43
8.0
  3
Standard
 44
4.0
300

342
29
174
1
175
1
176
0
178
1
 93
-1056964608
 45
4.0
292
0
297
0
 46
4.0
 94
-1056964608
 47
1.0
 49
1.0
140
1.0
294
1
141
0.0
177
0
142
1.0
295
0
296
0
143
3.75
271
0
272
9
273
9
  0
DICTIONARY
  5
2D
330
A
100
AcDbDictionary
280
1
281
1
  3
CREATED_BY_EZDXF
350
2E
  3
WRITTEN_BY_EZDXF
350
14D
  0
DICTIONARYVAR
  5
2E
330
2D
100
DictionaryVariables
280
0
  1
1.4.4 @ 2026-10-08T11:12:17.365988+00:00
  0
DICTIONARYVAR
  5
14D
330
2D
100
DictionaryVariables
280
0
  1
1.4.4 @ 2026-10-08T11:12:17.382033+00:00
  0
ENDSEC
  0
EOF
