  0
SECTION
  2
HEADER
  9
$ACADVER
  1
AC1024
  9
$ACADMAINTVER
 70
6
  9
$DWGCODEPAGE
  3
ANSI_1252
  9
$LASTSAVEDBY
  1
ezdxf
  9
$INSBASE
 10
0.0
 20
0.0
 30
0.0
  9
$EXTMIN
 10
1e+20
 20
1e+20
 30
1e+20
  9
$EXTMAX
 10
-1e+20
 20
-1e+20
 30
-1e+20
  9
$LIMMIN
 10
0.0
 20
0.0
  9
$LIMMAX
 10
420.0
 20
297.0
  9
$ORTHOMODE
 70
0
  9
$REGENMODE
 70
1
  9
$FILLMODE
 70
1
  9
$QTEXTMODE
 70
0
  9
$MIRRTEXT
 70
1
  9
$LTSCALE
 40
1.0
  9
$ATTMODE
 70
1
  9
$TEXTSIZE
 40
2.5
  9
$TRACEWID
 40
1.0
  9
$TEXTSTYLE
  7
Standard
  9
$CLAYER
  8
0
  9
$CELTYPE
  6
ByLayer
  9
$CECOLOR
 62
256
  9
$CELTSCALE
 40
1.0
  9
$DISPSILH
 70
0
  9
$DIMSCALE
 40
1.0
  9
$DIMASZ
 40
2.5
  9
$DIMEXO
 40
0.625
  9
$DIMDLI
 40
3.75
  9
$DIMRND
 40
0.0
  9
$DIMDLE
 40
0.0
  9
$DIMEXE
 40
1.25
  9
$DIMTP
 40
0.0
  9
$DIMTM
 40
0.0
  9
$DIMTXT
 40
2.5
  9
$DIMCEN
 40
2.5
  9
$DIMTSZ
 40
0.0
  9
$DIMTOL
 70
0
  9
$DIMLIM
 70
0
  9
$DIMTIH
 70
0
  9
$DIMTOH
 70
0
  9
$DIMSE1
 70
0
  9
$DIMSE2
 70
0
  9
$DIMTAD
 70
1
  9
$DIMZIN
 70
8
  9
$DIMBLK
  1

  9
$DIMASO
 70
1
  9
$DIMSHO
 70
1
  9
$DIMPOST
  1

  9
$DIMAPOST
  1

  9
$DIMALT
 70
0
  9
$DIMALTD
 70
3
  9
$DIMALTF
 40
0.03937007874
  9
$DIMLFAC
 40
1.0
  9
$DIMTOFL
 70
1
  9
$DIMTVP
 40
0.0
  9
$DIMTIX
 70
0
  9
$DIMSOXD
 70
0
  9
$DIMSAH
 70
0
  9
$DIMBLK1
  1

  9
$DIMBLK2
  1

  9
$DIMSTYLE
  2
ISO-25
  9
$DIMCLRD
 70
0
  9
$DIMCLRE
 70
0
  9
$DIMCLRT
 70
0
  9
$DIMTFAC
 40
1.0
  9
$DIMGAP
 40
0.625
  9
$DIMJUST
 70
0
  9
$DIMSD1
 70
0
  9
$DIMSD2
 70
0
  9
$DIMTOLJ
 70
0
  9
$DIMTZIN
 70
8
  9
$DIMALTZ
 70
0
  9
$DIMALTTZ
 70
0
  9
$DIMUPT
 70
0
  9
$DIMDEC
 70
2
  9
$DIMTDEC
 70
2
  9
$DIMALTU
 70
2
  9
$DIMALTTD
 70
3
  9
$DIMTXSTY
  7
Standard
  9
$DIMAUNIT
 70
0
  9
$DIMADEC
 70
0
  9
$DIMALTRND
 40
0.0
  9
$DIMAZIN
 70
0
  9
$DIMDSEP
 70
44
  9
$DIMATFIT
 70
3
  9
$DIMFRAC
 70
0
  9
$DIMLDRBLK
  1

  9
$DIMLUNIT
 70
2
  9
$DIMLWD
 70
-2
  9
$DIMLWE
 70
-2
  9
$DIMTMOVE
 70
0
  9
$DIMFXL
 40
1.0
  9
$DIMFXLON
 70
0
  9
$DIMJOGANG
 40
0.785398163397
  9
$DIMTFILL
 70
0
  9
$DIMTFILLCLR
 70
0
  9
$DIMARCSYM
 70
0
  9
$DIMLTYPE
  6

  9
$DIMLTEX1
  6

  9
$DIMLTEX2
  6

  9
$DIMTXTDIRECTION
 70
0
  9
$LUNITS
 70
2
  9
$LUPREC
 70
4
  9
$SKETCHINC
 40
1.0
  9
$FILLETRAD
 40
10.0
  9
$AUNITS
 70
0
  9
$AUPREC
 70
2
  9
$MENU
  1
.
  9
$ELEVATION
 40
0.0
  9
$PELEVATION
 40
0.0
  9
$THICKNESS
 40
0.0
  9
$LIMCHECK
 70
0
  9
$CHAMFERA
 40
0.0
  9
$CHAMFERB
 40
0.0
  9
$CHAMFERC
 40
0.0
  9
$CHAMFERD
 40
0.0
  9
$SKPOLY
 70
0
  9
$TDCREATE
 40
2461322.525532407
  9
$TDUCREATE
 40
2458532.153996898
  9
$TDUPDATE
 40
2461322.525532407
  9
$TDUUPDATE
 40
2458532.1544311
  9
$TDINDWG
 40
0.0
  9
$TDUSRTIMER
 40
0.0
  9
$USRTIMER
 70
1
  9
$ANGBASE
 50
0.0
  9
$ANGDIR
 70
0
  9
$PDMODE
 70
0
  9
$PDSIZE
 40
0.0
  9
$PLINEWID
 40
0.0
  9
$SPLFRAME
 70
0
  9
$SPLINETYPE
 70
6
  9
$SPLINESEGS
 70
8
  9
$HANDSEED
  5
16D
  9
$SURFTAB1
 70
6
  9
$SURFTAB2
 70
6
  9
$SURFTYPE
 70
6
  9
$SURFU
 70
6
  9
$SURFV
 70
6
  9
$UCSBASE
  2

  9
$UCSNAME
  2

  9
$UCSORG
 10
0.0
 20
0.0
 30
0.0
  9
$UCSXDIR
 10
1.0
 20
0.0
 30
0.0
  9
$UCSYDIR
 10
0.0
 20
1.0
 30
0.0
  9
$UCSORTHOREF
  2

  9
$UCSORTHOVIEW
 70
0
  9
$UCSORGTOP
 10
0.0
 20
0.0
 30
0.0
  9
$UCSORGBOTTOM
 10
0.0
 20
0.0
 30
0.0
  9
$UCSORGLEFT
 10
0.0
 20
0.0
 30
0.0
  9
$UCSORGRIGHT
 10
0.0
 20
0.0
 30
0.0
  9
$UCSORGFRONT
 10
0.0
 20
0.0
 30
0.0
  9
$UCSORGBACK
 10
0.0
 20
0.0
 30
0.0
  9
$PUCSBASE
  2

  9
$PUCSNAME
  2

  9
$PUCSORG
 10
0.0
 20
0.0
 30
0.0
  9
$PUCSXDIR
 10
1.0
 20
0.0
 30
0.0
  9
$PUCSYDIR
 10
0.0
 20
1.0
 30
0.0
  9
$PUCSORTHOREF
  2

  9
$PUCSORTHOVIEW
 70
0
  9
$PUCSORGTOP
 10
0.0
 20
0.0
 30
0.0
  9
$PUCSORGBOTTOM
 10
0.0
 20
0.0
 30
0.0
  9
$PUCSORGLEFT
 10
0.0
 20
0.0
 30
0.0
  9
$PUCSORGRIGHT
 10
0.0
 20
0.0
 30
0.0
  9
$PUCSORGFRONT
 10
0.0
 20
0.0
 30
0.0
  9
$PUCSORGBACK
 10
0.0
 20
0.0
 30
0.0
  9
$USERI1
 70
0
  9
$USERI2
 70
0
  9
$USERI3
 70
0
  9
$USERI4
 70
0
  9
$USERI5
 70
0
  9
$USERR1
 40
0.0
  9
$USERR2
 40
0.0
  9
$USERR3
 40
0.0
  9
$USERR4
 40
0.0
  9
$USERR5
 40
0.0
  9
$WORLDVIEW
 70
1
  9
$SHADEDGE
 70
3
  9
$SHADEDIF
 70
70
  9
$TILEMODE
 70
1
  9
$MAXACTVP
 70
64
  9
$PINSBASE
 10
0.0
 20
0.0
 30
0.0
  9
$PLIMCHECK
 70
0
  9
$PEXTMIN
 10
1e+20
 20
1e+20
 30
1e+20
  9
$PEXTMAX
 10
-1e+20
 20
-1e+20
 30
-1e+20
  9
$PLIMMIN
 10
0.0
 20
0.0
  9
$PLIMMAX
 10
420.0
 20
297.0
  9
$UNITMODE
 70
0
  9
$VISRETAIN
 70
1
  9
$PLINEGEN
 70
0
  9
$PSLTSCALE
 70
1
  9
$TREEDEPTH
 70
3020
  9
$CMLSTYLE
  2
Standard
  9
$CMLJUST
 70
0
  9
$CMLSCALE
 40
20.0
  9
$PROXYGRAPHICS
 70
1
  9
$MEASUREMENT
 70
1
  9
$CELWEIGHT
370
-1
  9
$ENDCAPS
280
0
  9
$JOINSTYLE
280
0
  9
$LWDISPLAY
290
0
  9
$INSUNITS
 70
4
  9
$HYPERLINKBASE
  1

  9
$STYLESHEET
  1

  9
$XEDIT
290
1
  9
$CEPSNTYPE
380
0
  9
$PSTYLEMODE
290
1
  9
$FINGERPRINTGUID
  2
{C2B62E4A-41A0-4561-8B82-00BFBCCD3A9E}
  9
$VERSIONGUID
  2
{47F1BB6C-82D1-4C0E-88BD-D228E9ED751E}
  9
$EXTNAMES
290
1
  9
$PSVPSCALE
 40
0.0
  9
$OLESTARTUP
290
0
  9
$SORTENTS
280
127
  9
$INDEXCTL
280
0
  9
$HIDETEXT
280
1
  9
$XCLIPFRAME
280
1
  9
$HALOGAP
280
0
  9
$OBSCOLOR
 70
257
  9
$OBSLTYPE
280
0
  9
$INTERSECTIONDISPLAY
280
0
  9
$INTERSECTIONCOLOR
 70
257
  9
$DIMASSOC
280
2
  9
$PROJECTNAME
  1

  9
$CAMERADISPLAY
290
0
  9
$LENSLENGTH
 40
50.0
  9
$CAMERAHEIGHT
 40
0.0
  9
$STEPSPERSEC
 40
24.0
  9
$STEPSIZE
 40
100.0
  9
$3DDWFPREC
 40
2.0
  9
$PSOLWIDTH
 40
0.005
  9
$PSOLHEIGHT
 40
0.08
  9
$LOFTANG1
 40
1.570796326795
  9
$LOFTANG2
 40
1.570796326795
  9
$LOFTMAG1
 40
0.0
  9
$LOFTMAG2
 40
0.0
  9
$LOFTPARAM
 70
7
  9
$LOFTNORMALS
280
1
  9
$LATITUDE
 40
37.795
  9
$LONGITUDE
 40
-122.394
  9
$NORTHDIRECTION
 40
0.0
  9
$TIMEZONE
 70
-8000
  9
$LIGHTGLYPHDISPLAY
280
1
  9
$TILEMODELIGHTSYNCH
280
1
  9
$CMATERIAL
347
20
  9
$SOLIDHIST
280
0
  9
$SHOWHIST
280
1
  9
$DWFFRAME
280
2
  9
$DGNFRAME
280
2
  9
$REALWORLDSCALE
290
1
  9
$INTERFERECOLOR
 62
256
  9
$CSHADOW
280
0
  9
$SHADOWPLANELOCATION
 40
0.0
  0
ENDSEC
  0
SECTION
  2
CLASSES
  0
CLASS
  1
ACDBDICTIONARYWDFLT
  2
AcDbDictionaryWithDefault
  3
ObjectDBX Classes
 90
0
 91
0
280
0
281
0
  0
CLASS
  1
SUN
  2
AcDbSun
  3
SCENEOE
 90
1153
 91
0
280
0
281
0
  0
CLASS
  1
VISUALSTYLE
  2
AcDbVisualStyle
  3
ObjectDBX Classes
 90
4095
 91
0
280
0
281
0
  0
CLASS
  1
MATERIAL
  2
AcDbMaterial
  3
ObjectDBX Classes
 90
1153
 91
0
280
0
281
0
  0
CLASS
  1
SCALE
  2
AcDbScale
  3
ObjectDBX Classes
 90
1153
 91
0
280
0
281
0
  0
CLASS
  1
TABLESTYLE
  2
AcDbTableStyle
  3
ObjectDBX Classes
 90
4095
 91
0
280
0
281
0
  0
CLASS
  1
MLEADERSTYLE
  2
AcDbMLeaderStyle
  3
ACDB_MLEADERSTYLE_CLASS
 90
4095
 91
0
280
0
281
0
  0
CLASS
  1
DICTIONARYVAR
  2
AcDbDictionaryVar
  3
ObjectDBX Classes
 90
0
 91
0
280
0
281
0
  0
CLASS
  1
CELLSTYLEMAP
  2
AcDbCellStyleMap
  3
ObjectDBX Classes
 90
1152
 91
0
280
0
281
0
  0
CLASS
  1
MENTALRAYRENDERSETTINGS
  2
AcDbMentalRayRenderSettings
  3
SCENEOE
 90
1024
 91
0
280
0
281
0
  0
CLASS
  1
ACDBDETAILVIEWSTYLE
  2
AcDbDetailViewStyle
  3
ObjectDBX Classes
 90
1025
 91
0
280
0
281
0
  0
CLASS
  1
ACDBSECTIONVIEWSTYLE
  2
AcDbSectionViewStyle
  3
ObjectDBX Classes
 90
1025
 91
0
280
0
281
0
  0
CLASS
  1
RASTERVARIABLES
  2
AcDbRasterVariables
  3
ISM
 90
0
 91
0
280
0
281
0
  0
CLASS
  1
ACDBPLACEHOLDER
  2
AcDbPlaceHolder
  3
ObjectDBX Classes
 90
0
 91
0
280
0
281
0
  0
CLASS
  1
LAYOUT
  2
AcDbLayout
  3
ObjectDBX Classes
 90
0
 91
0
280
0
281
0
  0
ENDSEC
  0
SECTION
  2
TABLES
  0
TABLE
  2
VPORT
  5
8
330
0
100
AcDbSymbolTable
 70
1
  0
VPORT
  5
23
330
8
100
AcDbSymbolTableRecord
100
AcDbViewportTableRecord
  2
*Active
 70
0
 10
0.0
 20
0.0
 11
1.0
 21
1.0
 12
0.0
 22
0.0
 13
0.0
 23
0.0
 14
0.5
 24
0.5
 15
0.5
 25
0.5
 16
0.0
 26
0.0
 36
1.0
 17
0.0
 27
0.0
 37
0.0
 40
1000.0
 41
1.34
 42
50.0
 43
0.0
 44
0.0
 50
0.0
 51
0.0
 71
0
 72
1000
 73
1
 74
3
 75
0
 76
0
 77
0
 78
0
281
0
 65
0
146
0.0
  0
ENDTAB
  0
TABLE
  2
LTYPE
  5
2
330
0
100
AcDbSymbolTable
 70
3
  0
LTYPE
  5
24
330
2
100
AcDbSymbolTableRecord
100
AcDbLinetypeTableRecord
  2
ByBlock
 70
0
  3

 72
65
 73
0
 40
0.0
  0
LTYPE
  5
25
330
2
100
AcDbSymbolTableRecord
100
AcDbLinetypeTableRecord
  2
ByLayer
 70
0
  3

 72
65
 73
0
 40
0.0
  0
LTYPE
  5
26
330
2
100
AcDbSymbolTableRecord
100
AcDbLinetypeTableRecord
  2
Continuous
 70
0
  3

 72
65
 73
0
 40
0.0
  0
ENDTAB
  0
TABLE
  2
LAYER
  5
1
330
0
100
AcDbSymbolTable
 70
7
  0
LAYER
  5
27
330
1
100
AcDbSymbolTableRecord
100
AcDbLayerTableRecord
  2
0
 70
0
 62
7
  6
Continuous
370
-3
390
13
347
21
  0
LAYER
  5
28
330
1
100
AcDbSymbolTableRecord
100
AcDbLayerTableRecord
  2
Defpoints
 70
0
 62
7
  6
Continuous
290
0
370
-3
390
13
347
21
  0
LAYER
  5
2F
330
1
100
AcDbSymbolTableRecord
100
AcDbLayerTableRecord
  2
IMPL_FLOOR_2F
 70
0
 62
4
  6
Continuous
370
-3
390
13
347
21
  0
LAYER
  5
30
330
1
100
AcDbSymbolTableRecord
100
AcDbLayerTableRecord
  2
IMPL_COLLIDER
 70
0
 62
8
  6
Continuous
370
-3
390
13
347
21
  0
LAYER
  5
31
330
1
100
AcDbSymbolTableRecord
100
AcDbLayerTableRecord
  2
IMPL_GUARD
 70
0
 62
3
  6
Continuous
370
-3
390
13
347
21
  0
LAYER
  5
32
330
1
100
AcDbSymbolTableRecord
100
AcDbLayerTableRecord
  2
SOURCE_ZONE
 70
0
 62
7
  6
Continuous
370
-3
390
13
347
21
  0
LAYER
  5
33
330
1
100
AcDbSymbolTableRecord
100
AcDbLayerTableRecord
  2
NOTES
 70
0
 62
2
  6
Continuous
370
-3
390
13
347
21
  0
ENDTAB
  0
TABLE
  2
STYLE
  5
5
330
0
100
AcDbSymbolTable
 70
1
  0
STYLE
  5
29
330
5
100
AcDbSymbolTableRecord
100
AcDbTextStyleTableRecord
  2
Standard
 70
0
 40
0.0
 41
1.0
 50
0.0
 71
0
 42
2.5
  3
txt
  4

  0
ENDTAB
  0
TABLE
  2
VIEW
  5
7
330
0
100
AcDbSymbolTable
 70
0
  0
ENDTAB
  0
TABLE
  2
UCS
  5
6
330
0
100
AcDbSymbolTable
 70
0
  0
ENDTAB
  0
TABLE
  2
APPID
  5
3
330
0
100
AcDbSymbolTable
 70
3
  0
APPID
  5
2A
330
3
100
AcDbSymbolTableRecord
100
AcDbRegAppTableRecord
  2
ACAD
 70
0
  0
APPID
  5
16A
330
3
100
AcDbSymbolTableRecord
100
AcDbRegAppTableRecord
  2
HATCHBACKGROUNDCOLOR
 70
0
  0
APPID
  5
16B
330
3
100
AcDbSymbolTableRecord
100
AcDbRegAppTableRecord
  2
EZDXF
 70
0
  0
ENDTAB
  0
TABLE
  2
DIMSTYLE
  5
4
330
0
100
AcDbSymbolTable
 70
1
100
AcDbDimStyleTable
  0
DIMSTYLE
105
2B
330
4
100
AcDbSymbolTableRecord
100
AcDbDimStyleTableRecord
  2
Standard
 70
0
 40
1.0
 41
2.5
 42
0.625
 43
3.75
 44
1.25
 45
0.0
 46
0.0
 47
0.0
 48
0.0
 49
2.5
140
2.5
141
2.5
142
0.0
143
0.03937007874
144
1.0
145
0.0
146
1.0
147
0.625
148
0.0
 69
0
 70
0
 71
0
 72
0
 73
0
 74
0
 75
0
 76
0
 77
1
 78
8
 79
3
170
0
171
3
172
1
173
0
174
0
175
0
176
0
177
0
178
0
179
2
271
2
272
2
273
2
274
3
275
0
276
0
277
2
278
44
279
0
280
0
281
0
282
0
283
0
284
8
285
0
286
0
288
0
289
3
290
0
371
-2
372
-2
  0
ENDTAB
  0
TABLE
  2
BLOCK_RECORD
  5
9
330
0
100
AcDbSymbolTable
 70
2
  0
BLOCK_RECORD
  5
17
330
9
100
AcDbSymbolTableRecord
100
AcDbBlockTableRecord
  2
*Model_Space
340
1A
 70
0
280
1
281
0
  0
BLOCK_RECORD
  5
1B
330
9
100
AcDbSymbolTableRecord
100
AcDbBlockTableRecord
  2
*Paper_Space
340
1E
 70
0
280
1
281
0
  0
ENDTAB
  0
ENDSEC
  0
SECTION
  2
BLOCKS
  0
BLOCK
  5
18
330
17
100
AcDbEntity
  8
0
100
AcDbBlockBegin
  2
*Model_Space
 70
0
 10
0.0
 20
0.0
 30
0.0
  3
*Model_Space
  1

  0
ENDBLK
  5
19
330
17
100
AcDbEntity
  8
0
100
AcDbBlockEnd
  0
BLOCK
  5
1C
330
1B
100
AcDbEntity
  8
0
100
AcDbBlockBegin
  2
*Paper_Space
 70
0
 10
0.0
 20
0.0
 30
0.0
  3
*Paper_Space
  1

  0
ENDBLK
  5
1D
330
1B
100
AcDbEntity
  8
0
100
AcDbBlockEnd
  0
ENDSEC
  0
SECTION
  2
ENTITIES
  0
LWPOLYLINE
  5
34
330
17
100
AcDbEntity
  8
SOURCE_ZONE
100
AcDbPolyline
 90
4
 70
1
 10
500.0
 20
4200.0
 10
8800.0
 20
4200.0
 10
8800.0
 20
16800.0
 10
500.0
 20
16800.0
  0
LWPOLYLINE
  5
35
330
17
100
AcDbEntity
  8
SOURCE_ZONE
100
AcDbPolyline
 90
4
 70
1
 10
8800.0
 20
15300.0
 10
19500.0
 20
15300.0
 10
19500.0
 20
17550.0
 10
8800.0
 20
17550.0
  0
LWPOLYLINE
  5
36
330
17
100
AcDbEntity
  8
SOURCE_ZONE
100
AcDbPolyline
 90
4
 70
1
 10
11000.0
 20
12600.0
 10
17000.0
 20
12600.0
 10
17000.0
 20
15800.0
 10
11000.0
 20
15800.0
  0
LWPOLYLINE
  5
37
330
17
100
AcDbEntity
  8
SOURCE_ZONE
100
AcDbPolyline
 90
4
 70
1
 10
20000.0
 20
9000.0
 10
27500.0
 20
9000.0
 10
27500.0
 20
16800.0
 10
20000.0
 20
16800.0
  0
LWPOLYLINE
  5
38
330
17
100
AcDbEntity
  8
SOURCE_ZONE
100
AcDbPolyline
 90
4
 70
1
 10
20000.0
 20
1000.0
 10
27500.0
 20
1000.0
 10
27500.0
 20
7800.0
 10
20000.0
 20
7800.0
  0
LWPOLYLINE
  5
39
330
17
100
AcDbEntity
  8
SOURCE_ZONE
100
AcDbPolyline
 90
4
 70
1
 10
8800.0
 20
2600.0
 10
20000.0
 20
2600.0
 10
20000.0
 20
5000.0
 10
8800.0
 20
5000.0
  0
LWPOLYLINE
  5
3A
330
17
100
AcDbEntity
  8
IMPL_COLLIDER
100
AcDbPolyline
 90
4
 70
1
 10
0.0
 20
0.0
 10
28000.0
 20
0.0
 10
28000.0
 20
18000.0
 10
0.0
 20
18000.0
  0
LWPOLYLINE
  5
3B
330
17
100
AcDbEntity
  8
IMPL_COLLIDER
100
AcDbPolyline
 90
4
 70
1
 10
0.0
 20
250.0
 10
250.0
 20
250.0
 10
250.0
 20
17750.0
 10
0.0
 20
17750.0
  0
LWPOLYLINE
  5
3C
330
17
100
AcDbEntity
  8
IMPL_COLLIDER
100
AcDbPolyline
 90
4
 70
1
 10
0.0
 20
17750.0
 10
28000.0
 20
17750.0
 10
28000.0
 20
18000.0
 10
0.0
 20
18000.0
  0
LWPOLYLINE
  5
3D
330
17
100
AcDbEntity
  8
IMPL_COLLIDER
100
AcDbPolyline
 90
4
 70
1
 10
0.0
 20
0.0
 10
11500.0
 20
0.0
 10
11500.0
 20
250.0
 10
0.0
 20
250.0
  0
LWPOLYLINE
  5
3E
330
17
100
AcDbEntity
  8
IMPL_COLLIDER
100
AcDbPolyline
 90
4
 70
1
 10
16500.0
 20
0.0
 10
28000.0
 20
0.0
 10
28000.0
 20
250.0
 10
16500.0
 20
250.0
  0
LWPOLYLINE
  5
3F
330
17
100
AcDbEntity
  8
IMPL_COLLIDER
100
AcDbPolyline
 90
4
 70
1
 10
27750.0
 20
0.0
 10
28000.0
 20
0.0
 10
28000.0
 20
18000.0
 10
27750.0
 20
18000.0
  0
LWPOLYLINE
  5
40
330
17
100
AcDbEntity
  8
IMPL_COLLIDER
100
AcDbPolyline
 90
4
 70
1
 10
11440.0
 20
5.000000000000004
 10
16560.0
 20
5.000000000000004
 10
16560.0
 20
245.0
 10
11440.0
 20
245.0
  0
LWPOLYLINE
  5
41
330
17
100
AcDbEntity
  8
IMPL_FLOOR_2F
100
AcDbPolyline
 90
4
 70
1
 10
500.0
 20
4199.999999999999
 10
7000.0
 20
4199.999999999999
 10
7000.0
 20
16800.0
 10
500.0
 20
16800.0
  0
LWPOLYLINE
  5
42
330
17
100
AcDbEntity
  8
IMPL_FLOOR_2F
100
AcDbPolyline
 90
4
 70
1
 10
7000.0
 20
4199.999999999999
 10
8800.0
 20
4199.999999999999
 10
8800.0
 20
11800.0
 10
7000.0
 20
11800.0
  0
LWPOLYLINE
  5
43
330
17
100
AcDbEntity
  8
IMPL_FLOOR_2F
100
AcDbPolyline
 90
4
 70
1
 10
7000.0
 20
16100.000000000002
 10
8800.0
 20
16100.000000000002
 10
8800.0
 20
17550.000000000004
 10
7000.0
 20
17550.000000000004
  0
LWPOLYLINE
  5
44
330
17
100
AcDbEntity
  8
IMPL_FLOOR_2F
100
AcDbPolyline
 90
4
 70
1
 10
500.0
 20
16800.0
 10
7000.0
 20
16800.0
 10
7000.0
 20
17550.0
 10
500.0
 20
17550.0
  0
LWPOLYLINE
  5
45
330
17
100
AcDbEntity
  8
IMPL_FLOOR_2F
100
AcDbPolyline
 90
4
 70
1
 10
8800.0
 20
2599.9999999999995
 10
20000.0
 20
2599.9999999999995
 10
20000.0
 20
5000.0
 10
8800.0
 20
5000.0
  0
LWPOLYLINE
  5
46
330
17
100
AcDbEntity
  8
IMPL_FLOOR_2F
100
AcDbPolyline
 90
4
 70
1
 10
7000.0
 20
2600.0000000000005
 10
8800.0
 20
2600.0000000000005
 10
8800.0
 20
4200.0
 10
7000.0
 20
4200.0
  0
LWPOLYLINE
  5
47
330
17
100
AcDbEntity
  8
IMPL_FLOOR_2F
100
AcDbPolyline
 90
4
 70
1
 10
8800.0
 20
15300.0
 10
19500.0
 20
15300.0
 10
19500.0
 20
17550.0
 10
8800.0
 20
17550.0
  0
LWPOLYLINE
  5
48
330
17
100
AcDbEntity
  8
IMPL_FLOOR_2F
100
AcDbPolyline
 90
4
 70
1
 10
19500.0
 20
14999.999999999998
 10
21299.999999999996
 20
14999.999999999998
 10
21299.999999999996
 20
17549.999999999996
 10
19500.0
 20
17549.999999999996
  0
LWPOLYLINE
  5
49
330
17
100
AcDbEntity
  8
IMPL_FLOOR_2F
100
AcDbPolyline
 90
4
 70
1
 10
21299.999999999996
 20
9000.0
 10
27500.0
 20
9000.0
 10
27500.0
 20
16800.0
 10
21299.999999999996
 20
16800.0
  0
LWPOLYLINE
  5
4A
330
17
100
AcDbEntity
  8
IMPL_FLOOR_2F
100
AcDbPolyline
 90
4
 70
1
 10
20000.0
 20
13500.0
 10
21299.999999999996
 20
13500.0
 10
21299.999999999996
 20
15000.0
 10
20000.0
 20
15000.0
  0
LWPOLYLINE
  5
4B
330
17
100
AcDbEntity
  8
IMPL_FLOOR_2F
100
AcDbPolyline
 90
4
 70
1
 10
21299.999999999996
 20
7800.000000000001
 10
27500.0
 20
7800.000000000001
 10
27500.0
 20
9000.0
 10
21299.999999999996
 20
9000.0
  0
LWPOLYLINE
  5
4C
330
17
100
AcDbEntity
  8
IMPL_FLOOR_2F
100
AcDbPolyline
 90
4
 70
1
 10
20000.0
 20
1000.0
 10
27500.0
 20
1000.0
 10
27500.0
 20
7000.0
 10
20000.0
 20
7000.0
  0
LWPOLYLINE
  5
4D
330
17
100
AcDbEntity
  8
IMPL_FLOOR_2F
100
AcDbPolyline
 90
4
 70
1
 10
21299.999999999996
 20
7000.0
 10
27500.0
 20
7000.0
 10
27500.0
 20
7800.000000000001
 10
21299.999999999996
 20
7800.000000000001
  0
LWPOLYLINE
  5
4E
330
17
100
AcDbEntity
  8
IMPL_FLOOR_2F
100
AcDbPolyline
 90
4
 70
1
 10
11000.0
 20
12599.999999999998
 10
17000.0
 20
12599.999999999998
 10
17000.0
 20
15300.0
 10
11000.0
 20
15300.0
  0
LWPOLYLINE
  5
4F
330
17
100
AcDbEntity
  8
IMPL_GUARD
100
AcDbPolyline
 90
4
 70
1
 10
8755.000190734863
 20
4999.999556821936
 10
8845.000190734863
 20
4999.999556821936
 10
8845.000190734863
 20
11799.99968023861
 10
8755.000190734863
 20
11799.99968023861
  0
LWPOLYLINE
  5
50
330
17
100
AcDbEntity
  8
IMPL_GUARD
100
AcDbPolyline
 90
4
 70
1
 10
8799.999734333585
 20
4955.0
 10
19999.99950272696
 20
4955.0
 10
19999.99950272696
 20
5045.0
 10
8799.999734333585
 20
5045.0
  0
LWPOLYLINE
  5
51
330
17
100
AcDbEntity
  8
IMPL_GUARD
100
AcDbPolyline
 90
4
 70
1
 10
7000.0
 20
2554.9999046325684
 10
20000.0
 20
2554.9999046325684
 10
20000.0
 20
2644.9999046325684
 10
7000.0
 20
2644.9999046325684
  0
LWPOLYLINE
  5
52
330
17
100
AcDbEntity
  8
IMPL_GUARD
100
AcDbPolyline
 90
4
 70
1
 10
11000.0
 20
12555.000381469727
 10
17000.0
 20
12555.000381469727
 10
17000.0
 20
12645.000381469727
 10
11000.0
 20
12645.000381469727
  0
LWPOLYLINE
  5
53
330
17
100
AcDbEntity
  8
IMPL_GUARD
100
AcDbPolyline
 90
4
 70
1
 10
10955.0
 20
12600.00085477476
 10
11045.0
 20
12600.00085477476
 10
11045.0
 20
15300.000671104146
 10
10955.0
 20
15300.000671104146
  0
LWPOLYLINE
  5
54
330
17
100
AcDbEntity
  8
IMPL_GUARD
100
AcDbPolyline
 90
4
 70
1
 10
16955.0
 20
12600.00085477476
 10
17045.0
 20
12600.00085477476
 10
17045.0
 20
15300.000671104146
 10
16955.0
 20
15300.000671104146
  0
LWPOLYLINE
  5
55
330
17
100
AcDbEntity
  8
IMPL_GUARD
100
AcDbPolyline
 90
4
 70
1
 10
17000.0
 20
15255.000190734863
 10
19500.0
 20
15255.000190734863
 10
19500.0
 20
15345.000190734863
 10
17000.0
 20
15345.000190734863
  0
LWPOLYLINE
  5
56
330
17
100
AcDbEntity
  8
IMPL_GUARD
100
AcDbPolyline
 90
4
 70
1
 10
8799.999709562826
 20
15255.000190734863
 10
10999.999527497721
 20
15255.000190734863
 10
10999.999527497721
 20
15345.000190734863
 10
8799.999709562826
 20
15345.000190734863
  0
LWPOLYLINE
  5
57
330
17
100
AcDbEntity
  8
IMPL_GUARD
100
AcDbPolyline
 90
4
 70
1
 10
21254.999237060547
 20
7000.0
 10
21344.999237060547
 20
7000.0
 10
21344.999237060547
 20
13500.0
 10
21254.999237060547
 20
13500.0
  0
LWPOLYLINE
  5
58
330
17
100
AcDbEntity
  8
IMPL_GUARD
100
AcDbPolyline
 90
4
 70
1
 10
19955.0
 20
13500.0
 10
20045.0
 20
13500.0
 10
20045.0
 20
15000.0
 10
19955.0
 20
15000.0
  0
LWPOLYLINE
  5
59
330
17
100
AcDbEntity
  8
IMPL_GUARD
100
AcDbPolyline
 90
4
 70
1
 10
500.0
 20
4154.999809265137
 10
7000.0
 20
4154.999809265137
 10
7000.0
 20
4244.999809265137
 10
500.0
 20
4244.999809265137
  0
LWPOLYLINE
  5
5A
330
17
100
AcDbEntity
  8
IMPL_GUARD
100
AcDbPolyline
 90
4
 70
1
 10
6955.0
 20
2599.9999031424536
 10
7045.0
 20
2599.9999031424536
 10
7045.0
 20
4199.999810755251
 10
6955.0
 20
4199.999810755251
  0
LWPOLYLINE
  5
5B
330
17
100
AcDbEntity
  8
IMPL_GUARD
100
AcDbPolyline
 90
4
 70
1
 10
500.00011375151485
 20
17504.999237060547
 10
8800.000076983348
 20
17504.999237060547
 10
8800.000076983348
 20
17594.999237060547
 10
500.00011375151485
 20
17594.999237060547
  0
LWPOLYLINE
  5
5C
330
17
100
AcDbEntity
  8
IMPL_GUARD
100
AcDbPolyline
 90
4
 70
1
 10
6955.0
 20
11800.000665354177
 10
7045.0
 20
11800.000665354177
 10
7045.0
 20
16100.00086052473
 10
6955.0
 20
16100.00086052473
  0
LWPOLYLINE
  5
5D
330
17
100
AcDbEntity
  8
IMPL_GUARD
100
AcDbPolyline
 90
4
 70
1
 10
6999.999994701815
 20
11755.000190734863
 10
8800.000196033048
 20
11755.000190734863
 10
8800.000196033048
 20
11845.000190734863
 10
6999.999994701815
 20
11845.000190734863
  0
LWPOLYLINE
  5
5E
330
17
100
AcDbEntity
  8
IMPL_GUARD
100
AcDbPolyline
 90
4
 70
1
 10
19999.999997249128
 20
6955.0
 10
21299.99923981142
 20
6955.0
 10
21299.99923981142
 20
7045.0
 10
19999.999997249128
 20
7045.0
  0
LWPOLYLINE
  5
5F
330
17
100
AcDbEntity
  8
IMPL_GUARD
100
AcDbPolyline
 90
4
 70
1
 10
21299.999212449624
 20
16754.999237060547
 10
27500.000024610923
 20
16754.999237060547
 10
27500.000024610923
 20
16844.999237060547
 10
21299.999212449624
 20
16844.999237060547
  0
LWPOLYLINE
  5
60
330
17
100
AcDbEntity
  8
IMPL_COLLIDER
100
AcDbPolyline
 90
4
 70
1
 10
1299.9999999999998
 20
5600.0
 10
6600.0
 20
5600.0
 10
6600.0
 20
6500.0
 10
1299.9999999999998
 20
6500.0
  0
LWPOLYLINE
  5
61
330
17
100
AcDbEntity
  8
IMPL_COLLIDER
100
AcDbPolyline
 90
4
 70
1
 10
1299.9999999999998
 20
6499.999999999999
 10
2200.0
 20
6499.999999999999
 10
2200.0
 20
13899.999999999998
 10
1299.9999999999998
 20
13899.999999999998
  0
LWPOLYLINE
  5
62
330
17
100
AcDbEntity
  8
IMPL_COLLIDER
100
AcDbPolyline
 90
4
 70
1
 10
20000.0
 20
1100.0
 10
20100.0
 20
1100.0
 10
20100.0
 20
3900.0
 10
20000.0
 20
3900.0
  0
LWPOLYLINE
  5
63
330
17
100
AcDbEntity
  8
IMPL_COLLIDER
100
AcDbPolyline
 90
4
 70
1
 10
20000.0
 20
5400.0
 10
20100.0
 20
5400.0
 10
20100.0
 20
7000.0
 10
20000.0
 20
7000.0
  0
LWPOLYLINE
  5
64
330
17
100
AcDbEntity
  8
IMPL_COLLIDER
100
AcDbPolyline
 90
4
 70
1
 10
20000.0
 20
1000.0
 10
27500.0
 20
1000.0
 10
27500.0
 20
1100.0
 10
20000.0
 20
1100.0
  0
LWPOLYLINE
  5
65
330
17
100
AcDbEntity
  8
IMPL_COLLIDER
100
AcDbPolyline
 90
4
 70
1
 10
21299.999999999996
 20
7700.0
 10
27500.0
 20
7700.0
 10
27500.0
 20
7800.0
 10
21299.999999999996
 20
7800.0
  0
LWPOLYLINE
  5
66
330
17
100
AcDbEntity
  8
IMPL_COLLIDER
100
AcDbPolyline
 90
4
 70
1
 10
19349.999999999996
 20
15580.0
 10
27050.0
 20
15580.0
 10
27050.0
 20
15720.0
 10
19349.999999999996
 20
15720.0
  0
LWPOLYLINE
  5
67
330
17
100
AcDbEntity
  8
IMPL_COLLIDER
100
AcDbPolyline
 90
4
 70
1
 10
-64000.0
 20
0.0
 10
-28000.0
 20
0.0
 10
-28000.0
 20
26000.0
 10
-64000.0
 20
26000.0
  0
LWPOLYLINE
  5
68
330
17
100
AcDbEntity
  8
IMPL_COLLIDER
100
AcDbPolyline
 90
4
 70
1
 10
-64000.0
 20
0.0
 10
-63800.0
 20
0.0
 10
-63800.0
 20
26000.0
 10
-64000.0
 20
26000.0
  0
LWPOLYLINE
  5
69
330
17
100
AcDbEntity
  8
IMPL_COLLIDER
100
AcDbPolyline
 90
4
 70
1
 10
-28200.000000000004
 20
0.0
 10
-28000.0
 20
0.0
 10
-28000.0
 20
26000.0
 10
-28200.000000000004
 20
26000.0
  0
LWPOLYLINE
  5
6A
330
17
100
AcDbEntity
  8
IMPL_COLLIDER
100
AcDbPolyline
 90
4
 70
1
 10
-63800.0
 20
0.0
 10
-28200.0
 20
0.0
 10
-28200.0
 20
200.0
 10
-63800.0
 20
200.0
  0
LWPOLYLINE
  5
6B
330
17
100
AcDbEntity
  8
IMPL_COLLIDER
100
AcDbPolyline
 90
4
 70
1
 10
-63800.0
 20
25799.999999999996
 10
-28200.0
 20
25799.999999999996
 10
-28200.0
 20
26000.0
 10
-63800.0
 20
26000.0
  0
LWPOLYLINE
  5
6C
330
17
100
AcDbEntity
  8
IMPL_COLLIDER
100
AcDbPolyline
 90
4
 70
1
 10
-64000.0
 20
0.0
 10
-28000.0
 20
0.0
 10
-28000.0
 20
6000.0
 10
-64000.0
 20
6000.0
  0
LWPOLYLINE
  5
6D
330
17
100
AcDbEntity
  8
IMPL_COLLIDER
100
AcDbPolyline
 90
4
 70
1
 10
-64000.0
 20
8000.0
 10
-28000.0
 20
8000.0
 10
-28000.0
 20
17000.0
 10
-64000.0
 20
17000.0
  0
LWPOLYLINE
  5
6E
330
17
100
AcDbEntity
  8
IMPL_COLLIDER
100
AcDbPolyline
 90
4
 70
1
 10
-64000.0
 20
19000.0
 10
-28000.0
 20
19000.0
 10
-28000.0
 20
26000.0
 10
-64000.0
 20
26000.0
  0
LWPOLYLINE
  5
6F
330
17
100
AcDbEntity
  8
IMPL_COLLIDER
100
AcDbPolyline
 90
4
 70
1
 10
-63800.0
 20
6000.0
 10
-28200.0
 20
6000.0
 10
-28200.0
 20
8000.0
 10
-63800.0
 20
8000.0
  0
LWPOLYLINE
  5
70
330
17
100
AcDbEntity
  8
IMPL_COLLIDER
100
AcDbPolyline
 90
4
 70
1
 10
-63800.0
 20
17000.0
 10
-28200.0
 20
17000.0
 10
-28200.0
 20
19000.0
 10
-63800.0
 20
19000.0
  0
LWPOLYLINE
  5
71
330
17
100
AcDbEntity
  8
IMPL_COLLIDER
100
AcDbPolyline
 90
4
 70
1
 10
-63120.0
 20
880.0
 10
-62880.0
 20
880.0
 10
-62880.0
 20
1120.0
 10
-63120.0
 20
1120.0
  0
LWPOLYLINE
  5
72
330
17
100
AcDbEntity
  8
IMPL_COLLIDER
100
AcDbPolyline
 90
4
 70
1
 10
-63170.0
 20
830.0
 10
-62830.0
 20
830.0
 10
-62830.0
 20
1170.0
 10
-63170.0
 20
1170.0
  0
LWPOLYLINE
  5
73
330
17
100
AcDbEntity
  8
IMPL_COLLIDER
100
AcDbPolyline
 90
4
 70
1
 10
-63120.0
 20
8880.0
 10
-62880.0
 20
8880.0
 10
-62880.0
 20
9120.0
 10
-63120.0
 20
9120.0
  0
LWPOLYLINE
  5
74
330
17
100
AcDbEntity
  8
IMPL_COLLIDER
100
AcDbPolyline
 90
4
 70
1
 10
-63170.0
 20
8830.0
 10
-62830.0
 20
8830.0
 10
-62830.0
 20
9170.0
 10
-63170.0
 20
9170.0
  0
LWPOLYLINE
  5
75
330
17
100
AcDbEntity
  8
IMPL_COLLIDER
100
AcDbPolyline
 90
4
 70
1
 10
-63120.0
 20
16880.0
 10
-62880.0
 20
16880.0
 10
-62880.0
 20
17120.0
 10
-63120.0
 20
17120.0
  0
LWPOLYLINE
  5
76
330
17
100
AcDbEntity
  8
IMPL_COLLIDER
100
AcDbPolyline
 90
4
 70
1
 10
-63170.0
 20
16830.0
 10
-62830.0
 20
16830.0
 10
-62830.0
 20
17170.0
 10
-63170.0
 20
17170.0
  0
LWPOLYLINE
  5
77
330
17
100
AcDbEntity
  8
IMPL_COLLIDER
100
AcDbPolyline
 90
4
 70
1
 10
-63120.0
 20
24880.0
 10
-62880.0
 20
24880.0
 10
-62880.0
 20
25120.0
 10
-63120.0
 20
25120.0
  0
LWPOLYLINE
  5
78
330
17
100
AcDbEntity
  8
IMPL_COLLIDER
100
AcDbPolyline
 90
4
 70
1
 10
-63170.0
 20
24830.0
 10
-62830.0
 20
24830.0
 10
-62830.0
 20
25170.0
 10
-63170.0
 20
25170.0
  0
LWPOLYLINE
  5
79
330
17
100
AcDbEntity
  8
IMPL_COLLIDER
100
AcDbPolyline
 90
4
 70
1
 10
-29120.0
 20
880.0
 10
-28880.0
 20
880.0
 10
-28880.0
 20
1120.0
 10
-29120.0
 20
1120.0
  0
LWPOLYLINE
  5
7A
330
17
100
AcDbEntity
  8
IMPL_COLLIDER
100
AcDbPolyline
 90
4
 70
1
 10
-29170.0
 20
830.0
 10
-28830.0
 20
830.0
 10
-28830.0
 20
1170.0
 10
-29170.0
 20
1170.0
  0
LWPOLYLINE
  5
7B
330
17
100
AcDbEntity
  8
IMPL_COLLIDER
100
AcDbPolyline
 90
4
 70
1
 10
-29120.0
 20
8880.0
 10
-28880.0
 20
8880.0
 10
-28880.0
 20
9120.0
 10
-29120.0
 20
9120.0
  0
LWPOLYLINE
  5
7C
330
17
100
AcDbEntity
  8
IMPL_COLLIDER
100
AcDbPolyline
 90
4
 70
1
 10
-29170.0
 20
8830.0
 10
-28830.0
 20
8830.0
 10
-28830.0
 20
9170.0
 10
-29170.0
 20
9170.0
  0
LWPOLYLINE
  5
7D
330
17
100
AcDbEntity
  8
IMPL_COLLIDER
100
AcDbPolyline
 90
4
 70
1
 10
-29120.0
 20
16880.0
 10
-28880.0
 20
16880.0
 10
-28880.0
 20
17120.0
 10
-29120.0
 20
17120.0
  0
LWPOLYLINE
  5
7E
330
17
100
AcDbEntity
  8
IMPL_COLLIDER
100
AcDbPolyline
 90
4
 70
1
 10
-29170.0
 20
16830.0
 10
-28830.0
 20
16830.0
 10
-28830.0
 20
17170.0
 10
-29170.0
 20
17170.0
  0
LWPOLYLINE
  5
7F
330
17
100
AcDbEntity
  8
IMPL_COLLIDER
100
AcDbPolyline
 90
4
 70
1
 10
-29120.0
 20
24880.0
 10
-28880.0
 20
24880.0
 10
-28880.0
 20
25120.0
 10
-29120.0
 20
25120.0
  0
LWPOLYLINE
  5
80
330
17
100
AcDbEntity
  8
IMPL_COLLIDER
100
AcDbPolyline
 90
4
 70
1
 10
-29170.0
 20
24830.0
 10
-28830.0
 20
24830.0
 10
-28830.0
 20
25170.0
 10
-29170.0
 20
25170.0
  0
LWPOLYLINE
  5
81
330
17
100
AcDbEntity
  8
IMPL_COLLIDER
100
AcDbPolyline
 90
4
 70
1
 10
-54090.0
 20
7220.0
 10
-53910.0
 20
7220.0
 10
-53910.0
 20
7399.999999999999
 10
-54090.0
 20
7399.999999999999
  0
LWPOLYLINE
  5
82
330
17
100
AcDbEntity
  8
IMPL_COLLIDER
100
AcDbPolyline
 90
4
 70
1
 10
-54090.0
 20
7220.0
 10
-53910.0
 20
7220.0
 10
-53910.0
 20
7399.999999999999
 10
-54090.0
 20
7399.999999999999
  0
LWPOLYLINE
  5
83
330
17
100
AcDbEntity
  8
IMPL_COLLIDER
100
AcDbPolyline
 90
4
 70
1
 10
-54350.0
 20
7109.999999999999
 10
-53650.0
 20
7109.999999999999
 10
-53650.0
 20
7510.0
 10
-54350.0
 20
7510.0
  0
LWPOLYLINE
  5
84
330
17
100
AcDbEntity
  8
IMPL_COLLIDER
100
AcDbPolyline
 90
4
 70
1
 10
-54090.0
 20
10600.0
 10
-53910.0
 20
10600.0
 10
-53910.0
 20
10780.0
 10
-54090.0
 20
10780.0
  0
LWPOLYLINE
  5
85
330
17
100
AcDbEntity
  8
IMPL_COLLIDER
100
AcDbPolyline
 90
4
 70
1
 10
-54090.0
 20
10600.0
 10
-53910.0
 20
10600.0
 10
-53910.0
 20
10780.0
 10
-54090.0
 20
10780.0
  0
LWPOLYLINE
  5
86
330
17
100
AcDbEntity
  8
IMPL_COLLIDER
100
AcDbPolyline
 90
4
 70
1
 10
-54350.0
 20
10490.0
 10
-53650.0
 20
10490.0
 10
-53650.0
 20
10889.999999999998
 10
-54350.0
 20
10889.999999999998
  0
LWPOLYLINE
  5
87
330
17
100
AcDbEntity
  8
IMPL_COLLIDER
100
AcDbPolyline
 90
4
 70
1
 10
-54090.0
 20
7400.0
 10
-53910.0
 20
7400.0
 10
-53910.0
 20
10600.0
 10
-54090.0
 20
10600.0
  0
LWPOLYLINE
  5
88
330
17
100
AcDbEntity
  8
IMPL_COLLIDER
100
AcDbPolyline
 90
4
 70
1
 10
-54090.0
 20
7400.0
 10
-53910.0
 20
7400.0
 10
-53910.0
 20
10600.0
 10
-54090.0
 20
10600.0
  0
LWPOLYLINE
  5
89
330
17
100
AcDbEntity
  8
IMPL_COLLIDER
100
AcDbPolyline
 90
4
 70
1
 10
-54060.0
 20
8475.0
 10
-53940.0
 20
8475.0
 10
-53940.0
 20
9525.0
 10
-54060.0
 20
9525.0
  0
LWPOLYLINE
  5
8A
330
17
100
AcDbEntity
  8
IMPL_COLLIDER
100
AcDbPolyline
 90
4
 70
1
 10
-43090.0
 20
7220.0
 10
-42910.0
 20
7220.0
 10
-42910.0
 20
7399.999999999999
 10
-43090.0
 20
7399.999999999999
  0
LWPOLYLINE
  5
8B
330
17
100
AcDbEntity
  8
IMPL_COLLIDER
100
AcDbPolyline
 90
4
 70
1
 10
-43090.0
 20
7220.0
 10
-42910.0
 20
7220.0
 10
-42910.0
 20
7399.999999999999
 10
-43090.0
 20
7399.999999999999
  0
LWPOLYLINE
  5
8C
330
17
100
AcDbEntity
  8
IMPL_COLLIDER
100
AcDbPolyline
 90
4
 70
1
 10
-43350.0
 20
7109.999999999999
 10
-42650.0
 20
7109.999999999999
 10
-42650.0
 20
7510.0
 10
-43350.0
 20
7510.0
  0
LWPOLYLINE
  5
8D
330
17
100
AcDbEntity
  8
IMPL_COLLIDER
100
AcDbPolyline
 90
4
 70
1
 10
-43090.0
 20
10600.0
 10
-42910.0
 20
10600.0
 10
-42910.0
 20
10780.0
 10
-43090.0
 20
10780.0
  0
LWPOLYLINE
  5
8E
330
17
100
AcDbEntity
  8
IMPL_COLLIDER
100
AcDbPolyline
 90
4
 70
1
 10
-43090.0
 20
10600.0
 10
-42910.0
 20
10600.0
 10
-42910.0
 20
10780.0
 10
-43090.0
 20
10780.0
  0
LWPOLYLINE
  5
8F
330
17
100
AcDbEntity
  8
IMPL_COLLIDER
100
AcDbPolyline
 90
4
 70
1
 10
-43350.0
 20
10490.0
 10
-42650.0
 20
10490.0
 10
-42650.0
 20
10889.999999999998
 10
-43350.0
 20
10889.999999999998
  0
LWPOLYLINE
  5
90
330
17
100
AcDbEntity
  8
IMPL_COLLIDER
100
AcDbPolyline
 90
4
 70
1
 10
-43090.0
 20
7400.0
 10
-42910.0
 20
7400.0
 10
-42910.0
 20
10600.0
 10
-43090.0
 20
10600.0
  0
LWPOLYLINE
  5
91
330
17
100
AcDbEntity
  8
IMPL_COLLIDER
100
AcDbPolyline
 90
4
 70
1
 10
-43090.0
 20
7400.0
 10
-42910.0
 20
7400.0
 10
-42910.0
 20
10600.0
 10
-43090.0
 20
10600.0
  0
LWPOLYLINE
  5
92
330
17
100
AcDbEntity
  8
IMPL_COLLIDER
100
AcDbPolyline
 90
4
 70
1
 10
-43060.0
 20
8475.0
 10
-42940.0
 20
8475.0
 10
-42940.0
 20
9525.0
 10
-43060.0
 20
9525.0
  0
LWPOLYLINE
  5
93
330
17
100
AcDbEntity
  8
IMPL_COLLIDER
100
AcDbPolyline
 90
4
 70
1
 10
-32400.000000000007
 20
12910.0
 10
-32220.0
 20
12910.0
 10
-32220.0
 20
13090.0
 10
-32400.000000000007
 20
13090.0
  0
LWPOLYLINE
  5
94
330
17
100
AcDbEntity
  8
IMPL_COLLIDER
100
AcDbPolyline
 90
4
 70
1
 10
-32400.000000000007
 20
12910.0
 10
-32220.0
 20
12910.0
 10
-32220.0
 20
13090.0
 10
-32400.000000000007
 20
13090.0
  0
LWPOLYLINE
  5
95
330
17
100
AcDbEntity
  8
IMPL_COLLIDER
100
AcDbPolyline
 90
4
 70
1
 10
-32510.000000000004
 20
12650.0
 10
-32110.0
 20
12650.0
 10
-32110.0
 20
13350.0
 10
-32510.000000000004
 20
13350.0
  0
LWPOLYLINE
  5
96
330
17
100
AcDbEntity
  8
IMPL_COLLIDER
100
AcDbPolyline
 90
4
 70
1
 10
-35780.0
 20
12910.0
 10
-35599.99999999999
 20
12910.0
 10
-35599.99999999999
 20
13090.0
 10
-35780.0
 20
13090.0
  0
LWPOLYLINE
  5
97
330
17
100
AcDbEntity
  8
IMPL_COLLIDER
100
AcDbPolyline
 90
4
 70
1
 10
-35780.0
 20
12910.0
 10
-35599.99999999999
 20
12910.0
 10
-35599.99999999999
 20
13090.0
 10
-35780.0
 20
13090.0
  0
LWPOLYLINE
  5
98
330
17
100
AcDbEntity
  8
IMPL_COLLIDER
100
AcDbPolyline
 90
4
 70
1
 10
-35890.0
 20
12650.0
 10
-35489.99999999999
 20
12650.0
 10
-35489.99999999999
 20
13350.0
 10
-35890.0
 20
13350.0
  0
LWPOLYLINE
  5
99
330
17
100
AcDbEntity
  8
IMPL_COLLIDER
100
AcDbPolyline
 90
4
 70
1
 10
-35600.0
 20
12910.0
 10
-32400.0
 20
12910.0
 10
-32400.0
 20
13090.0
 10
-35600.0
 20
13090.0
  0
LWPOLYLINE
  5
9A
330
17
100
AcDbEntity
  8
IMPL_COLLIDER
100
AcDbPolyline
 90
4
 70
1
 10
-35600.0
 20
12910.0
 10
-32400.0
 20
12910.0
 10
-32400.0
 20
13090.0
 10
-35600.0
 20
13090.0
  0
LWPOLYLINE
  5
9B
330
17
100
AcDbEntity
  8
IMPL_COLLIDER
100
AcDbPolyline
 90
4
 70
1
 10
-34525.0
 20
12940.0
 10
-33475.0
 20
12940.0
 10
-33475.0
 20
13060.0
 10
-34525.0
 20
13060.0
  0
LWPOLYLINE
  5
9C
330
17
100
AcDbEntity
  8
IMPL_COLLIDER
100
AcDbPolyline
 90
4
 70
1
 10
-37090.0
 20
22600.0
 10
-36910.0
 20
22600.0
 10
-36910.0
 20
22780.0
 10
-37090.0
 20
22780.0
  0
LWPOLYLINE
  5
9D
330
17
100
AcDbEntity
  8
IMPL_COLLIDER
100
AcDbPolyline
 90
4
 70
1
 10
-37090.0
 20
22600.0
 10
-36910.0
 20
22600.0
 10
-36910.0
 20
22780.0
 10
-37090.0
 20
22780.0
  0
LWPOLYLINE
  5
9E
330
17
100
AcDbEntity
  8
IMPL_COLLIDER
100
AcDbPolyline
 90
4
 70
1
 10
-37350.0
 20
22490.000000000004
 10
-36650.0
 20
22490.000000000004
 10
-36650.0
 20
22890.0
 10
-37350.0
 20
22890.0
  0
LWPOLYLINE
  5
9F
330
17
100
AcDbEntity
  8
IMPL_COLLIDER
100
AcDbPolyline
 90
4
 70
1
 10
-37090.0
 20
19220.0
 10
-36910.0
 20
19220.0
 10
-36910.0
 20
19400.0
 10
-37090.0
 20
19400.0
  0
LWPOLYLINE
  5
A0
330
17
100
AcDbEntity
  8
IMPL_COLLIDER
100
AcDbPolyline
 90
4
 70
1
 10
-37090.0
 20
19220.0
 10
-36910.0
 20
19220.0
 10
-36910.0
 20
19400.0
 10
-37090.0
 20
19400.0
  0
LWPOLYLINE
  5
A1
330
17
100
AcDbEntity
  8
IMPL_COLLIDER
100
AcDbPolyline
 90
4
 70
1
 10
-37350.0
 20
19110.0
 10
-36650.0
 20
19110.0
 10
-36650.0
 20
19509.999999999996
 10
-37350.0
 20
19509.999999999996
  0
LWPOLYLINE
  5
A2
330
17
100
AcDbEntity
  8
IMPL_COLLIDER
100
AcDbPolyline
 90
4
 70
1
 10
-37090.0
 20
19400.0
 10
-36910.0
 20
19400.0
 10
-36910.0
 20
22600.0
 10
-37090.0
 20
22600.0
  0
LWPOLYLINE
  5
A3
330
17
100
AcDbEntity
  8
IMPL_COLLIDER
100
AcDbPolyline
 90
4
 70
1
 10
-37090.0
 20
19400.0
 10
-36910.0
 20
19400.0
 10
-36910.0
 20
22600.0
 10
-37090.0
 20
22600.0
  0
LWPOLYLINE
  5
A4
330
17
100
AcDbEntity
  8
IMPL_COLLIDER
100
AcDbPolyline
 90
4
 70
1
 10
-37060.0
 20
20475.0
 10
-36940.0
 20
20475.0
 10
-36940.0
 20
21525.0
 10
-37060.0
 20
21525.0
  0
LWPOLYLINE
  5
A5
330
17
100
AcDbEntity
  8
IMPL_COLLIDER
100
AcDbPolyline
 90
4
 70
1
 10
-44090.0
 20
23600.0
 10
-43910.0
 20
23600.0
 10
-43910.0
 20
23780.0
 10
-44090.0
 20
23780.0
  0
LWPOLYLINE
  5
A6
330
17
100
AcDbEntity
  8
IMPL_COLLIDER
100
AcDbPolyline
 90
4
 70
1
 10
-44090.0
 20
23600.0
 10
-43910.0
 20
23600.0
 10
-43910.0
 20
23780.0
 10
-44090.0
 20
23780.0
  0
LWPOLYLINE
  5
A7
330
17
100
AcDbEntity
  8
IMPL_COLLIDER
100
AcDbPolyline
 90
4
 70
1
 10
-44350.0
 20
23490.000000000004
 10
-43650.0
 20
23490.000000000004
 10
-43650.0
 20
23890.0
 10
-44350.0
 20
23890.0
  0
LWPOLYLINE
  5
A8
330
17
100
AcDbEntity
  8
IMPL_COLLIDER
100
AcDbPolyline
 90
4
 70
1
 10
-44090.0
 20
20220.0
 10
-43910.0
 20
20220.0
 10
-43910.0
 20
20400.0
 10
-44090.0
 20
20400.0
  0
LWPOLYLINE
  5
A9
330
17
100
AcDbEntity
  8
IMPL_COLLIDER
100
AcDbPolyline
 90
4
 70
1
 10
-44090.0
 20
20220.0
 10
-43910.0
 20
20220.0
 10
-43910.0
 20
20400.0
 10
-44090.0
 20
20400.0
  0
LWPOLYLINE
  5
AA
330
17
100
AcDbEntity
  8
IMPL_COLLIDER
100
AcDbPolyline
 90
4
 70
1
 10
-44350.0
 20
20110.0
 10
-43650.0
 20
20110.0
 10
-43650.0
 20
20509.999999999996
 10
-44350.0
 20
20509.999999999996
  0
LWPOLYLINE
  5
AB
330
17
100
AcDbEntity
  8
IMPL_COLLIDER
100
AcDbPolyline
 90
4
 70
1
 10
-44090.0
 20
20400.0
 10
-43910.0
 20
20400.0
 10
-43910.0
 20
23600.0
 10
-44090.0
 20
23600.0
  0
LWPOLYLINE
  5
AC
330
17
100
AcDbEntity
  8
IMPL_COLLIDER
100
AcDbPolyline
 90
4
 70
1
 10
-44090.0
 20
20400.0
 10
-43910.0
 20
20400.0
 10
-43910.0
 20
23600.0
 10
-44090.0
 20
23600.0
  0
LWPOLYLINE
  5
AD
330
17
100
AcDbEntity
  8
IMPL_COLLIDER
100
AcDbPolyline
 90
4
 70
1
 10
-44060.0
 20
21475.0
 10
-43940.0
 20
21475.0
 10
-43940.0
 20
22525.0
 10
-44060.0
 20
22525.0
  0
LWPOLYLINE
  5
AE
330
17
100
AcDbEntity
  8
IMPL_COLLIDER
100
AcDbPolyline
 90
4
 70
1
 10
-53090.0
 20
22600.0
 10
-52910.0
 20
22600.0
 10
-52910.0
 20
22780.0
 10
-53090.0
 20
22780.0
  0
LWPOLYLINE
  5
AF
330
17
100
AcDbEntity
  8
IMPL_COLLIDER
100
AcDbPolyline
 90
4
 70
1
 10
-53090.0
 20
22600.0
 10
-52910.0
 20
22600.0
 10
-52910.0
 20
22780.0
 10
-53090.0
 20
22780.0
  0
LWPOLYLINE
  5
B0
330
17
100
AcDbEntity
  8
IMPL_COLLIDER
100
AcDbPolyline
 90
4
 70
1
 10
-53350.0
 20
22490.000000000004
 10
-52650.0
 20
22490.000000000004
 10
-52650.0
 20
22890.0
 10
-53350.0
 20
22890.0
  0
LWPOLYLINE
  5
B1
330
17
100
AcDbEntity
  8
IMPL_COLLIDER
100
AcDbPolyline
 90
4
 70
1
 10
-53090.0
 20
19220.0
 10
-52910.0
 20
19220.0
 10
-52910.0
 20
19400.0
 10
-53090.0
 20
19400.0
  0
LWPOLYLINE
  5
B2
330
17
100
AcDbEntity
  8
IMPL_COLLIDER
100
AcDbPolyline
 90
4
 70
1
 10
-53090.0
 20
19220.0
 10
-52910.0
 20
19220.0
 10
-52910.0
 20
19400.0
 10
-53090.0
 20
19400.0
  0
LWPOLYLINE
  5
B3
330
17
100
AcDbEntity
  8
IMPL_COLLIDER
100
AcDbPolyline
 90
4
 70
1
 10
-53350.0
 20
19110.0
 10
-52650.0
 20
19110.0
 10
-52650.0
 20
19509.999999999996
 10
-53350.0
 20
19509.999999999996
  0
LWPOLYLINE
  5
B4
330
17
100
AcDbEntity
  8
IMPL_COLLIDER
100
AcDbPolyline
 90
4
 70
1
 10
-53090.0
 20
19400.0
 10
-52910.0
 20
19400.0
 10
-52910.0
 20
22600.0
 10
-53090.0
 20
22600.0
  0
LWPOLYLINE
  5
B5
330
17
100
AcDbEntity
  8
IMPL_COLLIDER
100
AcDbPolyline
 90
4
 70
1
 10
-53090.0
 20
19400.0
 10
-52910.0
 20
19400.0
 10
-52910.0
 20
22600.0
 10
-53090.0
 20
22600.0
  0
LWPOLYLINE
  5
B6
330
17
100
AcDbEntity
  8
IMPL_COLLIDER
100
AcDbPolyline
 90
4
 70
1
 10
-53060.0
 20
20475.0
 10
-52940.0
 20
20475.0
 10
-52940.0
 20
21525.0
 10
-53060.0
 20
21525.0
  0
LWPOLYLINE
  5
B7
330
17
100
AcDbEntity
  8
IMPL_COLLIDER
100
AcDbPolyline
 90
4
 70
1
 10
-59780.0
 20
17910.0
 10
-59599.99999999999
 20
17910.0
 10
-59599.99999999999
 20
18090.0
 10
-59780.0
 20
18090.0
  0
LWPOLYLINE
  5
B8
330
17
100
AcDbEntity
  8
IMPL_COLLIDER
100
AcDbPolyline
 90
4
 70
1
 10
-59780.0
 20
17910.0
 10
-59599.99999999999
 20
17910.0
 10
-59599.99999999999
 20
18090.0
 10
-59780.0
 20
18090.0
  0
LWPOLYLINE
  5
B9
330
17
100
AcDbEntity
  8
IMPL_COLLIDER
100
AcDbPolyline
 90
4
 70
1
 10
-59890.0
 20
17650.0
 10
-59489.99999999999
 20
17650.0
 10
-59489.99999999999
 20
18350.0
 10
-59890.0
 20
18350.0
  0
LWPOLYLINE
  5
BA
330
17
100
AcDbEntity
  8
IMPL_COLLIDER
100
AcDbPolyline
 90
4
 70
1
 10
-56400.00000000001
 20
17910.0
 10
-56220.0
 20
17910.0
 10
-56220.0
 20
18090.0
 10
-56400.00000000001
 20
18090.0
  0
LWPOLYLINE
  5
BB
330
17
100
AcDbEntity
  8
IMPL_COLLIDER
100
AcDbPolyline
 90
4
 70
1
 10
-56400.00000000001
 20
17910.0
 10
-56220.0
 20
17910.0
 10
-56220.0
 20
18090.0
 10
-56400.00000000001
 20
18090.0
  0
LWPOLYLINE
  5
BC
330
17
100
AcDbEntity
  8
IMPL_COLLIDER
100
AcDbPolyline
 90
4
 70
1
 10
-56510.00000000001
 20
17650.0
 10
-56110.0
 20
17650.0
 10
-56110.0
 20
18350.0
 10
-56510.00000000001
 20
18350.0
  0
LWPOLYLINE
  5
BD
330
17
100
AcDbEntity
  8
IMPL_COLLIDER
100
AcDbPolyline
 90
4
 70
1
 10
-59600.0
 20
17910.0
 10
-56400.0
 20
17910.0
 10
-56400.0
 20
18090.0
 10
-59600.0
 20
18090.0
  0
LWPOLYLINE
  5
BE
330
17
100
AcDbEntity
  8
IMPL_COLLIDER
100
AcDbPolyline
 90
4
 70
1
 10
-59600.0
 20
17910.0
 10
-56400.0
 20
17910.0
 10
-56400.0
 20
18090.0
 10
-59600.0
 20
18090.0
  0
LWPOLYLINE
  5
BF
330
17
100
AcDbEntity
  8
IMPL_COLLIDER
100
AcDbPolyline
 90
4
 70
1
 10
-58525.0
 20
17940.0
 10
-57475.0
 20
17940.0
 10
-57475.0
 20
18060.0
 10
-58525.0
 20
18060.0
  0
LWPOLYLINE
  5
C0
330
17
100
AcDbEntity
  8
IMPL_COLLIDER
100
AcDbPolyline
 90
4
 70
1
 10
-59780.0
 20
11910.0
 10
-59599.99999999999
 20
11910.0
 10
-59599.99999999999
 20
12090.0
 10
-59780.0
 20
12090.0
  0
LWPOLYLINE
  5
C1
330
17
100
AcDbEntity
  8
IMPL_COLLIDER
100
AcDbPolyline
 90
4
 70
1
 10
-59780.0
 20
11910.0
 10
-59599.99999999999
 20
11910.0
 10
-59599.99999999999
 20
12090.0
 10
-59780.0
 20
12090.0
  0
LWPOLYLINE
  5
C2
330
17
100
AcDbEntity
  8
IMPL_COLLIDER
100
AcDbPolyline
 90
4
 70
1
 10
-59890.0
 20
11650.0
 10
-59489.99999999999
 20
11650.0
 10
-59489.99999999999
 20
12350.0
 10
-59890.0
 20
12350.0
  0
LWPOLYLINE
  5
C3
330
17
100
AcDbEntity
  8
IMPL_COLLIDER
100
AcDbPolyline
 90
4
 70
1
 10
-56400.00000000001
 20
11910.0
 10
-56220.0
 20
11910.0
 10
-56220.0
 20
12090.0
 10
-56400.00000000001
 20
12090.0
  0
LWPOLYLINE
  5
C4
330
17
100
AcDbEntity
  8
IMPL_COLLIDER
100
AcDbPolyline
 90
4
 70
1
 10
-56400.00000000001
 20
11910.0
 10
-56220.0
 20
11910.0
 10
-56220.0
 20
12090.0
 10
-56400.00000000001
 20
12090.0
  0
LWPOLYLINE
  5
C5
330
17
100
AcDbEntity
  8
IMPL_COLLIDER
100
AcDbPolyline
 90
4
 70
1
 10
-56510.00000000001
 20
11650.0
 10
-56110.0
 20
11650.0
 10
-56110.0
 20
12350.0
 10
-56510.00000000001
 20
12350.0
  0
LWPOLYLINE
  5
C6
330
17
100
AcDbEntity
  8
IMPL_COLLIDER
100
AcDbPolyline
 90
4
 70
1
 10
-59600.0
 20
11910.0
 10
-56400.0
 20
11910.0
 10
-56400.0
 20
12090.0
 10
-59600.0
 20
12090.0
  0
LWPOLYLINE
  5
C7
330
17
100
AcDbEntity
  8
IMPL_COLLIDER
100
AcDbPolyline
 90
4
 70
1
 10
-59600.0
 20
11910.0
 10
-56400.0
 20
11910.0
 10
-56400.0
 20
12090.0
 10
-59600.0
 20
12090.0
  0
LWPOLYLINE
  5
C8
330
17
100
AcDbEntity
  8
IMPL_COLLIDER
100
AcDbPolyline
 90
4
 70
1
 10
-58525.0
 20
11940.0
 10
-57475.0
 20
11940.0
 10
-57475.0
 20
12060.0
 10
-58525.0
 20
12060.0
  0
LWPOLYLINE
  5
C9
330
17
100
AcDbEntity
  8
IMPL_COLLIDER
100
AcDbPolyline
 90
4
 70
1
 10
-63000.0
 20
5580.0
 10
-43500.0
 20
5580.0
 10
-43500.0
 20
5720.000000000001
 10
-63000.0
 20
5720.000000000001
  0
LWPOLYLINE
  5
CA
330
17
100
AcDbEntity
  8
IMPL_COLLIDER
100
AcDbPolyline
 90
4
 70
1
 10
-63000.0
 20
5610.0
 10
-43500.0
 20
5610.0
 10
-43500.0
 20
5690.0
 10
-63000.0
 20
5690.0
  0
LWPOLYLINE
  5
CB
330
17
100
AcDbEntity
  8
IMPL_COLLIDER
100
AcDbPolyline
 90
4
 70
1
 10
-41500.0
 20
5580.0
 10
-29000.0
 20
5580.0
 10
-29000.0
 20
5720.000000000001
 10
-41500.0
 20
5720.000000000001
  0
LWPOLYLINE
  5
CC
330
17
100
AcDbEntity
  8
IMPL_COLLIDER
100
AcDbPolyline
 90
4
 70
1
 10
-41500.0
 20
5610.0
 10
-29000.0
 20
5610.0
 10
-29000.0
 20
5690.0
 10
-41500.0
 20
5690.0
  0
LWPOLYLINE
  5
CD
330
17
100
AcDbEntity
  8
IMPL_COLLIDER
100
AcDbPolyline
 90
4
 70
1
 10
-61250.0
 20
3724.9999999999995
 10
-58750.0
 20
3724.9999999999995
 10
-58750.0
 20
4375.0
 10
-61250.0
 20
4375.0
  0
LWPOLYLINE
  5
CE
330
17
100
AcDbEntity
  8
IMPL_COLLIDER
100
AcDbPolyline
 90
4
 70
1
 10
-61035.0
 20
3809.9999999999995
 10
-60965.0
 20
3809.9999999999995
 10
-60965.0
 20
4290.0
 10
-61035.0
 20
4290.0
  0
LWPOLYLINE
  5
CF
330
17
100
AcDbEntity
  8
IMPL_COLLIDER
100
AcDbPolyline
 90
4
 70
1
 10
-59035.0
 20
3809.9999999999995
 10
-58965.0
 20
3809.9999999999995
 10
-58965.0
 20
4290.0
 10
-59035.0
 20
4290.0
  0
LWPOLYLINE
  5
D0
330
17
100
AcDbEntity
  8
IMPL_COLLIDER
100
AcDbPolyline
 90
4
 70
1
 10
-57250.0
 20
3724.9999999999995
 10
-54750.0
 20
3724.9999999999995
 10
-54750.0
 20
4375.0
 10
-57250.0
 20
4375.0
  0
LWPOLYLINE
  5
D1
330
17
100
AcDbEntity
  8
IMPL_COLLIDER
100
AcDbPolyline
 90
4
 70
1
 10
-57035.0
 20
3809.9999999999995
 10
-56965.0
 20
3809.9999999999995
 10
-56965.0
 20
4290.0
 10
-57035.0
 20
4290.0
  0
LWPOLYLINE
  5
D2
330
17
100
AcDbEntity
  8
IMPL_COLLIDER
100
AcDbPolyline
 90
4
 70
1
 10
-55035.0
 20
3809.9999999999995
 10
-54965.0
 20
3809.9999999999995
 10
-54965.0
 20
4290.0
 10
-55035.0
 20
4290.0
  0
LWPOLYLINE
  5
D3
330
17
100
AcDbEntity
  8
IMPL_COLLIDER
100
AcDbPolyline
 90
4
 70
1
 10
-53250.0
 20
3724.9999999999995
 10
-50750.0
 20
3724.9999999999995
 10
-50750.0
 20
4375.0
 10
-53250.0
 20
4375.0
  0
LWPOLYLINE
  5
D4
330
17
100
AcDbEntity
  8
IMPL_COLLIDER
100
AcDbPolyline
 90
4
 70
1
 10
-53035.0
 20
3809.9999999999995
 10
-52965.0
 20
3809.9999999999995
 10
-52965.0
 20
4290.0
 10
-53035.0
 20
4290.0
  0
LWPOLYLINE
  5
D5
330
17
100
AcDbEntity
  8
IMPL_COLLIDER
100
AcDbPolyline
 90
4
 70
1
 10
-51035.0
 20
3809.9999999999995
 10
-50965.0
 20
3809.9999999999995
 10
-50965.0
 20
4290.0
 10
-51035.0
 20
4290.0
  0
LWPOLYLINE
  5
D6
330
17
100
AcDbEntity
  8
IMPL_COLLIDER
100
AcDbPolyline
 90
4
 70
1
 10
-49250.0
 20
3724.9999999999995
 10
-46750.0
 20
3724.9999999999995
 10
-46750.0
 20
4375.0
 10
-49250.0
 20
4375.0
  0
LWPOLYLINE
  5
D7
330
17
100
AcDbEntity
  8
IMPL_COLLIDER
100
AcDbPolyline
 90
4
 70
1
 10
-49035.0
 20
3809.9999999999995
 10
-48965.0
 20
3809.9999999999995
 10
-48965.0
 20
4290.0
 10
-49035.0
 20
4290.0
  0
LWPOLYLINE
  5
D8
330
17
100
AcDbEntity
  8
IMPL_COLLIDER
100
AcDbPolyline
 90
4
 70
1
 10
-47035.0
 20
3809.9999999999995
 10
-46965.0
 20
3809.9999999999995
 10
-46965.0
 20
4290.0
 10
-47035.0
 20
4290.0
  0
LWPOLYLINE
  5
D9
330
17
100
AcDbEntity
  8
IMPL_COLLIDER
100
AcDbPolyline
 90
4
 70
1
 10
180000.0
 20
0.0
 10
328000.0
 20
0.0
 10
328000.0
 20
160000.0
 10
180000.0
 20
160000.0
  0
LWPOLYLINE
  5
DA
330
17
100
AcDbEntity
  8
IMPL_COLLIDER
100
AcDbPolyline
 90
4
 70
1
 10
179725.0
 20
0.0
 10
180275.0
 20
0.0
 10
180275.0
 20
160000.0
 10
179725.0
 20
160000.0
  0
LWPOLYLINE
  5
DB
330
17
100
AcDbEntity
  8
IMPL_COLLIDER
100
AcDbPolyline
 90
4
 70
1
 10
327725.0
 20
0.0
 10
328275.0
 20
0.0
 10
328275.0
 20
160000.0
 10
327725.0
 20
160000.0
  0
LWPOLYLINE
  5
DC
330
17
100
AcDbEntity
  8
IMPL_COLLIDER
100
AcDbPolyline
 90
4
 70
1
 10
180000.0
 20
-275.0
 10
328000.0
 20
-275.0
 10
328000.0
 20
275.0
 10
180000.0
 20
275.0
  0
LWPOLYLINE
  5
DD
330
17
100
AcDbEntity
  8
IMPL_COLLIDER
100
AcDbPolyline
 90
4
 70
1
 10
180000.0
 20
159725.0
 10
328000.0
 20
159725.0
 10
328000.0
 20
160275.0
 10
180000.0
 20
160275.0
  0
LWPOLYLINE
  5
DE
330
17
100
AcDbEntity
  8
IMPL_COLLIDER
100
AcDbPolyline
 90
4
 70
1
 10
179500.0
 20
-500.0
 10
328500.0
 20
-500.0
 10
328500.0
 20
160500.0
 10
179500.0
 20
160500.0
  0
LWPOLYLINE
  5
DF
330
17
100
AcDbEntity
  8
IMPL_COLLIDER
100
AcDbPolyline
 90
4
 70
1
 10
299304.85157172085
 20
132304.65765213215
 10
299724.8515717208
 20
132304.65765213215
 10
299724.8515717208
 20
132724.65765213218
 10
299304.85157172085
 20
132724.65765213218
  0
LWPOLYLINE
  5
E0
330
17
100
AcDbEntity
  8
IMPL_COLLIDER
100
AcDbPolyline
 90
4
 70
1
 10
302806.65885958204
 20
127139.87830363317
 10
303226.65885958204
 20
127139.87830363317
 10
303226.65885958204
 20
127559.87830363316
 10
302806.65885958204
 20
127559.87830363316
  0
LWPOLYLINE
  5
E1
330
17
100
AcDbEntity
  8
IMPL_COLLIDER
100
AcDbPolyline
 90
4
 70
1
 10
292692.174782571
 20
120608.58029781151
 10
293112.1747825709
 20
120608.58029781151
 10
293112.1747825709
 20
121028.5802978115
 10
292692.174782571
 20
121028.5802978115
  0
LWPOLYLINE
  5
E2
330
17
100
AcDbEntity
  8
IMPL_COLLIDER
100
AcDbPolyline
 90
4
 70
1
 10
298923.02328500204
 20
120270.75350823854
 10
299343.023285002
 20
120270.75350823854
 10
299343.023285002
 20
120690.75350823853
 10
298923.02328500204
 20
120690.75350823853
  0
LWPOLYLINE
  5
E3
330
17
100
AcDbEntity
  8
IMPL_COLLIDER
100
AcDbPolyline
 90
4
 70
1
 10
298001.51937409886
 20
108266.10972647011
 10
298421.5193740988
 20
108266.10972647011
 10
298421.5193740988
 20
108686.1097264701
 10
298001.51937409886
 20
108686.1097264701
  0
LWPOLYLINE
  5
E4
330
17
100
AcDbEntity
  8
IMPL_COLLIDER
100
AcDbPolyline
 90
4
 70
1
 10
302041.2097911374
 20
113022.00095046662
 10
302461.2097911373
 20
113022.00095046662
 10
302461.2097911373
 20
113442.00095046661
 10
302041.2097911374
 20
113442.00095046661
  0
LWPOLYLINE
  5
E5
330
17
100
AcDbEntity
  8
IMPL_COLLIDER
100
AcDbPolyline
 90
4
 70
1
 10
311040.35305599077
 20
105023.4971976635
 10
311460.3530559907
 20
105023.4971976635
 10
311460.3530559907
 20
105443.49719766348
 10
311040.35305599077
 20
105443.49719766348
  0
LWPOLYLINE
  5
E6
330
17
100
AcDbEntity
  8
IMPL_COLLIDER
100
AcDbPolyline
 90
4
 70
1
 10
309698.9375090739
 20
111117.60946529442
 10
310118.9375090738
 20
111117.60946529442
 10
310118.9375090738
 20
111537.60946529442
 10
309698.9375090739
 20
111537.60946529442
  0
LWPOLYLINE
  5
E7
330
17
100
AcDbEntity
  8
IMPL_COLLIDER
100
AcDbPolyline
 90
4
 70
1
 10
322910.0
 20
136613.5294117647
 10
323330.0
 20
136613.5294117647
 10
323330.0
 20
137033.5294117647
 10
322910.0
 20
137033.5294117647
  0
LWPOLYLINE
  5
E8
330
17
100
AcDbEntity
  8
IMPL_COLLIDER
100
AcDbPolyline
 90
4
 70
1
 10
316670.0
 20
136613.5294117647
 10
317090.0
 20
136613.5294117647
 10
317090.0
 20
137033.5294117647
 10
316670.0
 20
137033.5294117647
  0
LWPOLYLINE
  5
E9
330
17
100
AcDbEntity
  8
IMPL_COLLIDER
100
AcDbPolyline
 90
4
 70
1
 10
319653.0274067945
 20
149653.0274067943
 10
320073.0274067944
 20
149653.0274067943
 10
320073.0274067944
 20
150073.0274067943
 10
319653.0274067945
 20
150073.0274067943
  0
LWPOLYLINE
  5
EA
330
17
100
AcDbEntity
  8
IMPL_COLLIDER
100
AcDbPolyline
 90
4
 70
1
 10
315240.6810921903
 20
145240.6810921904
 10
315660.68109219027
 20
145240.6810921904
 10
315660.68109219027
 20
145660.68109219044
 10
315240.6810921903
 20
145660.68109219044
  0
LWPOLYLINE
  5
EB
330
17
100
AcDbEntity
  8
IMPL_COLLIDER
100
AcDbPolyline
 90
4
 70
1
 10
306681.9737146524
 20
152910.0
 10
307101.9737146524
 20
152910.0
 10
307101.9737146524
 20
153330.0
 10
306681.9737146524
 20
153330.0
  0
LWPOLYLINE
  5
EC
330
17
100
AcDbEntity
  8
IMPL_COLLIDER
100
AcDbPolyline
 90
4
 70
1
 10
306681.9737146524
 20
146670.0
 10
307101.9737146524
 20
146670.0
 10
307101.9737146524
 20
147090.0
 10
306681.9737146524
 20
147090.0
  0
LWPOLYLINE
  5
ED
330
17
100
AcDbEntity
  8
IMPL_COLLIDER
100
AcDbPolyline
 90
4
 70
1
 10
295165.5452826131
 20
152909.91247894624
 10
295585.5452826131
 20
152909.91247894624
 10
295585.5452826131
 20
153329.91247894627
 10
295165.5452826131
 20
153329.91247894627
  0
LWPOLYLINE
  5
EE
330
17
100
AcDbEntity
  8
IMPL_COLLIDER
100
AcDbPolyline
 90
4
 70
1
 10
295212.2838626274
 20
146670.08752105373
 10
295632.2838626274
 20
146670.08752105373
 10
295632.2838626274
 20
147090.08752105376
 10
295212.2838626274
 20
147090.08752105376
  0
LWPOLYLINE
  5
EF
330
17
100
AcDbEntity
  8
IMPL_COLLIDER
100
AcDbPolyline
 90
4
 70
1
 10
283417.00905321894
 20
150165.0339042917
 10
283837.0090532189
 20
150165.0339042917
 10
283837.0090532189
 20
150585.0339042917
 10
283417.00905321894
 20
150585.0339042917
  0
LWPOLYLINE
  5
F0
330
17
100
AcDbEntity
  8
IMPL_COLLIDER
100
AcDbPolyline
 90
4
 70
1
 10
285478.39570352226
 20
144275.35776056768
 10
285898.3957035222
 20
144275.35776056768
 10
285898.3957035222
 20
144695.3577605677
 10
285478.39570352226
 20
144695.3577605677
  0
LWPOLYLINE
  5
F1
330
17
100
AcDbEntity
  8
IMPL_COLLIDER
100
AcDbPolyline
 90
4
 70
1
 10
272982.2900271566
 20
146546.37847267464
 10
273402.29002715653
 20
146546.37847267464
 10
273402.29002715653
 20
146966.37847267464
 10
272982.2900271566
 20
146966.37847267464
  0
LWPOLYLINE
  5
F2
330
17
100
AcDbEntity
  8
IMPL_COLLIDER
100
AcDbPolyline
 90
4
 70
1
 10
274679.5125806287
 20
140541.62738674393
 10
275099.5125806286
 20
140541.62738674393
 10
275099.5125806286
 20
140961.62738674393
 10
274679.5125806287
 20
140961.62738674393
  0
LWPOLYLINE
  5
F3
330
17
100
AcDbEntity
  8
IMPL_COLLIDER
100
AcDbPolyline
 90
4
 70
1
 10
262570.62589149695
 20
145910.0
 10
262990.6258914969
 20
145910.0
 10
262990.6258914969
 20
146330.0
 10
262570.62589149695
 20
146330.0
  0
LWPOLYLINE
  5
F4
330
17
100
AcDbEntity
  8
IMPL_COLLIDER
100
AcDbPolyline
 90
4
 70
1
 10
262570.62589149695
 20
139670.0
 10
262990.6258914969
 20
139670.0
 10
262990.6258914969
 20
140090.0
 10
262570.62589149695
 20
140090.0
  0
LWPOLYLINE
  5
F5
330
17
100
AcDbEntity
  8
IMPL_COLLIDER
100
AcDbPolyline
 90
4
 70
1
 10
251449.1257909447
 20
145961.16662728955
 10
251869.1257909447
 20
145961.16662728955
 10
251869.1257909447
 20
146381.16662728955
 10
251449.1257909447
 20
146381.16662728955
  0
LWPOLYLINE
  5
F6
330
17
100
AcDbEntity
  8
IMPL_COLLIDER
100
AcDbPolyline
 90
4
 70
1
 10
250627.72054558402
 20
139775.46590522953
 10
251047.72054558404
 20
139775.46590522953
 10
251047.72054558404
 20
140195.46590522956
 10
250627.72054558402
 20
140195.46590522956
  0
LWPOLYLINE
  5
F7
330
17
100
AcDbEntity
  8
IMPL_COLLIDER
100
AcDbPolyline
 90
4
 70
1
 10
242577.5754264687
 20
150609.28310515019
 10
242997.57542646874
 20
150609.28310515019
 10
242997.57542646874
 20
151029.28310515019
 10
242577.5754264687
 20
151029.28310515019
  0
LWPOLYLINE
  5
F8
330
17
100
AcDbEntity
  8
IMPL_COLLIDER
100
AcDbPolyline
 90
4
 70
1
 10
239433.42022719845
 20
145219.30276354394
 10
239853.42022719848
 20
145219.30276354394
 10
239853.42022719848
 20
145639.30276354396
 10
239433.42022719845
 20
145639.30276354396
  0
LWPOLYLINE
  5
F9
330
17
100
AcDbEntity
  8
IMPL_COLLIDER
100
AcDbPolyline
 90
4
 70
1
 10
230175.22217918123
 20
152910.0
 10
230595.22217918126
 20
152910.0
 10
230595.22217918126
 20
153330.0
 10
230175.22217918123
 20
153330.0
  0
LWPOLYLINE
  5
FA
330
17
100
AcDbEntity
  8
IMPL_COLLIDER
100
AcDbPolyline
 90
4
 70
1
 10
230175.22217918123
 20
146670.0
 10
230595.22217918126
 20
146670.0
 10
230595.22217918126
 20
147090.0
 10
230175.22217918123
 20
147090.0
  0
LWPOLYLINE
  5
FB
330
17
100
AcDbEntity
  8
IMPL_COLLIDER
100
AcDbPolyline
 90
4
 70
1
 10
219164.24663825962
 20
152910.0
 10
219584.24663825962
 20
152910.0
 10
219584.24663825962
 20
153330.0
 10
219164.24663825962
 20
153330.0
  0
LWPOLYLINE
  5
FC
330
17
100
AcDbEntity
  8
IMPL_COLLIDER
100
AcDbPolyline
 90
4
 70
1
 10
219164.24663825962
 20
146670.0
 10
219584.24663825962
 20
146670.0
 10
219584.24663825962
 20
147090.0
 10
219164.24663825962
 20
147090.0
  0
LWPOLYLINE
  5
FD
330
17
100
AcDbEntity
  8
IMPL_COLLIDER
100
AcDbPolyline
 90
4
 70
1
 10
208153.27109733797
 20
152910.0
 10
208573.271097338
 20
152910.0
 10
208573.271097338
 20
153330.0
 10
208153.27109733797
 20
153330.0
  0
LWPOLYLINE
  5
FE
330
17
100
AcDbEntity
  8
IMPL_COLLIDER
100
AcDbPolyline
 90
4
 70
1
 10
208153.27109733797
 20
146670.0
 10
208573.271097338
 20
146670.0
 10
208573.271097338
 20
147090.0
 10
208153.27109733797
 20
147090.0
  0
LWPOLYLINE
  5
FF
330
17
100
AcDbEntity
  8
IMPL_COLLIDER
100
AcDbPolyline
 90
4
 70
1
 10
196050.44874875265
 20
152773.09434741794
 10
196470.44874875265
 20
152773.09434741794
 10
196470.44874875265
 20
153193.09434741794
 10
196050.44874875265
 20
153193.09434741794
  0
LWPOLYLINE
  5
100
330
17
100
AcDbEntity
  8
IMPL_COLLIDER
100
AcDbPolyline
 90
4
 70
1
 10
197026.59981060363
 20
146609.91910210426
 10
197446.59981060366
 20
146609.91910210426
 10
197446.59981060366
 20
147029.9191021043
 10
197026.59981060363
 20
147029.9191021043
  0
LWPOLYLINE
  5
101
330
17
100
AcDbEntity
  8
IMPL_COLLIDER
100
AcDbPolyline
 90
4
 70
1
 10
186670.72282679286
 20
141857.1559134324
 10
187090.72282679286
 20
141857.1559134324
 10
187090.72282679286
 20
142277.15591343242
 10
186670.72282679286
 20
142277.15591343242
  0
LWPOLYLINE
  5
102
330
17
100
AcDbEntity
  8
IMPL_COLLIDER
100
AcDbPolyline
 90
4
 70
1
 10
192909.27717320714
 20
141722.84408656758
 10
193329.27717320714
 20
141722.84408656758
 10
193329.27717320714
 20
142142.8440865676
 10
192909.27717320714
 20
142142.8440865676
  0
LWPOLYLINE
  5
103
330
17
100
AcDbEntity
  8
IMPL_COLLIDER
100
AcDbPolyline
 90
4
 70
1
 10
194158.96590001884
 20
129726.11808342063
 10
194578.96590001887
 20
129726.11808342063
 10
194578.96590001887
 20
130146.11808342065
 10
194158.96590001884
 20
130146.11808342065
  0
LWPOLYLINE
  5
104
330
17
100
AcDbEntity
  8
IMPL_COLLIDER
100
AcDbPolyline
 90
4
 70
1
 10
196196.52460360536
 20
135624.07997965554
 10
196616.52460360536
 20
135624.07997965554
 10
196616.52460360536
 20
136044.07997965554
 10
196196.52460360536
 20
136044.07997965554
  0
LWPOLYLINE
  5
105
330
17
100
AcDbEntity
  8
IMPL_COLLIDER
100
AcDbPolyline
 90
4
 70
1
 10
206714.53808887125
 20
129585.20749963007
 10
207134.53808887125
 20
129585.20749963007
 10
207134.53808887125
 20
130005.20749963008
 10
206714.53808887125
 20
130005.20749963008
  0
LWPOLYLINE
  5
106
330
17
100
AcDbEntity
  8
IMPL_COLLIDER
100
AcDbPolyline
 90
4
 70
1
 10
206375.90738975664
 20
135816.01236333884
 10
206795.90738975664
 20
135816.01236333884
 10
206795.90738975664
 20
136236.01236333887
 10
206375.90738975664
 20
136236.01236333887
  0
LWPOLYLINE
  5
107
330
17
100
AcDbEntity
  8
IMPL_COLLIDER
100
AcDbPolyline
 90
4
 70
1
 10
218236.0346052327
 20
130211.37578856274
 10
218656.0346052327
 20
130211.37578856274
 10
218656.0346052327
 20
130631.37578856276
 10
218236.0346052327
 20
130631.37578856276
  0
LWPOLYLINE
  5
108
330
17
100
AcDbEntity
  8
IMPL_COLLIDER
100
AcDbPolyline
 90
4
 70
1
 10
217897.4039061181
 20
136442.18065227152
 10
218317.4039061181
 20
136442.18065227152
 10
218317.4039061181
 20
136862.18065227155
 10
217897.4039061181
 20
136862.18065227155
  0
LWPOLYLINE
  5
109
330
17
100
AcDbEntity
  8
IMPL_COLLIDER
100
AcDbPolyline
 90
4
 70
1
 10
229418.90042247958
 20
137068.34894120423
 10
229838.90042247958
 20
137068.34894120423
 10
229838.90042247958
 20
137488.34894120423
 10
229418.90042247958
 20
137488.34894120423
  0
LWPOLYLINE
  5
10A
330
17
100
AcDbEntity
  8
IMPL_COLLIDER
100
AcDbPolyline
 90
4
 70
1
 10
240807.4289598112
 20
137320.90046361866
 10
241227.42895981122
 20
137320.90046361866
 10
241227.42895981122
 20
137740.9004636187
 10
240807.4289598112
 20
137740.9004636187
  0
LWPOLYLINE
  5
10B
330
17
100
AcDbEntity
  8
IMPL_COLLIDER
100
AcDbPolyline
 90
4
 70
1
 10
251687.03258372066
 20
130885.62700881826
 10
252107.03258372066
 20
130885.62700881826
 10
252107.03258372066
 20
131305.62700881826
 10
251687.03258372066
 20
131305.62700881826
  0
LWPOLYLINE
  5
10C
330
17
100
AcDbEntity
  8
IMPL_COLLIDER
100
AcDbPolyline
 90
4
 70
1
 10
251798.44339336202
 20
137124.63234873387
 10
252218.44339336205
 20
137124.63234873387
 10
252218.44339336205
 20
137544.63234873387
 10
251798.44339336202
 20
137544.63234873387
  0
LWPOLYLINE
  5
10D
330
17
100
AcDbEntity
  8
IMPL_COLLIDER
100
AcDbPolyline
 90
4
 70
1
 10
259903.4139876407
 20
129229.27887404202
 10
260323.41398764067
 20
129229.27887404202
 10
260323.41398764067
 20
129649.27887404204
 10
259903.4139876407
 20
129649.27887404204
  0
LWPOLYLINE
  5
10E
330
17
100
AcDbEntity
  8
IMPL_COLLIDER
100
AcDbPolyline
 90
4
 70
1
 10
264910.554009001
 20
132953.0066845153
 10
265330.554009001
 20
132953.0066845153
 10
265330.554009001
 20
133373.00668451533
 10
264910.554009001
 20
133373.00668451533
  0
LWPOLYLINE
  5
10F
330
17
100
AcDbEntity
  8
IMPL_COLLIDER
100
AcDbPolyline
 90
4
 70
1
 10
260670.00000000003
 20
119872.58934501986
 10
261089.99999999997
 20
119872.58934501986
 10
261089.99999999997
 20
120292.58934501985
 10
260670.00000000003
 20
120292.58934501985
  0
LWPOLYLINE
  5
110
330
17
100
AcDbEntity
  8
IMPL_COLLIDER
100
AcDbPolyline
 90
4
 70
1
 10
266910.0
 20
119872.58934501986
 10
267330.0
 20
119872.58934501986
 10
267330.0
 20
120292.58934501985
 10
266910.0
 20
120292.58934501985
  0
LWPOLYLINE
  5
111
330
17
100
AcDbEntity
  8
IMPL_COLLIDER
100
AcDbPolyline
 90
4
 70
1
 10
260670.00000000003
 20
108350.47079000362
 10
261089.99999999997
 20
108350.47079000362
 10
261089.99999999997
 20
108770.4707900036
 10
260670.00000000003
 20
108770.4707900036
  0
LWPOLYLINE
  5
112
330
17
100
AcDbEntity
  8
IMPL_COLLIDER
100
AcDbPolyline
 90
4
 70
1
 10
289717.0961463136
 20
95930.25709737492
 10
290137.09614631353
 20
95930.25709737492
 10
290137.09614631353
 20
96350.25709737491
 10
289717.0961463136
 20
96350.25709737491
  0
LWPOLYLINE
  5
113
330
17
100
AcDbEntity
  8
IMPL_COLLIDER
100
AcDbPolyline
 90
4
 70
1
 10
293892.4711299928
 20
100567.48080835382
 10
294312.4711299928
 20
100567.48080835382
 10
294312.4711299928
 20
100987.48080835381
 10
293892.4711299928
 20
100987.48080835381
  0
LWPOLYLINE
  5
114
330
17
100
AcDbEntity
  8
IMPL_COLLIDER
100
AcDbPolyline
 90
4
 70
1
 10
290705.9738733679
 20
87392.93174035965
 10
291125.9738733679
 20
87392.93174035965
 10
291125.9738733679
 20
87812.93174035965
 10
290705.9738733679
 20
87812.93174035965
  0
LWPOLYLINE
  5
115
330
17
100
AcDbEntity
  8
IMPL_COLLIDER
100
AcDbPolyline
 90
4
 70
1
 10
296923.7923546114
 20
87918.60591159717
 10
297343.7923546114
 20
87918.60591159717
 10
297343.7923546114
 20
88338.60591159716
 10
296923.7923546114
 20
88338.60591159716
  0
LWPOLYLINE
  5
116
330
17
100
AcDbEntity
  8
IMPL_COLLIDER
100
AcDbPolyline
 90
4
 70
1
 10
297440.37380123883
 20
76232.59584325388
 10
297860.3738012388
 20
76232.59584325388
 10
297860.3738012388
 20
76652.59584325386
 10
297440.37380123883
 20
76652.59584325386
  0
LWPOLYLINE
  5
117
330
17
100
AcDbEntity
  8
IMPL_COLLIDER
100
AcDbPolyline
 90
4
 70
1
 10
302312.99517216324
 20
80130.69293999356
 10
302732.99517216324
 20
80130.69293999356
 10
302732.99517216324
 20
80550.69293999355
 10
302312.99517216324
 20
80550.69293999355
  0
LWPOLYLINE
  5
118
330
17
100
AcDbEntity
  8
IMPL_COLLIDER
100
AcDbPolyline
 90
4
 70
1
 10
298670.0
 20
67556.382795104
 10
299090.0
 20
67556.382795104
 10
299090.0
 20
67976.38279510399
 10
298670.0
 20
67976.38279510399
  0
LWPOLYLINE
  5
119
330
17
100
AcDbEntity
  8
IMPL_COLLIDER
100
AcDbPolyline
 90
4
 70
1
 10
304910.0
 20
67556.382795104
 10
305330.0
 20
67556.382795104
 10
305330.0
 20
67976.38279510399
 10
304910.0
 20
67976.38279510399
  0
LWPOLYLINE
  5
11A
330
17
100
AcDbEntity
  8
IMPL_COLLIDER
100
AcDbPolyline
 90
4
 70
1
 10
298670.0
 20
56000.08321632696
 10
299090.0
 20
56000.08321632696
 10
299090.0
 20
56420.08321632696
 10
298670.0
 20
56420.08321632696
  0
LWPOLYLINE
  5
11B
330
17
100
AcDbEntity
  8
IMPL_COLLIDER
100
AcDbPolyline
 90
4
 70
1
 10
304910.0
 20
56000.08321632696
 10
305330.0
 20
56000.08321632696
 10
305330.0
 20
56420.08321632696
 10
304910.0
 20
56420.08321632696
  0
LWPOLYLINE
  5
11C
330
17
100
AcDbEntity
  8
IMPL_COLLIDER
100
AcDbPolyline
 90
4
 70
1
 10
296191.61766480614
 20
49172.0077499111
 10
296611.6176648061
 20
49172.0077499111
 10
296611.6176648061
 20
49592.00774991111
 10
296191.61766480614
 20
49592.00774991111
  0
LWPOLYLINE
  5
11D
330
17
100
AcDbEntity
  8
IMPL_COLLIDER
100
AcDbPolyline
 90
4
 70
1
 10
298445.765661814
 20
43353.38103842791
 10
298865.76566181396
 20
43353.38103842791
 10
298865.76566181396
 20
43773.38103842791
 10
298445.765661814
 20
43773.38103842791
  0
LWPOLYLINE
  5
11E
330
17
100
AcDbEntity
  8
IMPL_COLLIDER
100
AcDbPolyline
 90
4
 70
1
 10
288679.58198452025
 20
49830.26898319244
 10
289099.58198452025
 20
49830.26898319244
 10
289099.58198452025
 20
50250.26898319245
 10
288679.58198452025
 20
50250.26898319245
  0
LWPOLYLINE
  5
11F
330
17
100
AcDbEntity
  8
IMPL_COLLIDER
100
AcDbPolyline
 90
4
 70
1
 10
284107.0146781757
 20
45584.18511344279
 10
284527.0146781756
 20
45584.18511344279
 10
284527.0146781756
 20
46004.18511344279
 10
284107.0146781757
 20
46004.18511344279
  0
LWPOLYLINE
  5
120
330
17
100
AcDbEntity
  8
IMPL_COLLIDER
100
AcDbPolyline
 90
4
 70
1
 10
287707.1498801071
 20
58792.27870945493
 10
288127.149880107
 20
58792.27870945493
 10
288127.149880107
 20
59212.27870945493
 10
287707.1498801071
 20
59212.27870945493
  0
LWPOLYLINE
  5
121
330
17
100
AcDbEntity
  8
IMPL_COLLIDER
100
AcDbPolyline
 90
4
 70
1
 10
281469.73582046985
 20
58612.65173865251
 10
281889.7358204698
 20
58612.65173865251
 10
281889.7358204698
 20
59032.65173865251
 10
281469.73582046985
 20
59032.65173865251
  0
LWPOLYLINE
  5
122
330
17
100
AcDbEntity
  8
IMPL_COLLIDER
100
AcDbPolyline
 90
4
 70
1
 10
287373.2641243233
 20
70386.21528888917
 10
287793.26412432326
 20
70386.21528888917
 10
287793.26412432326
 20
70806.21528888916
 10
287373.2641243233
 20
70806.21528888916
  0
LWPOLYLINE
  5
123
330
17
100
AcDbEntity
  8
IMPL_COLLIDER
100
AcDbPolyline
 90
4
 70
1
 10
281135.8500646861
 20
70206.58831808675
 10
281555.8500646861
 20
70206.58831808675
 10
281555.8500646861
 20
70626.58831808675
 10
281135.8500646861
 20
70626.58831808675
  0
LWPOLYLINE
  5
124
330
17
100
AcDbEntity
  8
IMPL_COLLIDER
100
AcDbPolyline
 90
4
 70
1
 10
287039.37836853956
 20
81980.15186832342
 10
287459.37836853956
 20
81980.15186832342
 10
287459.37836853956
 20
82400.1518683234
 10
287039.37836853956
 20
82400.1518683234
  0
LWPOLYLINE
  5
125
330
17
100
AcDbEntity
  8
IMPL_COLLIDER
100
AcDbPolyline
 90
4
 70
1
 10
280801.9643089024
 20
81800.524897521
 10
281221.96430890233
 20
81800.524897521
 10
281221.96430890233
 20
82220.52489752098
 10
280801.9643089024
 20
82220.52489752098
  0
LWPOLYLINE
  5
126
330
17
100
AcDbEntity
  8
IMPL_COLLIDER
100
AcDbPolyline
 90
4
 70
1
 10
286705.4926127558
 20
93574.08844775753
 10
287125.49261275574
 20
93574.08844775753
 10
287125.49261275574
 20
93994.08844775752
 10
286705.4926127558
 20
93994.08844775752
  0
LWPOLYLINE
  5
127
330
17
100
AcDbEntity
  8
IMPL_COLLIDER
100
AcDbPolyline
 90
4
 70
1
 10
280468.07855311857
 20
93394.46147695537
 10
280888.0785531185
 20
93394.46147695537
 10
280888.0785531185
 20
93814.46147695536
 10
280468.07855311857
 20
93814.46147695536
  0
LWPOLYLINE
  5
128
330
17
100
AcDbEntity
  8
IMPL_COLLIDER
100
AcDbPolyline
 90
4
 70
1
 10
286154.91056239704
 20
105769.44175436054
 10
286574.910562397
 20
105769.44175436054
 10
286574.910562397
 20
106189.44175436052
 10
286154.91056239704
 20
106189.44175436052
  0
LWPOLYLINE
  5
129
330
17
100
AcDbEntity
  8
IMPL_COLLIDER
100
AcDbPolyline
 90
4
 70
1
 10
280091.14551615424
 20
104296.90874489535
 10
280511.14551615424
 20
104296.90874489535
 10
280511.14551615424
 20
104716.90874489534
 10
280091.14551615424
 20
104716.90874489534
  0
LWPOLYLINE
  5
12A
330
17
100
AcDbEntity
  8
IMPL_COLLIDER
100
AcDbPolyline
 90
4
 70
1
 10
273906.24833292555
 20
112643.54120512112
 10
274326.2483329255
 20
112643.54120512112
 10
274326.2483329255
 20
113063.5412051211
 10
273906.24833292555
 20
113063.5412051211
  0
LWPOLYLINE
  5
12B
330
17
100
AcDbEntity
  8
IMPL_COLLIDER
100
AcDbPolyline
 90
4
 70
1
 10
274085.8754231407
 20
106406.12714892275
 10
274505.87542314065
 20
106406.12714892275
 10
274505.87542314065
 20
106826.12714892274
 10
274085.8754231407
 20
106826.12714892274
  0
LWPOLYLINE
  5
12C
330
17
100
AcDbEntity
  8
IMPL_COLLIDER
100
AcDbPolyline
 90
4
 70
1
 10
263175.3099175418
 20
103432.49571559705
 10
263595.3099175418
 20
103432.49571559705
 10
263595.3099175418
 20
103852.49571559703
 10
263175.3099175418
 20
103852.49571559703
  0
LWPOLYLINE
  5
12D
330
17
100
AcDbEntity
  8
IMPL_COLLIDER
100
AcDbPolyline
 90
4
 70
1
 10
269414.8443651035
 20
103356.27316191279
 10
269834.8443651035
 20
103356.27316191279
 10
269834.8443651035
 20
103776.27316191277
 10
269414.8443651035
 20
103776.27316191277
  0
LWPOLYLINE
  5
12E
330
17
100
AcDbEntity
  8
IMPL_COLLIDER
100
AcDbPolyline
 90
4
 70
1
 10
263320.4122930024
 20
92331.34931384503
 10
263740.41229300236
 20
92331.34931384503
 10
263740.41229300236
 20
92751.34931384501
 10
263320.4122930024
 20
92751.34931384501
  0
LWPOLYLINE
  5
12F
330
17
100
AcDbEntity
  8
IMPL_COLLIDER
100
AcDbPolyline
 90
4
 70
1
 10
269559.8719066558
 20
92413.46952809859
 10
269979.8719066557
 20
92413.46952809859
 10
269979.8719066557
 20
92833.46952809858
 10
269559.8719066558
 20
92833.46952809858
  0
LWPOLYLINE
  5
130
330
17
100
AcDbEntity
  8
IMPL_COLLIDER
100
AcDbPolyline
 90
4
 70
1
 10
263465.4772515088
 20
81309.37429606206
 10
263885.47725150874
 20
81309.37429606206
 10
263885.47725150874
 20
81729.37429606204
 10
263465.4772515088
 20
81729.37429606204
  0
LWPOLYLINE
  5
131
330
17
100
AcDbEntity
  8
IMPL_COLLIDER
100
AcDbPolyline
 90
4
 70
1
 10
269704.93686516216
 20
81391.49451031534
 10
270124.9368651621
 20
81391.49451031534
 10
270124.9368651621
 20
81811.49451031533
 10
269704.93686516216
 20
81811.49451031533
  0
LWPOLYLINE
  5
132
330
17
100
AcDbEntity
  8
IMPL_COLLIDER
100
AcDbPolyline
 90
4
 70
1
 10
263610.5422100151
 20
70287.39927827881
 10
264030.54221001506
 20
70287.39927827881
 10
264030.54221001506
 20
70707.3992782788
 10
263610.5422100151
 20
70707.3992782788
  0
LWPOLYLINE
  5
133
330
17
100
AcDbEntity
  8
IMPL_COLLIDER
100
AcDbPolyline
 90
4
 70
1
 10
269850.0018236685
 20
70369.51949253237
 10
270270.0018236684
 20
70369.51949253237
 10
270270.0018236684
 20
70789.51949253236
 10
269850.0018236685
 20
70789.51949253236
  0
LWPOLYLINE
  5
134
330
17
100
AcDbEntity
  8
IMPL_COLLIDER
100
AcDbPolyline
 90
4
 70
1
 10
266333.7361780832
 20
58363.79415826604
 10
266753.73617808317
 20
58363.79415826604
 10
266753.73617808317
 20
58783.79415826604
 10
266333.7361780832
 20
58783.79415826604
  0
LWPOLYLINE
  5
135
330
17
100
AcDbEntity
  8
IMPL_COLLIDER
100
AcDbPolyline
 90
4
 70
1
 10
272124.84979761293
 20
60687.713917142726
 10
272544.8497976129
 20
60687.713917142726
 10
272544.8497976129
 20
61107.713917142726
 10
272124.84979761293
 20
61107.713917142726
  0
LWPOLYLINE
  5
136
330
17
100
AcDbEntity
  8
IMPL_COLLIDER
100
AcDbPolyline
 90
4
 70
1
 10
264135.70160318946
 20
52259.033409447
 10
264555.7016031894
 20
52259.033409447
 10
264555.7016031894
 20
52679.033409447
 10
264135.70160318946
 20
52679.033409447
  0
LWPOLYLINE
  5
137
330
17
100
AcDbEntity
  8
IMPL_COLLIDER
100
AcDbPolyline
 90
4
 70
1
 10
267116.21739992674
 20
46776.86909364992
 10
267536.21739992674
 20
46776.86909364992
 10
267536.21739992674
 20
47196.869093649926
 10
267116.21739992674
 20
47196.869093649926
  0
LWPOLYLINE
  5
138
330
17
100
AcDbEntity
  8
IMPL_COLLIDER
100
AcDbPolyline
 90
4
 70
1
 10
257817.04027229734
 20
53733.48566142995
 10
258237.04027229728
 20
53733.48566142995
 10
258237.04027229728
 20
54153.48566142996
 10
257817.04027229734
 20
54153.48566142996
  0
LWPOLYLINE
  5
139
330
17
100
AcDbEntity
  8
IMPL_COLLIDER
100
AcDbPolyline
 90
4
 70
1
 10
252717.9616488632
 20
50136.681914763016
 10
253137.96164886322
 20
50136.681914763016
 10
253137.96164886322
 20
50556.681914763016
 10
252717.9616488632
 20
50556.681914763016
  0
LWPOLYLINE
  5
13A
330
17
100
AcDbEntity
  8
IMPL_COLLIDER
100
AcDbPolyline
 90
4
 70
1
 10
258953.40343225183
 20
61547.80276275716
 10
259373.4034322518
 20
61547.80276275716
 10
259373.4034322518
 20
61967.80276275716
 10
258953.40343225183
 20
61967.80276275716
  0
LWPOLYLINE
  5
13B
330
17
100
AcDbEntity
  8
IMPL_COLLIDER
100
AcDbPolyline
 90
4
 70
1
 10
253131.63172535237
 20
63793.815717471596
 10
253551.6317253524
 20
63793.815717471596
 10
253551.6317253524
 20
64213.81571747159
 10
253131.63172535237
 20
64213.81571747159
  0
LWPOLYLINE
  5
13C
330
17
100
AcDbEntity
  8
IMPL_COLLIDER
100
AcDbPolyline
 90
4
 70
1
 10
259576.8423997531
 20
74148.9929614619
 10
259996.84239975308
 20
74148.9929614619
 10
259996.84239975308
 20
74568.99296146189
 10
259576.8423997531
 20
74568.99296146189
  0
LWPOLYLINE
  5
13D
330
17
100
AcDbEntity
  8
IMPL_COLLIDER
100
AcDbPolyline
 90
4
 70
1
 10
253337.48074501462
 20
74059.73971849916
 10
253757.48074501465
 20
74059.73971849916
 10
253757.48074501465
 20
74479.73971849914
 10
253337.48074501462
 20
74479.73971849914
  0
LWPOLYLINE
  5
13E
330
17
100
AcDbEntity
  8
IMPL_COLLIDER
100
AcDbPolyline
 90
4
 70
1
 10
259418.9676701311
 20
85185.4270624199
 10
259838.96767013107
 20
85185.4270624199
 10
259838.96767013107
 20
85605.4270624199
 10
259418.9676701311
 20
85605.4270624199
  0
LWPOLYLINE
  5
13F
330
17
100
AcDbEntity
  8
IMPL_COLLIDER
100
AcDbPolyline
 90
4
 70
1
 10
253179.60601539264
 20
85096.17381945717
 10
253599.60601539267
 20
85096.17381945717
 10
253599.60601539267
 20
85516.17381945715
 10
253179.60601539264
 20
85516.17381945715
  0
LWPOLYLINE
  5
140
330
17
100
AcDbEntity
  8
IMPL_COLLIDER
100
AcDbPolyline
 90
4
 70
1
 10
256221.66150169255
 20
97266.64097786053
 10
256641.66150169252
 20
97266.64097786053
 10
256641.66150169252
 20
97686.64097786052
 10
256221.66150169255
 20
97686.64097786052
  0
LWPOLYLINE
  5
141
330
17
100
AcDbEntity
  8
IMPL_COLLIDER
100
AcDbPolyline
 90
4
 70
1
 10
250335.31488475873
 20
95195.76591998956
 10
250755.31488475876
 20
95195.76591998956
 10
250755.31488475876
 20
95615.76591998954
 10
250335.31488475873
 20
95615.76591998954
  0
LWPOLYLINE
  5
142
330
17
100
AcDbEntity
  8
IMPL_COLLIDER
100
AcDbPolyline
 90
4
 70
1
 10
252404.6194194557
 20
108116.36977345846
 10
252824.61941945573
 20
108116.36977345846
 10
252824.61941945573
 20
108536.36977345844
 10
252404.6194194557
 20
108536.36977345844
  0
LWPOLYLINE
  5
143
330
17
100
AcDbEntity
  8
IMPL_COLLIDER
100
AcDbPolyline
 90
4
 70
1
 10
246518.2728025219
 20
106045.49471558748
 10
246938.27280252194
 20
106045.49471558748
 10
246938.27280252194
 20
106465.49471558747
 10
246518.2728025219
 20
106465.49471558747
  0
LWPOLYLINE
  5
144
330
17
100
AcDbEntity
  8
IMPL_COLLIDER
100
AcDbPolyline
 90
4
 70
1
 10
248587.57733721889
 20
118966.09856905644
 10
249007.57733721889
 20
118966.09856905644
 10
249007.57733721889
 20
119386.09856905643
 10
248587.57733721889
 20
119386.09856905643
  0
LWPOLYLINE
  5
145
330
17
100
AcDbEntity
  8
IMPL_COLLIDER
100
AcDbPolyline
 90
4
 70
1
 10
242701.23072028515
 20
116895.22351118535
 10
243121.23072028515
 20
116895.22351118535
 10
243121.23072028515
 20
117315.22351118534
 10
242701.23072028515
 20
117315.22351118534
  0
LWPOLYLINE
  5
146
330
17
100
AcDbEntity
  8
IMPL_COLLIDER
100
AcDbPolyline
 90
4
 70
1
 10
241639.25938042303
 20
129982.59608890473
 10
242059.25938042306
 20
129982.59608890473
 10
242059.25938042306
 20
130402.59608890474
 10
241639.25938042303
 20
130402.59608890474
  0
LWPOLYLINE
  5
147
330
17
100
AcDbEntity
  8
IMPL_COLLIDER
100
AcDbPolyline
 90
4
 70
1
 10
238351.60295130772
 20
124678.92611386889
 10
238771.60295130772
 20
124678.92611386889
 10
238771.60295130772
 20
125098.92611386887
 10
238351.60295130772
 20
125098.92611386887
  0
LWPOLYLINE
  5
148
330
17
100
AcDbEntity
  8
IMPL_COLLIDER
100
AcDbPolyline
 90
4
 70
1
 10
226994.82509286402
 20
128891.50237532152
 10
227414.82509286402
 20
128891.50237532152
 10
227414.82509286402
 20
129311.50237532154
 10
226994.82509286402
 20
129311.50237532154
  0
LWPOLYLINE
  5
149
330
17
100
AcDbEntity
  8
IMPL_COLLIDER
100
AcDbPolyline
 90
4
 70
1
 10
231780.62012342946
 20
124887.28385912953
 10
232200.6201234295
 20
124887.28385912953
 10
232200.6201234295
 20
125307.28385912951
 10
231780.62012342946
 20
125307.28385912951
  0
LWPOLYLINE
  5
14A
330
17
100
AcDbEntity
  8
IMPL_COLLIDER
100
AcDbPolyline
 90
4
 70
1
 10
227287.1520816612
 20
114995.668130792
 10
227707.15208166122
 20
114995.668130792
 10
227707.15208166122
 20
115415.66813079198
 10
227287.1520816612
 20
115415.66813079198
  0
LWPOLYLINE
  5
14B
330
17
100
AcDbEntity
  8
IMPL_COLLIDER
100
AcDbPolyline
 90
4
 70
1
 10
233121.2339039584
 20
117209.50852493555
 10
233541.2339039584
 20
117209.50852493555
 10
233541.2339039584
 20
117629.50852493553
 10
233121.2339039584
 20
117629.50852493553
  0
LWPOLYLINE
  5
14C
330
17
100
AcDbEntity
  8
IMPL_COLLIDER
100
AcDbPolyline
 90
4
 70
1
 10
231392.13977520712
 20
104177.89005292159
 10
231812.13977520712
 20
104177.89005292159
 10
231812.13977520712
 20
104597.89005292158
 10
231392.13977520712
 20
104597.89005292158
  0
LWPOLYLINE
  5
14D
330
17
100
AcDbEntity
  8
IMPL_COLLIDER
100
AcDbPolyline
 90
4
 70
1
 10
237226.2215975043
 20
106391.7304470651
 10
237646.22159750434
 20
106391.7304470651
 10
237646.22159750434
 20
106811.73044706509
 10
237226.2215975043
 20
106811.73044706509
  0
LWPOLYLINE
  5
14E
330
17
100
AcDbEntity
  8
IMPL_COLLIDER
100
AcDbPolyline
 90
4
 70
1
 10
235913.29682279206
 20
93006.34874966848
 10
236333.29682279206
 20
93006.34874966848
 10
236333.29682279206
 20
93426.34874966848
 10
235913.29682279206
 20
93426.34874966848
  0
LWPOLYLINE
  5
14F
330
17
100
AcDbEntity
  8
IMPL_COLLIDER
100
AcDbPolyline
 90
4
 70
1
 10
241129.92505062054
 20
96430.4383998708
 10
241549.92505062057
 20
96430.4383998708
 10
241549.92505062057
 20
96850.43839987079
 10
241129.92505062054
 20
96850.43839987079
  0
LWPOLYLINE
  5
150
330
17
100
AcDbEntity
  8
IMPL_COLLIDER
100
AcDbPolyline
 90
4
 70
1
 10
239667.13259368212
 20
86062.59612267757
 10
240087.13259368212
 20
86062.59612267757
 10
240087.13259368212
 20
86482.59612267757
 10
239667.13259368212
 20
86482.59612267757
  0
LWPOLYLINE
  5
151
330
17
100
AcDbEntity
  8
IMPL_COLLIDER
100
AcDbPolyline
 90
4
 70
1
 10
245457.98483560426
 20
83738.02512736998
 10
245877.9848356043
 20
83738.02512736998
 10
245877.9848356043
 20
84158.02512736997
 10
245457.98483560426
 20
84158.02512736997
  0
LWPOLYLINE
  5
152
330
17
100
AcDbEntity
  8
IMPL_COLLIDER
100
AcDbPolyline
 90
4
 70
1
 10
234672.30571832645
 20
84498.29893389142
 10
235092.30571832645
 20
84498.29893389142
 10
235092.30571832645
 20
84918.2989338914
 10
234672.30571832645
 20
84918.2989338914
  0
LWPOLYLINE
  5
153
330
17
100
AcDbEntity
  8
IMPL_COLLIDER
100
AcDbPolyline
 90
4
 70
1
 10
231241.94012541257
 20
79285.79551432873
 10
231661.9401254126
 20
79285.79551432873
 10
231661.9401254126
 20
79705.79551432871
 10
231241.94012541257
 20
79705.79551432871
  0
LWPOLYLINE
  5
154
330
17
100
AcDbEntity
  8
IMPL_COLLIDER
100
AcDbPolyline
 90
4
 70
1
 10
228695.66862285955
 20
92864.66974249623
 10
229115.66862285958
 20
92864.66974249623
 10
229115.66862285958
 20
93284.66974249622
 10
228695.66862285955
 20
93284.66974249622
  0
LWPOLYLINE
  5
155
330
17
100
AcDbEntity
  8
IMPL_COLLIDER
100
AcDbPolyline
 90
4
 70
1
 10
223528.5969333327
 20
89366.24578944387
 10
223948.59693333274
 20
89366.24578944387
 10
223948.59693333274
 20
89786.24578944386
 10
223528.5969333327
 20
89786.24578944386
  0
LWPOLYLINE
  5
156
330
17
100
AcDbEntity
  8
IMPL_COLLIDER
100
AcDbPolyline
 90
4
 70
1
 10
222220.91267454324
 20
102427.69829652565
 10
222640.91267454327
 20
102427.69829652565
 10
222640.91267454327
 20
102847.69829652563
 10
222220.91267454324
 20
102847.69829652563
  0
LWPOLYLINE
  5
157
330
17
100
AcDbEntity
  8
IMPL_COLLIDER
100
AcDbPolyline
 90
4
 70
1
 10
217053.84098501643
 20
98929.27434347328
 10
217473.84098501643
 20
98929.27434347328
 10
217473.84098501643
 20
99349.27434347327
 10
217053.84098501643
 20
99349.27434347327
  0
LWPOLYLINE
  5
158
330
17
100
AcDbEntity
  8
IMPL_COLLIDER
100
AcDbPolyline
 90
4
 70
1
 10
211823.4417428589
 20
111207.71237237655
 10
212243.4417428589
 20
111207.71237237655
 10
212243.4417428589
 20
111627.71237237654
 10
211823.4417428589
 20
111627.71237237654
  0
LWPOLYLINE
  5
159
330
17
100
AcDbEntity
  8
IMPL_COLLIDER
100
AcDbPolyline
 90
4
 70
1
 10
211555.38102427108
 20
104973.47276748887
 10
211975.38102427108
 20
104973.47276748887
 10
211975.38102427108
 20
105393.47276748886
 10
211555.38102427108
 20
105393.47276748886
  0
LWPOLYLINE
  5
15A
330
17
100
AcDbEntity
  8
IMPL_COLLIDER
100
AcDbPolyline
 90
4
 70
1
 10
199955.0118286269
 20
104059.80656253865
 10
200375.0118286269
 20
104059.80656253865
 10
200375.0118286269
 20
104479.80656253864
 10
199955.0118286269
 20
104479.80656253864
  0
LWPOLYLINE
  5
15B
330
17
100
AcDbEntity
  8
IMPL_COLLIDER
100
AcDbPolyline
 90
4
 70
1
 10
205027.85957995773
 20
100426.101058261
 10
205447.85957995773
 20
100426.101058261
 10
205447.85957995773
 20
100846.10105826099
 10
205027.85957995773
 20
100846.10105826099
  0
LWPOLYLINE
  5
15C
330
17
100
AcDbEntity
  8
IMPL_COLLIDER
100
AcDbPolyline
 90
4
 70
1
 10
202064.7048606531
 20
90002.89646903978
 10
202484.7048606531
 20
90002.89646903978
 10
202484.7048606531
 20
90422.89646903977
 10
202064.7048606531
 20
90422.89646903977
  0
LWPOLYLINE
  5
15D
330
17
100
AcDbEntity
  8
IMPL_COLLIDER
100
AcDbPolyline
 90
4
 70
1
 10
206406.58616933104
 20
94484.60001806584
 10
206826.58616933104
 20
94484.60001806584
 10
206826.58616933104
 20
94904.60001806583
 10
206406.58616933104
 20
94904.60001806583
  0
LWPOLYLINE
  5
15E
330
17
100
AcDbEntity
  8
IMPL_COLLIDER
100
AcDbPolyline
 90
4
 70
1
 10
210382.64349555213
 20
81944.46469404033
 10
210802.64349555213
 20
81944.46469404033
 10
210802.64349555213
 20
82364.46469404032
 10
210382.64349555213
 20
82364.46469404032
  0
LWPOLYLINE
  5
15F
330
17
100
AcDbEntity
  8
IMPL_COLLIDER
100
AcDbPolyline
 90
4
 70
1
 10
214724.52480423014
 20
86426.16824306635
 10
215144.52480423014
 20
86426.16824306635
 10
215144.52480423014
 20
86846.16824306633
 10
214724.52480423014
 20
86846.16824306633
  0
LWPOLYLINE
  5
160
330
17
100
AcDbEntity
  8
IMPL_COLLIDER
100
AcDbPolyline
 90
4
 70
1
 10
227407.66574516345
 20
4500.0
 10
275407.66574516345
 20
4500.0
 10
275407.66574516345
 20
19500.0
 10
227407.66574516345
 20
19500.0
  0
LWPOLYLINE
  5
161
330
17
100
AcDbEntity
  8
IMPL_COLLIDER
100
AcDbPolyline
 90
4
 70
1
 10
234407.66574516345
 20
10250.0
 10
268407.66574516345
 20
10250.0
 10
268407.66574516345
 20
11750.0
 10
234407.66574516345
 20
11750.0
  0
LWPOLYLINE
  5
162
330
17
100
AcDbEntity
  8
IMPL_COLLIDER
100
AcDbPolyline
 90
4
 70
1
 10
234407.66574516345
 20
8750.0
 10
268407.66574516345
 20
8750.0
 10
268407.66574516345
 20
10250.0
 10
234407.66574516345
 20
10250.0
  0
LWPOLYLINE
  5
163
330
17
100
AcDbEntity
  8
IMPL_COLLIDER
100
AcDbPolyline
 90
4
 70
1
 10
234407.66574516345
 20
7250.0
 10
268407.66574516345
 20
7250.0
 10
268407.66574516345
 20
8750.0
 10
234407.66574516345
 20
8750.0
  0
LWPOLYLINE
  5
164
330
17
100
AcDbEntity
  8
IMPL_COLLIDER
100
AcDbPolyline
 90
4
 70
1
 10
226907.66574516345
 20
4500.0
 10
275907.66574516345
 20
4500.0
 10
275907.66574516345
 20
19500.0
 10
226907.66574516345
 20
19500.0
  0
LWPOLYLINE
  5
165
330
17
100
AcDbEntity
  8
IMPL_COLLIDER
100
AcDbPolyline
 90
4
 70
1
 10
229297.66574516345
 20
18390.0
 10
229517.66574516348
 20
18390.0
 10
229517.66574516348
 20
18610.0
 10
229297.66574516345
 20
18610.0
  0
LWPOLYLINE
  5
166
330
17
100
AcDbEntity
  8
IMPL_COLLIDER
100
AcDbPolyline
 90
4
 70
1
 10
229297.66574516345
 20
5390.0
 10
229517.66574516348
 20
5390.0
 10
229517.66574516348
 20
5610.0
 10
229297.66574516345
 20
5610.0
  0
LWPOLYLINE
  5
167
330
17
100
AcDbEntity
  8
IMPL_COLLIDER
100
AcDbPolyline
 90
4
 70
1
 10
273297.66574516345
 20
18390.0
 10
273517.66574516345
 20
18390.0
 10
273517.66574516345
 20
18610.0
 10
273297.66574516345
 20
18610.0
  0
LWPOLYLINE
  5
168
330
17
100
AcDbEntity
  8
IMPL_COLLIDER
100
AcDbPolyline
 90
4
 70
1
 10
273297.66574516345
 20
5390.0
 10
273517.66574516345
 20
5390.0
 10
273517.66574516345
 20
5610.0
 10
273297.66574516345
 20
5610.0
  0
TEXT
  5
169
330
17
100
AcDbEntity
  8
NOTES
100
AcDbText
 10
0.0
 20
19000.0
 30
0.0
 40
240.0
  1
THE COMMONS - v0.8.0 IMPLEMENTATION OVERLAY / PROPOSED CHANGES - NOT SOURCE CAD
100
AcDbText
  0
ENDSEC
  0
SECTION
  2
OBJECTS
  0
DICTIONARY
  5
A
330
0
100
AcDbDictionary
281
1
  3
ACAD_COLOR
350
B
  3
ACAD_GROUP
350
C
  3
ACAD_LAYOUT
350
D
  3
ACAD_MATERIAL
350
E
  3
ACAD_MLEADERSTYLE
350
F
  3
ACAD_MLINESTYLE
350
10
  3
ACAD_PLOTSETTINGS
350
11
  3
ACAD_PLOTSTYLENAME
350
12
  3
ACAD_SCALELIST
350
14
  3
ACAD_TABLESTYLE
350
15
  3
ACAD_VISUALSTYLE
350
16
  3
EZDXF_META
350
2D
  0
DICTIONARY
  5
B
330
A
100
AcDbDictionary
281
1
  0
DICTIONARY
  5
C
330
A
100
AcDbDictionary
281
1
  0
DICTIONARY
  5
D
330
A
100
AcDbDictionary
281
1
  3
Model
350
1A
  3
Layout1
350
1E
  0
DICTIONARY
  5
E
330
A
100
AcDbDictionary
281
1
  3
ByBlock
350
1F
  3
ByLayer
350
20
  3
Global
350
21
  0
DICTIONARY
  5
F
330
A
100
AcDbDictionary
281
1
  3
Standard
350
2C
  0
DICTIONARY
  5
10
330
A
100
AcDbDictionary
281
1
  3
Standard
350
22
  0
DICTIONARY
  5
11
330
A
100
AcDbDictionary
281
1
  0
ACDBDICTIONARYWDFLT
  5
12
330
A
100
AcDbDictionary
281
1
  3
Normal
350
13
100
AcDbDictionaryWithDefault
340
13
  0
ACDBPLACEHOLDER
  5
13
330
12
  0
DICTIONARY
  5
14
330
A
100
AcDbDictionary
281
1
  0
DICTIONARY
  5
15
330
A
100
AcDbDictionary
281
1
  0
DICTIONARY
  5
16
330
A
100
AcDbDictionary
281
1
  0
LAYOUT
  5
1A
330
D
100
AcDbPlotSettings
  1

  4
A3
  6

 40
7.5
 41
20.0
 42
7.5
 43
20.0
 44
420.0
 45
297.0
 46
0.0
 47
0.0
 48
0.0
 49
0.0
140
0.0
141
0.0
142
1.0
143
1.0
 70
1024
 72
1
 73
0
 74
5
  7

 75
16
 76
0
 77
2
 78
300
147
1.0
148
0.0
149
0.0
100
AcDbLayout
  1
Model
 70
1
 71
0
 10
0.0
 20
0.0
 11
420.0
 21
297.0
 12
0.0
 22
0.0
 32
0.0
 14
1e+20
 24
1e+20
 34
1e+20
 15
-1e+20
 25
-1e+20
 35
-1e+20
146
0.0
 13
0.0
 23
0.0
 33
0.0
 16
1.0
 26
0.0
 36
0.0
 17
0.0
 27
1.0
 37
0.0
 76
1
330
17
  0
LAYOUT
  5
1E
330
D
100
AcDbPlotSettings
  1

  4
A3
  6

 40
7.5
 41
20.0
 42
7.5
 43
20.0
 44
420.0
 45
297.0
 46
0.0
 47
0.0
 48
0.0
 49
0.0
140
0.0
141
0.0
142
1.0
143
1.0
 70
0
 72
1
 73
0
 74
5
  7

 75
16
 76
0
 77
2
 78
300
147
1.0
148
0.0
149
0.0
100
AcDbLayout
  1
Layout1
 70
1
 71
1
 10
0.0
 20
0.0
 11
420.0
 21
297.0
 12
0.0
 22
0.0
 32
0.0
 14
1e+20
 24
1e+20
 34
1e+20
 15
-1e+20
 25
-1e+20
 35
-1e+20
146
0.0
 13
0.0
 23
0.0
 33
0.0
 16
1.0
 26
0.0
 36
0.0
 17
0.0
 27
1.0
 37
0.0
 76
1
330
1B
  0
MATERIAL
  5
1F
102
{ACAD_REACTORS
330
E
102
}
330
E
100
AcDbMaterial
  1
ByBlock
  2

 70
0
 40
1.0
 71
1
 41
1.0
 91
-1023410177
 42
1.0
 72
1
  3

 73
1
 74
1
 75
1
 44
0.5
 73
0
 45
1.0
 46
1.0
 77
1
  4

 78
1
 79
1
170
1
 48
1.0
171
1
  6

172
1
173
1
174
1
140
1.0
141
1.0
175
1
  7

176
1
177
1
178
1
143
1.0
179
1
  8

270
1
271
1
272
1
145
1.0
146
1.0
273
1
  9

274
1
275
1
276
1
 42
1.0
 72
1
  3

 73
1
 74
1
 75
1
 94
63
  0
MATERIAL
  5
20
102
{ACAD_REACTORS
330
E
102
}
330
E
100
AcDbMaterial
  1
ByLayer
  2

 70
0
 40
1.0
 71
1
 41
1.0
 91
-1023410177
 42
1.0
 72
1
  3

 73
1
 74
1
 75
1
 44
0.5
 73
0
 45
1.0
 46
1.0
 77
1
  4

 78
1
 79
1
170
1
 48
1.0
171
1
  6

172
1
173
1
174
1
140
1.0
141
1.0
175
1
  7

176
1
177
1
178
1
143
1.0
179
1
  8

270
1
271
1
272
1
145
1.0
146
1.0
273
1
  9

274
1
275
1
276
1
 42
1.0
 72
1
  3

 73
1
 74
1
 75
1
 94
63
  0
MATERIAL
  5
21
102
{ACAD_REACTORS
330
E
102
}
330
E
100
AcDbMaterial
  1
Global
  2

 70
0
 40
1.0
 71
1
 41
1.0
 91
-1023410177
 42
1.0
 72
1
  3

 73
1
 74
1
 75
1
 44
0.5
 73
0
 45
1.0
 46
1.0
 77
1
  4

 78
1
 79
1
170
1
 48
1.0
171
1
  6

172
1
173
1
174
1
140
1.0
141
1.0
175
1
  7

176
1
177
1
178
1
143
1.0
179
1
  8

270
1
271
1
272
1
145
1.0
146
1.0
273
1
  9

274
1
275
1
276
1
 42
1.0
 72
1
  3

 73
1
 74
1
 75
1
 94
63
  0
MLINESTYLE
  5
22
102
{ACAD_REACTORS
330
10
102
}
330
10
100
AcDbMlineStyle
  2
Standard
 70
0
  3

 62
256
 51
90.0
 52
90.0
 71
2
 49
0.5
 62
256
  6
BYLAYER
 49
-0.5
 62
256
  6
BYLAYER
  0
MLEADERSTYLE
  5
2C
102
{ACAD_REACTORS
330
F
102
}
330
F
100
AcDbMLeaderStyle
179
2
170
2
171
1
172
0
 90
2
 40
0.0
 41
0.0
173
1
 91
-1056964608
 92
-2
290
1
 42
2.0
291
1
 43
8.0
  3
Standard
 44
4.0
300

342
29
174
1
175
1
176
0
178
1
 93
-1056964608
 45
4.0
292
0
297
0
 46
4.0
 94
-1056964608
 47
1.0
 49
1.0
140
1.0
294
1
141
0.0
177
0
142
1.0
295
0
296
0
143
3.75
271
0
272
9
273
9
  0
DICTIONARY
  5
2D
330
A
100
AcDbDictionary
280
1
281
1
  3
CREATED_BY_EZDXF
350
2E
  3
WRITTEN_BY_EZDXF
350
16C
  0
DICTIONARYVAR
  5
2E
330
2D
100
DictionaryVariables
280
0
  1
1.4.4 @ 2026-10-08T12:36:46.674453+00:00
  0
DICTIONARYVAR
  5
16C
330
2D
100
DictionaryVariables
280
0
  1
1.4.4 @ 2026-10-08T12:36:46.692995+00:00
  0
ENDSEC
  0
EOF
