  0
SECTION
  2
HEADER
  9
$ACADVER
  1
AC1024
  9
$ACADMAINTVER
 70
6
  9
$DWGCODEPAGE
  3
ANSI_1252
  9
$LASTSAVEDBY
  1
ezdxf
  9
$INSBASE
 10
0.0
 20
0.0
 30
0.0
  9
$EXTMIN
 10
1e+20
 20
1e+20
 30
1e+20
  9
$EXTMAX
 10
-1e+20
 20
-1e+20
 30
-1e+20
  9
$LIMMIN
 10
0.0
 20
0.0
  9
$LIMMAX
 10
420.0
 20
297.0
  9
$ORTHOMODE
 70
0
  9
$REGENMODE
 70
1
  9
$FILLMODE
 70
1
  9
$QTEXTMODE
 70
0
  9
$MIRRTEXT
 70
1
  9
$LTSCALE
 40
1.0
  9
$ATTMODE
 70
1
  9
$TEXTSIZE
 40
2.5
  9
$TRACEWID
 40
1.0
  9
$TEXTSTYLE
  7
Standard
  9
$CLAYER
  8
0
  9
$CELTYPE
  6
ByLayer
  9
$CECOLOR
 62
256
  9
$CELTSCALE
 40
1.0
  9
$DISPSILH
 70
0
  9
$DIMSCALE
 40
1.0
  9
$DIMASZ
 40
2.5
  9
$DIMEXO
 40
0.625
  9
$DIMDLI
 40
3.75
  9
$DIMRND
 40
0.0
  9
$DIMDLE
 40
0.0
  9
$DIMEXE
 40
1.25
  9
$DIMTP
 40
0.0
  9
$DIMTM
 40
0.0
  9
$DIMTXT
 40
2.5
  9
$DIMCEN
 40
2.5
  9
$DIMTSZ
 40
0.0
  9
$DIMTOL
 70
0
  9
$DIMLIM
 70
0
  9
$DIMTIH
 70
0
  9
$DIMTOH
 70
0
  9
$DIMSE1
 70
0
  9
$DIMSE2
 70
0
  9
$DIMTAD
 70
1
  9
$DIMZIN
 70
8
  9
$DIMBLK
  1

  9
$DIMASO
 70
1
  9
$DIMSHO
 70
1
  9
$DIMPOST
  1

  9
$DIMAPOST
  1

  9
$DIMALT
 70
0
  9
$DIMALTD
 70
3
  9
$DIMALTF
 40
0.03937007874
  9
$DIMLFAC
 40
1.0
  9
$DIMTOFL
 70
1
  9
$DIMTVP
 40
0.0
  9
$DIMTIX
 70
0
  9
$DIMSOXD
 70
0
  9
$DIMSAH
 70
0
  9
$DIMBLK1
  1

  9
$DIMBLK2
  1

  9
$DIMSTYLE
  2
ISO-25
  9
$DIMCLRD
 70
0
  9
$DIMCLRE
 70
0
  9
$DIMCLRT
 70
0
  9
$DIMTFAC
 40
1.0
  9
$DIMGAP
 40
0.625
  9
$DIMJUST
 70
0
  9
$DIMSD1
 70
0
  9
$DIMSD2
 70
0
  9
$DIMTOLJ
 70
0
  9
$DIMTZIN
 70
8
  9
$DIMALTZ
 70
0
  9
$DIMALTTZ
 70
0
  9
$DIMUPT
 70
0
  9
$DIMDEC
 70
2
  9
$DIMTDEC
 70
2
  9
$DIMALTU
 70
2
  9
$DIMALTTD
 70
3
  9
$DIMTXSTY
  7
Standard
  9
$DIMAUNIT
 70
0
  9
$DIMADEC
 70
0
  9
$DIMALTRND
 40
0.0
  9
$DIMAZIN
 70
0
  9
$DIMDSEP
 70
44
  9
$DIMATFIT
 70
3
  9
$DIMFRAC
 70
0
  9
$DIMLDRBLK
  1

  9
$DIMLUNIT
 70
2
  9
$DIMLWD
 70
-2
  9
$DIMLWE
 70
-2
  9
$DIMTMOVE
 70
0
  9
$DIMFXL
 40
1.0
  9
$DIMFXLON
 70
0
  9
$DIMJOGANG
 40
0.785398163397
  9
$DIMTFILL
 70
0
  9
$DIMTFILLCLR
 70
0
  9
$DIMARCSYM
 70
0
  9
$DIMLTYPE
  6

  9
$DIMLTEX1
  6

  9
$DIMLTEX2
  6

  9
$DIMTXTDIRECTION
 70
0
  9
$LUNITS
 70
2
  9
$LUPREC
 70
4
  9
$SKETCHINC
 40
1.0
  9
$FILLETRAD
 40
10.0
  9
$AUNITS
 70
0
  9
$AUPREC
 70
2
  9
$MENU
  1
.
  9
$ELEVATION
 40
0.0
  9
$PELEVATION
 40
0.0
  9
$THICKNESS
 40
0.0
  9
$LIMCHECK
 70
0
  9
$CHAMFERA
 40
0.0
  9
$CHAMFERB
 40
0.0
  9
$CHAMFERC
 40
0.0
  9
$CHAMFERD
 40
0.0
  9
$SKPOLY
 70
0
  9
$TDCREATE
 40
2461321.442986111
  9
$TDUCREATE
 40
2458532.153996898
  9
$TDUPDATE
 40
2461321.442986111
  9
$TDUUPDATE
 40
2458532.1544311
  9
$TDINDWG
 40
0.0
  9
$TDUSRTIMER
 40
0.0
  9
$USRTIMER
 70
1
  9
$ANGBASE
 50
0.0
  9
$ANGDIR
 70
0
  9
$PDMODE
 70
0
  9
$PDSIZE
 40
0.0
  9
$PLINEWID
 40
0.0
  9
$SPLFRAME
 70
0
  9
$SPLINETYPE
 70
6
  9
$SPLINESEGS
 70
8
  9
$HANDSEED
  5
16E
  9
$SURFTAB1
 70
6
  9
$SURFTAB2
 70
6
  9
$SURFTYPE
 70
6
  9
$SURFU
 70
6
  9
$SURFV
 70
6
  9
$UCSBASE
  2

  9
$UCSNAME
  2

  9
$UCSORG
 10
0.0
 20
0.0
 30
0.0
  9
$UCSXDIR
 10
1.0
 20
0.0
 30
0.0
  9
$UCSYDIR
 10
0.0
 20
1.0
 30
0.0
  9
$UCSORTHOREF
  2

  9
$UCSORTHOVIEW
 70
0
  9
$UCSORGTOP
 10
0.0
 20
0.0
 30
0.0
  9
$UCSORGBOTTOM
 10
0.0
 20
0.0
 30
0.0
  9
$UCSORGLEFT
 10
0.0
 20
0.0
 30
0.0
  9
$UCSORGRIGHT
 10
0.0
 20
0.0
 30
0.0
  9
$UCSORGFRONT
 10
0.0
 20
0.0
 30
0.0
  9
$UCSORGBACK
 10
0.0
 20
0.0
 30
0.0
  9
$PUCSBASE
  2

  9
$PUCSNAME
  2

  9
$PUCSORG
 10
0.0
 20
0.0
 30
0.0
  9
$PUCSXDIR
 10
1.0
 20
0.0
 30
0.0
  9
$PUCSYDIR
 10
0.0
 20
1.0
 30
0.0
  9
$PUCSORTHOREF
  2

  9
$PUCSORTHOVIEW
 70
0
  9
$PUCSORGTOP
 10
0.0
 20
0.0
 30
0.0
  9
$PUCSORGBOTTOM
 10
0.0
 20
0.0
 30
0.0
  9
$PUCSORGLEFT
 10
0.0
 20
0.0
 30
0.0
  9
$PUCSORGRIGHT
 10
0.0
 20
0.0
 30
0.0
  9
$PUCSORGFRONT
 10
0.0
 20
0.0
 30
0.0
  9
$PUCSORGBACK
 10
0.0
 20
0.0
 30
0.0
  9
$USERI1
 70
0
  9
$USERI2
 70
0
  9
$USERI3
 70
0
  9
$USERI4
 70
0
  9
$USERI5
 70
0
  9
$USERR1
 40
0.0
  9
$USERR2
 40
0.0
  9
$USERR3
 40
0.0
  9
$USERR4
 40
0.0
  9
$USERR5
 40
0.0
  9
$WORLDVIEW
 70
1
  9
$SHADEDGE
 70
3
  9
$SHADEDIF
 70
70
  9
$TILEMODE
 70
1
  9
$MAXACTVP
 70
64
  9
$PINSBASE
 10
0.0
 20
0.0
 30
0.0
  9
$PLIMCHECK
 70
0
  9
$PEXTMIN
 10
1e+20
 20
1e+20
 30
1e+20
  9
$PEXTMAX
 10
-1e+20
 20
-1e+20
 30
-1e+20
  9
$PLIMMIN
 10
0.0
 20
0.0
  9
$PLIMMAX
 10
420.0
 20
297.0
  9
$UNITMODE
 70
0
  9
$VISRETAIN
 70
1
  9
$PLINEGEN
 70
0
  9
$PSLTSCALE
 70
1
  9
$TREEDEPTH
 70
3020
  9
$CMLSTYLE
  2
Standard
  9
$CMLJUST
 70
0
  9
$CMLSCALE
 40
20.0
  9
$PROXYGRAPHICS
 70
1
  9
$MEASUREMENT
 70
1
  9
$CELWEIGHT
370
-1
  9
$ENDCAPS
280
0
  9
$JOINSTYLE
280
0
  9
$LWDISPLAY
290
0
  9
$INSUNITS
 70
4
  9
$HYPERLINKBASE
  1

  9
$STYLESHEET
  1

  9
$XEDIT
290
1
  9
$CEPSNTYPE
380
0
  9
$PSTYLEMODE
290
1
  9
$FINGERPRINTGUID
  2
{0970B64D-AB10-4C38-BA80-DA16A00A5718}
  9
$VERSIONGUID
  2
{9C7AF334-1519-4A26-B9D7-9B5975AD91C0}
  9
$EXTNAMES
290
1
  9
$PSVPSCALE
 40
0.0
  9
$OLESTARTUP
290
0
  9
$SORTENTS
280
127
  9
$INDEXCTL
280
0
  9
$HIDETEXT
280
1
  9
$XCLIPFRAME
280
1
  9
$HALOGAP
280
0
  9
$OBSCOLOR
 70
257
  9
$OBSLTYPE
280
0
  9
$INTERSECTIONDISPLAY
280
0
  9
$INTERSECTIONCOLOR
 70
257
  9
$DIMASSOC
280
2
  9
$PROJECTNAME
  1

  9
$CAMERADISPLAY
290
0
  9
$LENSLENGTH
 40
50.0
  9
$CAMERAHEIGHT
 40
0.0
  9
$STEPSPERSEC
 40
24.0
  9
$STEPSIZE
 40
100.0
  9
$3DDWFPREC
 40
2.0
  9
$PSOLWIDTH
 40
0.005
  9
$PSOLHEIGHT
 40
0.08
  9
$LOFTANG1
 40
1.570796326795
  9
$LOFTANG2
 40
1.570796326795
  9
$LOFTMAG1
 40
0.0
  9
$LOFTMAG2
 40
0.0
  9
$LOFTPARAM
 70
7
  9
$LOFTNORMALS
280
1
  9
$LATITUDE
 40
37.795
  9
$LONGITUDE
 40
-122.394
  9
$NORTHDIRECTION
 40
0.0
  9
$TIMEZONE
 70
-8000
  9
$LIGHTGLYPHDISPLAY
280
1
  9
$TILEMODELIGHTSYNCH
280
1
  9
$CMATERIAL
347
20
  9
$SOLIDHIST
280
0
  9
$SHOWHIST
280
1
  9
$DWFFRAME
280
2
  9
$DGNFRAME
280
2
  9
$REALWORLDSCALE
290
1
  9
$INTERFERECOLOR
 62
256
  9
$CSHADOW
280
0
  9
$SHADOWPLANELOCATION
 40
0.0
  0
ENDSEC
  0
SECTION
  2
CLASSES
  0
CLASS
  1
ACDBDICTIONARYWDFLT
  2
AcDbDictionaryWithDefault
  3
ObjectDBX Classes
 90
0
 91
0
280
0
281
0
  0
CLASS
  1
SUN
  2
AcDbSun
  3
SCENEOE
 90
1153
 91
0
280
0
281
0
  0
CLASS
  1
VISUALSTYLE
  2
AcDbVisualStyle
  3
ObjectDBX Classes
 90
4095
 91
0
280
0
281
0
  0
CLASS
  1
MATERIAL
  2
AcDbMaterial
  3
ObjectDBX Classes
 90
1153
 91
0
280
0
281
0
  0
CLASS
  1
SCALE
  2
AcDbScale
  3
ObjectDBX Classes
 90
1153
 91
0
280
0
281
0
  0
CLASS
  1
TABLESTYLE
  2
AcDbTableStyle
  3
ObjectDBX Classes
 90
4095
 91
0
280
0
281
0
  0
CLASS
  1
MLEADERSTYLE
  2
AcDbMLeaderStyle
  3
ACDB_MLEADERSTYLE_CLASS
 90
4095
 91
0
280
0
281
0
  0
CLASS
  1
DICTIONARYVAR
  2
AcDbDictionaryVar
  3
ObjectDBX Classes
 90
0
 91
0
280
0
281
0
  0
CLASS
  1
CELLSTYLEMAP
  2
AcDbCellStyleMap
  3
ObjectDBX Classes
 90
1152
 91
0
280
0
281
0
  0
CLASS
  1
MENTALRAYRENDERSETTINGS
  2
AcDbMentalRayRenderSettings
  3
SCENEOE
 90
1024
 91
0
280
0
281
0
  0
CLASS
  1
ACDBDETAILVIEWSTYLE
  2
AcDbDetailViewStyle
  3
ObjectDBX Classes
 90
1025
 91
0
280
0
281
0
  0
CLASS
  1
ACDBSECTIONVIEWSTYLE
  2
AcDbSectionViewStyle
  3
ObjectDBX Classes
 90
1025
 91
0
280
0
281
0
  0
CLASS
  1
RASTERVARIABLES
  2
AcDbRasterVariables
  3
ISM
 90
0
 91
0
280
0
281
0
  0
CLASS
  1
LAYOUT
  2
AcDbLayout
  3
ObjectDBX Classes
 90
0
 91
0
280
0
281
0
  0
CLASS
  1
ACDBPLACEHOLDER
  2
AcDbPlaceHolder
  3
ObjectDBX Classes
 90
0
 91
0
280
0
281
0
  0
ENDSEC
  0
SECTION
  2
TABLES
  0
TABLE
  2
VPORT
  5
8
330
0
100
AcDbSymbolTable
 70
1
  0
VPORT
  5
23
330
8
100
AcDbSymbolTableRecord
100
AcDbViewportTableRecord
  2
*Active
 70
0
 10
0.0
 20
0.0
 11
1.0
 21
1.0
 12
0.0
 22
0.0
 13
0.0
 23
0.0
 14
0.5
 24
0.5
 15
0.5
 25
0.5
 16
0.0
 26
0.0
 36
1.0
 17
0.0
 27
0.0
 37
0.0
 40
1000.0
 41
1.34
 42
50.0
 43
0.0
 44
0.0
 50
0.0
 51
0.0
 71
0
 72
1000
 73
1
 74
3
 75
0
 76
0
 77
0
 78
0
281
0
 65
0
146
0.0
  0
ENDTAB
  0
TABLE
  2
LTYPE
  5
2
330
0
100
AcDbSymbolTable
 70
3
  0
LTYPE
  5
24
330
2
100
AcDbSymbolTableRecord
100
AcDbLinetypeTableRecord
  2
ByBlock
 70
0
  3

 72
65
 73
0
 40
0.0
  0
LTYPE
  5
25
330
2
100
AcDbSymbolTableRecord
100
AcDbLinetypeTableRecord
  2
ByLayer
 70
0
  3

 72
65
 73
0
 40
0.0
  0
LTYPE
  5
26
330
2
100
AcDbSymbolTableRecord
100
AcDbLinetypeTableRecord
  2
Continuous
 70
0
  3

 72
65
 73
0
 40
0.0
  0
ENDTAB
  0
TABLE
  2
LAYER
  5
1
330
0
100
AcDbSymbolTable
 70
7
  0
LAYER
  5
27
330
1
100
AcDbSymbolTableRecord
100
AcDbLayerTableRecord
  2
0
 70
0
 62
7
  6
Continuous
370
-3
390
13
347
21
  0
LAYER
  5
28
330
1
100
AcDbSymbolTableRecord
100
AcDbLayerTableRecord
  2
Defpoints
 70
0
 62
7
  6
Continuous
290
0
370
-3
390
13
347
21
  0
LAYER
  5
2F
330
1
100
AcDbSymbolTableRecord
100
AcDbLayerTableRecord
  2
IMPL_FLOOR_2F
 70
0
 62
4
  6
Continuous
370
-3
390
13
347
21
  0
LAYER
  5
30
330
1
100
AcDbSymbolTableRecord
100
AcDbLayerTableRecord
  2
IMPL_COLLIDER
 70
0
 62
8
  6
Continuous
370
-3
390
13
347
21
  0
LAYER
  5
31
330
1
100
AcDbSymbolTableRecord
100
AcDbLayerTableRecord
  2
IMPL_GUARD
 70
0
 62
3
  6
Continuous
370
-3
390
13
347
21
  0
LAYER
  5
32
330
1
100
AcDbSymbolTableRecord
100
AcDbLayerTableRecord
  2
SOURCE_ZONE
 70
0
 62
7
  6
Continuous
370
-3
390
13
347
21
  0
LAYER
  5
33
330
1
100
AcDbSymbolTableRecord
100
AcDbLayerTableRecord
  2
NOTES
 70
0
 62
2
  6
Continuous
370
-3
390
13
347
21
  0
ENDTAB
  0
TABLE
  2
STYLE
  5
5
330
0
100
AcDbSymbolTable
 70
1
  0
STYLE
  5
29
330
5
100
AcDbSymbolTableRecord
100
AcDbTextStyleTableRecord
  2
Standard
 70
0
 40
0.0
 41
1.0
 50
0.0
 71
0
 42
2.5
  3
txt
  4

  0
ENDTAB
  0
TABLE
  2
VIEW
  5
7
330
0
100
AcDbSymbolTable
 70
0
  0
ENDTAB
  0
TABLE
  2
UCS
  5
6
330
0
100
AcDbSymbolTable
 70
0
  0
ENDTAB
  0
TABLE
  2
APPID
  5
3
330
0
100
AcDbSymbolTable
 70
3
  0
APPID
  5
2A
330
3
100
AcDbSymbolTableRecord
100
AcDbRegAppTableRecord
  2
ACAD
 70
0
  0
APPID
  5
16B
330
3
100
AcDbSymbolTableRecord
100
AcDbRegAppTableRecord
  2
HATCHBACKGROUNDCOLOR
 70
0
  0
APPID
  5
16C
330
3
100
AcDbSymbolTableRecord
100
AcDbRegAppTableRecord
  2
EZDXF
 70
0
  0
ENDTAB
  0
TABLE
  2
DIMSTYLE
  5
4
330
0
100
AcDbSymbolTable
 70
1
100
AcDbDimStyleTable
  0
DIMSTYLE
105
2B
330
4
100
AcDbSymbolTableRecord
100
AcDbDimStyleTableRecord
  2
Standard
 70
0
 40
1.0
 41
2.5
 42
0.625
 43
3.75
 44
1.25
 45
0.0
 46
0.0
 47
0.0
 48
0.0
 49
2.5
140
2.5
141
2.5
142
0.0
143
0.03937007874
144
1.0
145
0.0
146
1.0
147
0.625
148
0.0
 69
0
 70
0
 71
0
 72
0
 73
0
 74
0
 75
0
 76
0
 77
1
 78
8
 79
3
170
0
171
3
172
1
173
0
174
0
175
0
176
0
177
0
178
0
179
2
271
2
272
2
273
2
274
3
275
0
276
0
277
2
278
44
279
0
280
0
281
0
282
0
283
0
284
8
285
0
286
0
288
0
289
3
290
0
371
-2
372
-2
  0
ENDTAB
  0
TABLE
  2
BLOCK_RECORD
  5
9
330
0
100
AcDbSymbolTable
 70
2
  0
BLOCK_RECORD
  5
17
330
9
100
AcDbSymbolTableRecord
100
AcDbBlockTableRecord
  2
*Model_Space
340
1A
 70
0
280
1
281
0
  0
BLOCK_RECORD
  5
1B
330
9
100
AcDbSymbolTableRecord
100
AcDbBlockTableRecord
  2
*Paper_Space
340
1E
 70
0
280
1
281
0
  0
ENDTAB
  0
ENDSEC
  0
SECTION
  2
BLOCKS
  0
BLOCK
  5
18
330
17
100
AcDbEntity
  8
0
100
AcDbBlockBegin
  2
*Model_Space
 70
0
 10
0.0
 20
0.0
 30
0.0
  3
*Model_Space
  1

  0
ENDBLK
  5
19
330
17
100
AcDbEntity
  8
0
100
AcDbBlockEnd
  0
BLOCK
  5
1C
330
1B
100
AcDbEntity
  8
0
100
AcDbBlockBegin
  2
*Paper_Space
 70
0
 10
0.0
 20
0.0
 30
0.0
  3
*Paper_Space
  1

  0
ENDBLK
  5
1D
330
1B
100
AcDbEntity
  8
0
100
AcDbBlockEnd
  0
ENDSEC
  0
SECTION
  2
ENTITIES
  0
LWPOLYLINE
  5
34
330
17
100
AcDbEntity
  8
SOURCE_ZONE
100
AcDbPolyline
 90
4
 70
1
 10
500.0
 20
4200.0
 10
8800.0
 20
4200.0
 10
8800.0
 20
16800.0
 10
500.0
 20
16800.0
  0
LWPOLYLINE
  5
35
330
17
100
AcDbEntity
  8
SOURCE_ZONE
100
AcDbPolyline
 90
4
 70
1
 10
8800.0
 20
15300.0
 10
19500.0
 20
15300.0
 10
19500.0
 20
17550.0
 10
8800.0
 20
17550.0
  0
LWPOLYLINE
  5
36
330
17
100
AcDbEntity
  8
SOURCE_ZONE
100
AcDbPolyline
 90
4
 70
1
 10
11000.0
 20
12600.0
 10
17000.0
 20
12600.0
 10
17000.0
 20
15800.0
 10
11000.0
 20
15800.0
  0
LWPOLYLINE
  5
37
330
17
100
AcDbEntity
  8
SOURCE_ZONE
100
AcDbPolyline
 90
4
 70
1
 10
20000.0
 20
9000.0
 10
27500.0
 20
9000.0
 10
27500.0
 20
16800.0
 10
20000.0
 20
16800.0
  0
LWPOLYLINE
  5
38
330
17
100
AcDbEntity
  8
SOURCE_ZONE
100
AcDbPolyline
 90
4
 70
1
 10
20000.0
 20
1000.0
 10
27500.0
 20
1000.0
 10
27500.0
 20
7800.0
 10
20000.0
 20
7800.0
  0
LWPOLYLINE
  5
39
330
17
100
AcDbEntity
  8
SOURCE_ZONE
100
AcDbPolyline
 90
4
 70
1
 10
8800.0
 20
2600.0
 10
20000.0
 20
2600.0
 10
20000.0
 20
5000.0
 10
8800.0
 20
5000.0
  0
LWPOLYLINE
  5
3A
330
17
100
AcDbEntity
  8
IMPL_COLLIDER
100
AcDbPolyline
 90
4
 70
1
 10
0.0
 20
0.0
 10
28000.0
 20
0.0
 10
28000.0
 20
18000.0
 10
0.0
 20
18000.0
  0
LWPOLYLINE
  5
3B
330
17
100
AcDbEntity
  8
IMPL_COLLIDER
100
AcDbPolyline
 90
4
 70
1
 10
0.0
 20
250.0
 10
250.0
 20
250.0
 10
250.0
 20
17750.0
 10
0.0
 20
17750.0
  0
LWPOLYLINE
  5
3C
330
17
100
AcDbEntity
  8
IMPL_COLLIDER
100
AcDbPolyline
 90
4
 70
1
 10
0.0
 20
17750.0
 10
28000.0
 20
17750.0
 10
28000.0
 20
18000.0
 10
0.0
 20
18000.0
  0
LWPOLYLINE
  5
3D
330
17
100
AcDbEntity
  8
IMPL_COLLIDER
100
AcDbPolyline
 90
4
 70
1
 10
0.0
 20
0.0
 10
11500.0
 20
0.0
 10
11500.0
 20
250.0
 10
0.0
 20
250.0
  0
LWPOLYLINE
  5
3E
330
17
100
AcDbEntity
  8
IMPL_COLLIDER
100
AcDbPolyline
 90
4
 70
1
 10
16500.0
 20
0.0
 10
28000.0
 20
0.0
 10
28000.0
 20
250.0
 10
16500.0
 20
250.0
  0
LWPOLYLINE
  5
3F
330
17
100
AcDbEntity
  8
IMPL_COLLIDER
100
AcDbPolyline
 90
4
 70
1
 10
27750.0
 20
0.0
 10
28000.0
 20
0.0
 10
28000.0
 20
18000.0
 10
27750.0
 20
18000.0
  0
LWPOLYLINE
  5
40
330
17
100
AcDbEntity
  8
IMPL_FLOOR_2F
100
AcDbPolyline
 90
4
 70
1
 10
500.0
 20
4199.999999999999
 10
7000.0
 20
4199.999999999999
 10
7000.0
 20
16800.0
 10
500.0
 20
16800.0
  0
LWPOLYLINE
  5
41
330
17
100
AcDbEntity
  8
IMPL_FLOOR_2F
100
AcDbPolyline
 90
4
 70
1
 10
7000.0
 20
4199.999999999999
 10
8800.0
 20
4199.999999999999
 10
8800.0
 20
11800.0
 10
7000.0
 20
11800.0
  0
LWPOLYLINE
  5
42
330
17
100
AcDbEntity
  8
IMPL_FLOOR_2F
100
AcDbPolyline
 90
4
 70
1
 10
7000.0
 20
16100.000000000002
 10
8800.0
 20
16100.000000000002
 10
8800.0
 20
17550.000000000004
 10
7000.0
 20
17550.000000000004
  0
LWPOLYLINE
  5
43
330
17
100
AcDbEntity
  8
IMPL_FLOOR_2F
100
AcDbPolyline
 90
4
 70
1
 10
500.0
 20
16800.0
 10
7000.0
 20
16800.0
 10
7000.0
 20
17550.0
 10
500.0
 20
17550.0
  0
LWPOLYLINE
  5
44
330
17
100
AcDbEntity
  8
IMPL_FLOOR_2F
100
AcDbPolyline
 90
4
 70
1
 10
8800.0
 20
2599.9999999999995
 10
20000.0
 20
2599.9999999999995
 10
20000.0
 20
5000.0
 10
8800.0
 20
5000.0
  0
LWPOLYLINE
  5
45
330
17
100
AcDbEntity
  8
IMPL_FLOOR_2F
100
AcDbPolyline
 90
4
 70
1
 10
7000.0
 20
2600.0000000000005
 10
8800.0
 20
2600.0000000000005
 10
8800.0
 20
4200.0
 10
7000.0
 20
4200.0
  0
LWPOLYLINE
  5
46
330
17
100
AcDbEntity
  8
IMPL_FLOOR_2F
100
AcDbPolyline
 90
4
 70
1
 10
8800.0
 20
15300.0
 10
19500.0
 20
15300.0
 10
19500.0
 20
17550.0
 10
8800.0
 20
17550.0
  0
LWPOLYLINE
  5
47
330
17
100
AcDbEntity
  8
IMPL_FLOOR_2F
100
AcDbPolyline
 90
4
 70
1
 10
19500.0
 20
14999.999999999998
 10
21299.999999999996
 20
14999.999999999998
 10
21299.999999999996
 20
17549.999999999996
 10
19500.0
 20
17549.999999999996
  0
LWPOLYLINE
  5
48
330
17
100
AcDbEntity
  8
IMPL_FLOOR_2F
100
AcDbPolyline
 90
4
 70
1
 10
21299.999999999996
 20
9000.0
 10
27500.0
 20
9000.0
 10
27500.0
 20
16800.0
 10
21299.999999999996
 20
16800.0
  0
LWPOLYLINE
  5
49
330
17
100
AcDbEntity
  8
IMPL_FLOOR_2F
100
AcDbPolyline
 90
4
 70
1
 10
20000.0
 20
13500.0
 10
21299.999999999996
 20
13500.0
 10
21299.999999999996
 20
15000.0
 10
20000.0
 20
15000.0
  0
LWPOLYLINE
  5
4A
330
17
100
AcDbEntity
  8
IMPL_FLOOR_2F
100
AcDbPolyline
 90
4
 70
1
 10
21299.999999999996
 20
7800.000000000001
 10
27500.0
 20
7800.000000000001
 10
27500.0
 20
9000.0
 10
21299.999999999996
 20
9000.0
  0
LWPOLYLINE
  5
4B
330
17
100
AcDbEntity
  8
IMPL_FLOOR_2F
100
AcDbPolyline
 90
4
 70
1
 10
20000.0
 20
1000.0
 10
27500.0
 20
1000.0
 10
27500.0
 20
7000.0
 10
20000.0
 20
7000.0
  0
LWPOLYLINE
  5
4C
330
17
100
AcDbEntity
  8
IMPL_FLOOR_2F
100
AcDbPolyline
 90
4
 70
1
 10
21299.999999999996
 20
7000.0
 10
27500.0
 20
7000.0
 10
27500.0
 20
7800.000000000001
 10
21299.999999999996
 20
7800.000000000001
  0
LWPOLYLINE
  5
4D
330
17
100
AcDbEntity
  8
IMPL_FLOOR_2F
100
AcDbPolyline
 90
4
 70
1
 10
11000.0
 20
12599.999999999998
 10
17000.0
 20
12599.999999999998
 10
17000.0
 20
15300.0
 10
11000.0
 20
15300.0
  0
LWPOLYLINE
  5
4E
330
17
100
AcDbEntity
  8
IMPL_GUARD
100
AcDbPolyline
 90
4
 70
1
 10
8755.000190734863
 20
4999.999556821936
 10
8845.000190734863
 20
4999.999556821936
 10
8845.000190734863
 20
11799.99968023861
 10
8755.000190734863
 20
11799.99968023861
  0
LWPOLYLINE
  5
4F
330
17
100
AcDbEntity
  8
IMPL_GUARD
100
AcDbPolyline
 90
4
 70
1
 10
8799.999734333585
 20
4955.0
 10
19999.99950272696
 20
4955.0
 10
19999.99950272696
 20
5045.0
 10
8799.999734333585
 20
5045.0
  0
LWPOLYLINE
  5
50
330
17
100
AcDbEntity
  8
IMPL_GUARD
100
AcDbPolyline
 90
4
 70
1
 10
7000.0
 20
2554.9999046325684
 10
20000.0
 20
2554.9999046325684
 10
20000.0
 20
2644.9999046325684
 10
7000.0
 20
2644.9999046325684
  0
LWPOLYLINE
  5
51
330
17
100
AcDbEntity
  8
IMPL_GUARD
100
AcDbPolyline
 90
4
 70
1
 10
11000.0
 20
12555.000381469727
 10
17000.0
 20
12555.000381469727
 10
17000.0
 20
12645.000381469727
 10
11000.0
 20
12645.000381469727
  0
LWPOLYLINE
  5
52
330
17
100
AcDbEntity
  8
IMPL_GUARD
100
AcDbPolyline
 90
4
 70
1
 10
10955.0
 20
12600.00085477476
 10
11045.0
 20
12600.00085477476
 10
11045.0
 20
15300.000671104146
 10
10955.0
 20
15300.000671104146
  0
LWPOLYLINE
  5
53
330
17
100
AcDbEntity
  8
IMPL_GUARD
100
AcDbPolyline
 90
4
 70
1
 10
16955.0
 20
12600.00085477476
 10
17045.0
 20
12600.00085477476
 10
17045.0
 20
15300.000671104146
 10
16955.0
 20
15300.000671104146
  0
LWPOLYLINE
  5
54
330
17
100
AcDbEntity
  8
IMPL_GUARD
100
AcDbPolyline
 90
4
 70
1
 10
17000.0
 20
15255.000190734863
 10
19500.0
 20
15255.000190734863
 10
19500.0
 20
15345.000190734863
 10
17000.0
 20
15345.000190734863
  0
LWPOLYLINE
  5
55
330
17
100
AcDbEntity
  8
IMPL_GUARD
100
AcDbPolyline
 90
4
 70
1
 10
8799.999709562826
 20
15255.000190734863
 10
10999.999527497721
 20
15255.000190734863
 10
10999.999527497721
 20
15345.000190734863
 10
8799.999709562826
 20
15345.000190734863
  0
LWPOLYLINE
  5
56
330
17
100
AcDbEntity
  8
IMPL_GUARD
100
AcDbPolyline
 90
4
 70
1
 10
21254.999237060547
 20
7000.0
 10
21344.999237060547
 20
7000.0
 10
21344.999237060547
 20
13500.0
 10
21254.999237060547
 20
13500.0
  0
LWPOLYLINE
  5
57
330
17
100
AcDbEntity
  8
IMPL_GUARD
100
AcDbPolyline
 90
4
 70
1
 10
19955.0
 20
13500.0
 10
20045.0
 20
13500.0
 10
20045.0
 20
15000.0
 10
19955.0
 20
15000.0
  0
LWPOLYLINE
  5
58
330
17
100
AcDbEntity
  8
IMPL_GUARD
100
AcDbPolyline
 90
4
 70
1
 10
500.0
 20
4154.999809265137
 10
7000.0
 20
4154.999809265137
 10
7000.0
 20
4244.999809265137
 10
500.0
 20
4244.999809265137
  0
LWPOLYLINE
  5
59
330
17
100
AcDbEntity
  8
IMPL_GUARD
100
AcDbPolyline
 90
4
 70
1
 10
6955.0
 20
2599.9999031424536
 10
7045.0
 20
2599.9999031424536
 10
7045.0
 20
4199.999810755251
 10
6955.0
 20
4199.999810755251
  0
LWPOLYLINE
  5
5A
330
17
100
AcDbEntity
  8
IMPL_GUARD
100
AcDbPolyline
 90
4
 70
1
 10
500.00011375151485
 20
17504.999237060547
 10
8800.000076983348
 20
17504.999237060547
 10
8800.000076983348
 20
17594.999237060547
 10
500.00011375151485
 20
17594.999237060547
  0
LWPOLYLINE
  5
5B
330
17
100
AcDbEntity
  8
IMPL_GUARD
100
AcDbPolyline
 90
4
 70
1
 10
6955.0
 20
11800.000665354177
 10
7045.0
 20
11800.000665354177
 10
7045.0
 20
16100.00086052473
 10
6955.0
 20
16100.00086052473
  0
LWPOLYLINE
  5
5C
330
17
100
AcDbEntity
  8
IMPL_GUARD
100
AcDbPolyline
 90
4
 70
1
 10
6999.999994701815
 20
11755.000190734863
 10
8800.000196033048
 20
11755.000190734863
 10
8800.000196033048
 20
11845.000190734863
 10
6999.999994701815
 20
11845.000190734863
  0
LWPOLYLINE
  5
5D
330
17
100
AcDbEntity
  8
IMPL_GUARD
100
AcDbPolyline
 90
4
 70
1
 10
19999.999997249128
 20
6955.0
 10
21299.99923981142
 20
6955.0
 10
21299.99923981142
 20
7045.0
 10
19999.999997249128
 20
7045.0
  0
LWPOLYLINE
  5
5E
330
17
100
AcDbEntity
  8
IMPL_GUARD
100
AcDbPolyline
 90
4
 70
1
 10
21299.999212449624
 20
16754.999237060547
 10
27500.000024610923
 20
16754.999237060547
 10
27500.000024610923
 20
16844.999237060547
 10
21299.999212449624
 20
16844.999237060547
  0
LWPOLYLINE
  5
5F
330
17
100
AcDbEntity
  8
IMPL_COLLIDER
100
AcDbPolyline
 90
4
 70
1
 10
1299.9999999999998
 20
5600.0
 10
6600.0
 20
5600.0
 10
6600.0
 20
6500.0
 10
1299.9999999999998
 20
6500.0
  0
LWPOLYLINE
  5
60
330
17
100
AcDbEntity
  8
IMPL_COLLIDER
100
AcDbPolyline
 90
4
 70
1
 10
1299.9999999999998
 20
6499.999999999999
 10
2200.0
 20
6499.999999999999
 10
2200.0
 20
13899.999999999998
 10
1299.9999999999998
 20
13899.999999999998
  0
LWPOLYLINE
  5
61
330
17
100
AcDbEntity
  8
IMPL_COLLIDER
100
AcDbPolyline
 90
4
 70
1
 10
20000.0
 20
1100.0
 10
20100.0
 20
1100.0
 10
20100.0
 20
3900.0
 10
20000.0
 20
3900.0
  0
LWPOLYLINE
  5
62
330
17
100
AcDbEntity
  8
IMPL_COLLIDER
100
AcDbPolyline
 90
4
 70
1
 10
20000.0
 20
5400.0
 10
20100.0
 20
5400.0
 10
20100.0
 20
7000.0
 10
20000.0
 20
7000.0
  0
LWPOLYLINE
  5
63
330
17
100
AcDbEntity
  8
IMPL_COLLIDER
100
AcDbPolyline
 90
4
 70
1
 10
20000.0
 20
1000.0
 10
27500.0
 20
1000.0
 10
27500.0
 20
1100.0
 10
20000.0
 20
1100.0
  0
LWPOLYLINE
  5
64
330
17
100
AcDbEntity
  8
IMPL_COLLIDER
100
AcDbPolyline
 90
4
 70
1
 10
21299.999999999996
 20
7700.0
 10
27500.0
 20
7700.0
 10
27500.0
 20
7800.0
 10
21299.999999999996
 20
7800.0
  0
LWPOLYLINE
  5
65
330
17
100
AcDbEntity
  8
IMPL_COLLIDER
100
AcDbPolyline
 90
4
 70
1
 10
19349.999999999996
 20
15580.0
 10
27050.0
 20
15580.0
 10
27050.0
 20
15720.0
 10
19349.999999999996
 20
15720.0
  0
LWPOLYLINE
  5
66
330
17
100
AcDbEntity
  8
IMPL_COLLIDER
100
AcDbPolyline
 90
4
 70
1
 10
-64000.0
 20
0.0
 10
-28000.0
 20
0.0
 10
-28000.0
 20
26000.0
 10
-64000.0
 20
26000.0
  0
LWPOLYLINE
  5
67
330
17
100
AcDbEntity
  8
IMPL_COLLIDER
100
AcDbPolyline
 90
4
 70
1
 10
-64000.0
 20
0.0
 10
-63800.0
 20
0.0
 10
-63800.0
 20
26000.0
 10
-64000.0
 20
26000.0
  0
LWPOLYLINE
  5
68
330
17
100
AcDbEntity
  8
IMPL_COLLIDER
100
AcDbPolyline
 90
4
 70
1
 10
-28200.000000000004
 20
0.0
 10
-28000.0
 20
0.0
 10
-28000.0
 20
26000.0
 10
-28200.000000000004
 20
26000.0
  0
LWPOLYLINE
  5
69
330
17
100
AcDbEntity
  8
IMPL_COLLIDER
100
AcDbPolyline
 90
4
 70
1
 10
-63800.0
 20
0.0
 10
-28200.0
 20
0.0
 10
-28200.0
 20
200.0
 10
-63800.0
 20
200.0
  0
LWPOLYLINE
  5
6A
330
17
100
AcDbEntity
  8
IMPL_COLLIDER
100
AcDbPolyline
 90
4
 70
1
 10
-63800.0
 20
25799.999999999996
 10
-28200.0
 20
25799.999999999996
 10
-28200.0
 20
26000.0
 10
-63800.0
 20
26000.0
  0
LWPOLYLINE
  5
6B
330
17
100
AcDbEntity
  8
IMPL_COLLIDER
100
AcDbPolyline
 90
4
 70
1
 10
-64000.0
 20
0.0
 10
-28000.0
 20
0.0
 10
-28000.0
 20
6000.0
 10
-64000.0
 20
6000.0
  0
LWPOLYLINE
  5
6C
330
17
100
AcDbEntity
  8
IMPL_COLLIDER
100
AcDbPolyline
 90
4
 70
1
 10
-64000.0
 20
8000.0
 10
-28000.0
 20
8000.0
 10
-28000.0
 20
17000.0
 10
-64000.0
 20
17000.0
  0
LWPOLYLINE
  5
6D
330
17
100
AcDbEntity
  8
IMPL_COLLIDER
100
AcDbPolyline
 90
4
 70
1
 10
-64000.0
 20
19000.0
 10
-28000.0
 20
19000.0
 10
-28000.0
 20
26000.0
 10
-64000.0
 20
26000.0
  0
LWPOLYLINE
  5
6E
330
17
100
AcDbEntity
  8
IMPL_COLLIDER
100
AcDbPolyline
 90
4
 70
1
 10
-63800.0
 20
6000.0
 10
-28200.0
 20
6000.0
 10
-28200.0
 20
8000.0
 10
-63800.0
 20
8000.0
  0
LWPOLYLINE
  5
6F
330
17
100
AcDbEntity
  8
IMPL_COLLIDER
100
AcDbPolyline
 90
4
 70
1
 10
-63800.0
 20
17000.0
 10
-28200.0
 20
17000.0
 10
-28200.0
 20
19000.0
 10
-63800.0
 20
19000.0
  0
LWPOLYLINE
  5
70
330
17
100
AcDbEntity
  8
IMPL_COLLIDER
100
AcDbPolyline
 90
4
 70
1
 10
-63120.0
 20
880.0
 10
-62880.0
 20
880.0
 10
-62880.0
 20
1120.0
 10
-63120.0
 20
1120.0
  0
LWPOLYLINE
  5
71
330
17
100
AcDbEntity
  8
IMPL_COLLIDER
100
AcDbPolyline
 90
4
 70
1
 10
-63170.0
 20
830.0
 10
-62830.0
 20
830.0
 10
-62830.0
 20
1170.0
 10
-63170.0
 20
1170.0
  0
LWPOLYLINE
  5
72
330
17
100
AcDbEntity
  8
IMPL_COLLIDER
100
AcDbPolyline
 90
4
 70
1
 10
-63120.0
 20
8880.0
 10
-62880.0
 20
8880.0
 10
-62880.0
 20
9120.0
 10
-63120.0
 20
9120.0
  0
LWPOLYLINE
  5
73
330
17
100
AcDbEntity
  8
IMPL_COLLIDER
100
AcDbPolyline
 90
4
 70
1
 10
-63170.0
 20
8830.0
 10
-62830.0
 20
8830.0
 10
-62830.0
 20
9170.0
 10
-63170.0
 20
9170.0
  0
LWPOLYLINE
  5
74
330
17
100
AcDbEntity
  8
IMPL_COLLIDER
100
AcDbPolyline
 90
4
 70
1
 10
-63120.0
 20
16880.0
 10
-62880.0
 20
16880.0
 10
-62880.0
 20
17120.0
 10
-63120.0
 20
17120.0
  0
LWPOLYLINE
  5
75
330
17
100
AcDbEntity
  8
IMPL_COLLIDER
100
AcDbPolyline
 90
4
 70
1
 10
-63170.0
 20
16830.0
 10
-62830.0
 20
16830.0
 10
-62830.0
 20
17170.0
 10
-63170.0
 20
17170.0
  0
LWPOLYLINE
  5
76
330
17
100
AcDbEntity
  8
IMPL_COLLIDER
100
AcDbPolyline
 90
4
 70
1
 10
-63120.0
 20
24880.0
 10
-62880.0
 20
24880.0
 10
-62880.0
 20
25120.0
 10
-63120.0
 20
25120.0
  0
LWPOLYLINE
  5
77
330
17
100
AcDbEntity
  8
IMPL_COLLIDER
100
AcDbPolyline
 90
4
 70
1
 10
-63170.0
 20
24830.0
 10
-62830.0
 20
24830.0
 10
-62830.0
 20
25170.0
 10
-63170.0
 20
25170.0
  0
LWPOLYLINE
  5
78
330
17
100
AcDbEntity
  8
IMPL_COLLIDER
100
AcDbPolyline
 90
4
 70
1
 10
-29120.0
 20
880.0
 10
-28880.0
 20
880.0
 10
-28880.0
 20
1120.0
 10
-29120.0
 20
1120.0
  0
LWPOLYLINE
  5
79
330
17
100
AcDbEntity
  8
IMPL_COLLIDER
100
AcDbPolyline
 90
4
 70
1
 10
-29170.0
 20
830.0
 10
-28830.0
 20
830.0
 10
-28830.0
 20
1170.0
 10
-29170.0
 20
1170.0
  0
LWPOLYLINE
  5
7A
330
17
100
AcDbEntity
  8
IMPL_COLLIDER
100
AcDbPolyline
 90
4
 70
1
 10
-29120.0
 20
8880.0
 10
-28880.0
 20
8880.0
 10
-28880.0
 20
9120.0
 10
-29120.0
 20
9120.0
  0
LWPOLYLINE
  5
7B
330
17
100
AcDbEntity
  8
IMPL_COLLIDER
100
AcDbPolyline
 90
4
 70
1
 10
-29170.0
 20
8830.0
 10
-28830.0
 20
8830.0
 10
-28830.0
 20
9170.0
 10
-29170.0
 20
9170.0
  0
LWPOLYLINE
  5
7C
330
17
100
AcDbEntity
  8
IMPL_COLLIDER
100
AcDbPolyline
 90
4
 70
1
 10
-29120.0
 20
16880.0
 10
-28880.0
 20
16880.0
 10
-28880.0
 20
17120.0
 10
-29120.0
 20
17120.0
  0
LWPOLYLINE
  5
7D
330
17
100
AcDbEntity
  8
IMPL_COLLIDER
100
AcDbPolyline
 90
4
 70
1
 10
-29170.0
 20
16830.0
 10
-28830.0
 20
16830.0
 10
-28830.0
 20
17170.0
 10
-29170.0
 20
17170.0
  0
LWPOLYLINE
  5
7E
330
17
100
AcDbEntity
  8
IMPL_COLLIDER
100
AcDbPolyline
 90
4
 70
1
 10
-29120.0
 20
24880.0
 10
-28880.0
 20
24880.0
 10
-28880.0
 20
25120.0
 10
-29120.0
 20
25120.0
  0
LWPOLYLINE
  5
7F
330
17
100
AcDbEntity
  8
IMPL_COLLIDER
100
AcDbPolyline
 90
4
 70
1
 10
-29170.0
 20
24830.0
 10
-28830.0
 20
24830.0
 10
-28830.0
 20
25170.0
 10
-29170.0
 20
25170.0
  0
LWPOLYLINE
  5
80
330
17
100
AcDbEntity
  8
IMPL_COLLIDER
100
AcDbPolyline
 90
4
 70
1
 10
-54090.0
 20
7220.0
 10
-53910.0
 20
7220.0
 10
-53910.0
 20
7399.999999999999
 10
-54090.0
 20
7399.999999999999
  0
LWPOLYLINE
  5
81
330
17
100
AcDbEntity
  8
IMPL_COLLIDER
100
AcDbPolyline
 90
4
 70
1
 10
-54090.0
 20
7220.0
 10
-53910.0
 20
7220.0
 10
-53910.0
 20
7399.999999999999
 10
-54090.0
 20
7399.999999999999
  0
LWPOLYLINE
  5
82
330
17
100
AcDbEntity
  8
IMPL_COLLIDER
100
AcDbPolyline
 90
4
 70
1
 10
-54350.0
 20
7109.999999999999
 10
-53650.0
 20
7109.999999999999
 10
-53650.0
 20
7510.0
 10
-54350.0
 20
7510.0
  0
LWPOLYLINE
  5
83
330
17
100
AcDbEntity
  8
IMPL_COLLIDER
100
AcDbPolyline
 90
4
 70
1
 10
-54090.0
 20
10600.0
 10
-53910.0
 20
10600.0
 10
-53910.0
 20
10780.0
 10
-54090.0
 20
10780.0
  0
LWPOLYLINE
  5
84
330
17
100
AcDbEntity
  8
IMPL_COLLIDER
100
AcDbPolyline
 90
4
 70
1
 10
-54090.0
 20
10600.0
 10
-53910.0
 20
10600.0
 10
-53910.0
 20
10780.0
 10
-54090.0
 20
10780.0
  0
LWPOLYLINE
  5
85
330
17
100
AcDbEntity
  8
IMPL_COLLIDER
100
AcDbPolyline
 90
4
 70
1
 10
-54350.0
 20
10490.0
 10
-53650.0
 20
10490.0
 10
-53650.0
 20
10889.999999999998
 10
-54350.0
 20
10889.999999999998
  0
LWPOLYLINE
  5
86
330
17
100
AcDbEntity
  8
IMPL_COLLIDER
100
AcDbPolyline
 90
4
 70
1
 10
-54090.0
 20
7400.0
 10
-53910.0
 20
7400.0
 10
-53910.0
 20
10600.0
 10
-54090.0
 20
10600.0
  0
LWPOLYLINE
  5
87
330
17
100
AcDbEntity
  8
IMPL_COLLIDER
100
AcDbPolyline
 90
4
 70
1
 10
-54090.0
 20
7400.0
 10
-53910.0
 20
7400.0
 10
-53910.0
 20
10600.0
 10
-54090.0
 20
10600.0
  0
LWPOLYLINE
  5
88
330
17
100
AcDbEntity
  8
IMPL_COLLIDER
100
AcDbPolyline
 90
4
 70
1
 10
-54060.0
 20
8475.0
 10
-53940.0
 20
8475.0
 10
-53940.0
 20
9525.0
 10
-54060.0
 20
9525.0
  0
LWPOLYLINE
  5
89
330
17
100
AcDbEntity
  8
IMPL_COLLIDER
100
AcDbPolyline
 90
4
 70
1
 10
-43090.0
 20
7220.0
 10
-42910.0
 20
7220.0
 10
-42910.0
 20
7399.999999999999
 10
-43090.0
 20
7399.999999999999
  0
LWPOLYLINE
  5
8A
330
17
100
AcDbEntity
  8
IMPL_COLLIDER
100
AcDbPolyline
 90
4
 70
1
 10
-43090.0
 20
7220.0
 10
-42910.0
 20
7220.0
 10
-42910.0
 20
7399.999999999999
 10
-43090.0
 20
7399.999999999999
  0
LWPOLYLINE
  5
8B
330
17
100
AcDbEntity
  8
IMPL_COLLIDER
100
AcDbPolyline
 90
4
 70
1
 10
-43350.0
 20
7109.999999999999
 10
-42650.0
 20
7109.999999999999
 10
-42650.0
 20
7510.0
 10
-43350.0
 20
7510.0
  0
LWPOLYLINE
  5
8C
330
17
100
AcDbEntity
  8
IMPL_COLLIDER
100
AcDbPolyline
 90
4
 70
1
 10
-43090.0
 20
10600.0
 10
-42910.0
 20
10600.0
 10
-42910.0
 20
10780.0
 10
-43090.0
 20
10780.0
  0
LWPOLYLINE
  5
8D
330
17
100
AcDbEntity
  8
IMPL_COLLIDER
100
AcDbPolyline
 90
4
 70
1
 10
-43090.0
 20
10600.0
 10
-42910.0
 20
10600.0
 10
-42910.0
 20
10780.0
 10
-43090.0
 20
10780.0
  0
LWPOLYLINE
  5
8E
330
17
100
AcDbEntity
  8
IMPL_COLLIDER
100
AcDbPolyline
 90
4
 70
1
 10
-43350.0
 20
10490.0
 10
-42650.0
 20
10490.0
 10
-42650.0
 20
10889.999999999998
 10
-43350.0
 20
10889.999999999998
  0
LWPOLYLINE
  5
8F
330
17
100
AcDbEntity
  8
IMPL_COLLIDER
100
AcDbPolyline
 90
4
 70
1
 10
-43090.0
 20
7400.0
 10
-42910.0
 20
7400.0
 10
-42910.0
 20
10600.0
 10
-43090.0
 20
10600.0
  0
LWPOLYLINE
  5
90
330
17
100
AcDbEntity
  8
IMPL_COLLIDER
100
AcDbPolyline
 90
4
 70
1
 10
-43090.0
 20
7400.0
 10
-42910.0
 20
7400.0
 10
-42910.0
 20
10600.0
 10
-43090.0
 20
10600.0
  0
LWPOLYLINE
  5
91
330
17
100
AcDbEntity
  8
IMPL_COLLIDER
100
AcDbPolyline
 90
4
 70
1
 10
-43060.0
 20
8475.0
 10
-42940.0
 20
8475.0
 10
-42940.0
 20
9525.0
 10
-43060.0
 20
9525.0
  0
LWPOLYLINE
  5
92
330
17
100
AcDbEntity
  8
IMPL_COLLIDER
100
AcDbPolyline
 90
4
 70
1
 10
-32400.000000000007
 20
12910.0
 10
-32220.0
 20
12910.0
 10
-32220.0
 20
13090.0
 10
-32400.000000000007
 20
13090.0
  0
LWPOLYLINE
  5
93
330
17
100
AcDbEntity
  8
IMPL_COLLIDER
100
AcDbPolyline
 90
4
 70
1
 10
-32400.000000000007
 20
12910.0
 10
-32220.0
 20
12910.0
 10
-32220.0
 20
13090.0
 10
-32400.000000000007
 20
13090.0
  0
LWPOLYLINE
  5
94
330
17
100
AcDbEntity
  8
IMPL_COLLIDER
100
AcDbPolyline
 90
4
 70
1
 10
-32510.000000000004
 20
12650.0
 10
-32110.0
 20
12650.0
 10
-32110.0
 20
13350.0
 10
-32510.000000000004
 20
13350.0
  0
LWPOLYLINE
  5
95
330
17
100
AcDbEntity
  8
IMPL_COLLIDER
100
AcDbPolyline
 90
4
 70
1
 10
-35780.0
 20
12910.0
 10
-35599.99999999999
 20
12910.0
 10
-35599.99999999999
 20
13090.0
 10
-35780.0
 20
13090.0
  0
LWPOLYLINE
  5
96
330
17
100
AcDbEntity
  8
IMPL_COLLIDER
100
AcDbPolyline
 90
4
 70
1
 10
-35780.0
 20
12910.0
 10
-35599.99999999999
 20
12910.0
 10
-35599.99999999999
 20
13090.0
 10
-35780.0
 20
13090.0
  0
LWPOLYLINE
  5
97
330
17
100
AcDbEntity
  8
IMPL_COLLIDER
100
AcDbPolyline
 90
4
 70
1
 10
-35890.0
 20
12650.0
 10
-35489.99999999999
 20
12650.0
 10
-35489.99999999999
 20
13350.0
 10
-35890.0
 20
13350.0
  0
LWPOLYLINE
  5
98
330
17
100
AcDbEntity
  8
IMPL_COLLIDER
100
AcDbPolyline
 90
4
 70
1
 10
-35600.0
 20
12910.0
 10
-32400.0
 20
12910.0
 10
-32400.0
 20
13090.0
 10
-35600.0
 20
13090.0
  0
LWPOLYLINE
  5
99
330
17
100
AcDbEntity
  8
IMPL_COLLIDER
100
AcDbPolyline
 90
4
 70
1
 10
-35600.0
 20
12910.0
 10
-32400.0
 20
12910.0
 10
-32400.0
 20
13090.0
 10
-35600.0
 20
13090.0
  0
LWPOLYLINE
  5
9A
330
17
100
AcDbEntity
  8
IMPL_COLLIDER
100
AcDbPolyline
 90
4
 70
1
 10
-34525.0
 20
12940.0
 10
-33475.0
 20
12940.0
 10
-33475.0
 20
13060.0
 10
-34525.0
 20
13060.0
  0
LWPOLYLINE
  5
9B
330
17
100
AcDbEntity
  8
IMPL_COLLIDER
100
AcDbPolyline
 90
4
 70
1
 10
-37090.0
 20
22600.0
 10
-36910.0
 20
22600.0
 10
-36910.0
 20
22780.0
 10
-37090.0
 20
22780.0
  0
LWPOLYLINE
  5
9C
330
17
100
AcDbEntity
  8
IMPL_COLLIDER
100
AcDbPolyline
 90
4
 70
1
 10
-37090.0
 20
22600.0
 10
-36910.0
 20
22600.0
 10
-36910.0
 20
22780.0
 10
-37090.0
 20
22780.0
  0
LWPOLYLINE
  5
9D
330
17
100
AcDbEntity
  8
IMPL_COLLIDER
100
AcDbPolyline
 90
4
 70
1
 10
-37350.0
 20
22490.000000000004
 10
-36650.0
 20
22490.000000000004
 10
-36650.0
 20
22890.0
 10
-37350.0
 20
22890.0
  0
LWPOLYLINE
  5
9E
330
17
100
AcDbEntity
  8
IMPL_COLLIDER
100
AcDbPolyline
 90
4
 70
1
 10
-37090.0
 20
19220.0
 10
-36910.0
 20
19220.0
 10
-36910.0
 20
19400.0
 10
-37090.0
 20
19400.0
  0
LWPOLYLINE
  5
9F
330
17
100
AcDbEntity
  8
IMPL_COLLIDER
100
AcDbPolyline
 90
4
 70
1
 10
-37090.0
 20
19220.0
 10
-36910.0
 20
19220.0
 10
-36910.0
 20
19400.0
 10
-37090.0
 20
19400.0
  0
LWPOLYLINE
  5
A0
330
17
100
AcDbEntity
  8
IMPL_COLLIDER
100
AcDbPolyline
 90
4
 70
1
 10
-37350.0
 20
19110.0
 10
-36650.0
 20
19110.0
 10
-36650.0
 20
19509.999999999996
 10
-37350.0
 20
19509.999999999996
  0
LWPOLYLINE
  5
A1
330
17
100
AcDbEntity
  8
IMPL_COLLIDER
100
AcDbPolyline
 90
4
 70
1
 10
-37090.0
 20
19400.0
 10
-36910.0
 20
19400.0
 10
-36910.0
 20
22600.0
 10
-37090.0
 20
22600.0
  0
LWPOLYLINE
  5
A2
330
17
100
AcDbEntity
  8
IMPL_COLLIDER
100
AcDbPolyline
 90
4
 70
1
 10
-37090.0
 20
19400.0
 10
-36910.0
 20
19400.0
 10
-36910.0
 20
22600.0
 10
-37090.0
 20
22600.0
  0
LWPOLYLINE
  5
A3
330
17
100
AcDbEntity
  8
IMPL_COLLIDER
100
AcDbPolyline
 90
4
 70
1
 10
-37060.0
 20
20475.0
 10
-36940.0
 20
20475.0
 10
-36940.0
 20
21525.0
 10
-37060.0
 20
21525.0
  0
LWPOLYLINE
  5
A4
330
17
100
AcDbEntity
  8
IMPL_COLLIDER
100
AcDbPolyline
 90
4
 70
1
 10
-44090.0
 20
23600.0
 10
-43910.0
 20
23600.0
 10
-43910.0
 20
23780.0
 10
-44090.0
 20
23780.0
  0
LWPOLYLINE
  5
A5
330
17
100
AcDbEntity
  8
IMPL_COLLIDER
100
AcDbPolyline
 90
4
 70
1
 10
-44090.0
 20
23600.0
 10
-43910.0
 20
23600.0
 10
-43910.0
 20
23780.0
 10
-44090.0
 20
23780.0
  0
LWPOLYLINE
  5
A6
330
17
100
AcDbEntity
  8
IMPL_COLLIDER
100
AcDbPolyline
 90
4
 70
1
 10
-44350.0
 20
23490.000000000004
 10
-43650.0
 20
23490.000000000004
 10
-43650.0
 20
23890.0
 10
-44350.0
 20
23890.0
  0
LWPOLYLINE
  5
A7
330
17
100
AcDbEntity
  8
IMPL_COLLIDER
100
AcDbPolyline
 90
4
 70
1
 10
-44090.0
 20
20220.0
 10
-43910.0
 20
20220.0
 10
-43910.0
 20
20400.0
 10
-44090.0
 20
20400.0
  0
LWPOLYLINE
  5
A8
330
17
100
AcDbEntity
  8
IMPL_COLLIDER
100
AcDbPolyline
 90
4
 70
1
 10
-44090.0
 20
20220.0
 10
-43910.0
 20
20220.0
 10
-43910.0
 20
20400.0
 10
-44090.0
 20
20400.0
  0
LWPOLYLINE
  5
A9
330
17
100
AcDbEntity
  8
IMPL_COLLIDER
100
AcDbPolyline
 90
4
 70
1
 10
-44350.0
 20
20110.0
 10
-43650.0
 20
20110.0
 10
-43650.0
 20
20509.999999999996
 10
-44350.0
 20
20509.999999999996
  0
LWPOLYLINE
  5
AA
330
17
100
AcDbEntity
  8
IMPL_COLLIDER
100
AcDbPolyline
 90
4
 70
1
 10
-44090.0
 20
20400.0
 10
-43910.0
 20
20400.0
 10
-43910.0
 20
23600.0
 10
-44090.0
 20
23600.0
  0
LWPOLYLINE
  5
AB
330
17
100
AcDbEntity
  8
IMPL_COLLIDER
100
AcDbPolyline
 90
4
 70
1
 10
-44090.0
 20
20400.0
 10
-43910.0
 20
20400.0
 10
-43910.0
 20
23600.0
 10
-44090.0
 20
23600.0
  0
LWPOLYLINE
  5
AC
330
17
100
AcDbEntity
  8
IMPL_COLLIDER
100
AcDbPolyline
 90
4
 70
1
 10
-44060.0
 20
21475.0
 10
-43940.0
 20
21475.0
 10
-43940.0
 20
22525.0
 10
-44060.0
 20
22525.0
  0
LWPOLYLINE
  5
AD
330
17
100
AcDbEntity
  8
IMPL_COLLIDER
100
AcDbPolyline
 90
4
 70
1
 10
-53090.0
 20
22600.0
 10
-52910.0
 20
22600.0
 10
-52910.0
 20
22780.0
 10
-53090.0
 20
22780.0
  0
LWPOLYLINE
  5
AE
330
17
100
AcDbEntity
  8
IMPL_COLLIDER
100
AcDbPolyline
 90
4
 70
1
 10
-53090.0
 20
22600.0
 10
-52910.0
 20
22600.0
 10
-52910.0
 20
22780.0
 10
-53090.0
 20
22780.0
  0
LWPOLYLINE
  5
AF
330
17
100
AcDbEntity
  8
IMPL_COLLIDER
100
AcDbPolyline
 90
4
 70
1
 10
-53350.0
 20
22490.000000000004
 10
-52650.0
 20
22490.000000000004
 10
-52650.0
 20
22890.0
 10
-53350.0
 20
22890.0
  0
LWPOLYLINE
  5
B0
330
17
100
AcDbEntity
  8
IMPL_COLLIDER
100
AcDbPolyline
 90
4
 70
1
 10
-53090.0
 20
19220.0
 10
-52910.0
 20
19220.0
 10
-52910.0
 20
19400.0
 10
-53090.0
 20
19400.0
  0
LWPOLYLINE
  5
B1
330
17
100
AcDbEntity
  8
IMPL_COLLIDER
100
AcDbPolyline
 90
4
 70
1
 10
-53090.0
 20
19220.0
 10
-52910.0
 20
19220.0
 10
-52910.0
 20
19400.0
 10
-53090.0
 20
19400.0
  0
LWPOLYLINE
  5
B2
330
17
100
AcDbEntity
  8
IMPL_COLLIDER
100
AcDbPolyline
 90
4
 70
1
 10
-53350.0
 20
19110.0
 10
-52650.0
 20
19110.0
 10
-52650.0
 20
19509.999999999996
 10
-53350.0
 20
19509.999999999996
  0
LWPOLYLINE
  5
B3
330
17
100
AcDbEntity
  8
IMPL_COLLIDER
100
AcDbPolyline
 90
4
 70
1
 10
-53090.0
 20
19400.0
 10
-52910.0
 20
19400.0
 10
-52910.0
 20
22600.0
 10
-53090.0
 20
22600.0
  0
LWPOLYLINE
  5
B4
330
17
100
AcDbEntity
  8
IMPL_COLLIDER
100
AcDbPolyline
 90
4
 70
1
 10
-53090.0
 20
19400.0
 10
-52910.0
 20
19400.0
 10
-52910.0
 20
22600.0
 10
-53090.0
 20
22600.0
  0
LWPOLYLINE
  5
B5
330
17
100
AcDbEntity
  8
IMPL_COLLIDER
100
AcDbPolyline
 90
4
 70
1
 10
-53060.0
 20
20475.0
 10
-52940.0
 20
20475.0
 10
-52940.0
 20
21525.0
 10
-53060.0
 20
21525.0
  0
LWPOLYLINE
  5
B6
330
17
100
AcDbEntity
  8
IMPL_COLLIDER
100
AcDbPolyline
 90
4
 70
1
 10
-59780.0
 20
17910.0
 10
-59599.99999999999
 20
17910.0
 10
-59599.99999999999
 20
18090.0
 10
-59780.0
 20
18090.0
  0
LWPOLYLINE
  5
B7
330
17
100
AcDbEntity
  8
IMPL_COLLIDER
100
AcDbPolyline
 90
4
 70
1
 10
-59780.0
 20
17910.0
 10
-59599.99999999999
 20
17910.0
 10
-59599.99999999999
 20
18090.0
 10
-59780.0
 20
18090.0
  0
LWPOLYLINE
  5
B8
330
17
100
AcDbEntity
  8
IMPL_COLLIDER
100
AcDbPolyline
 90
4
 70
1
 10
-59890.0
 20
17650.0
 10
-59489.99999999999
 20
17650.0
 10
-59489.99999999999
 20
18350.0
 10
-59890.0
 20
18350.0
  0
LWPOLYLINE
  5
B9
330
17
100
AcDbEntity
  8
IMPL_COLLIDER
100
AcDbPolyline
 90
4
 70
1
 10
-56400.00000000001
 20
17910.0
 10
-56220.0
 20
17910.0
 10
-56220.0
 20
18090.0
 10
-56400.00000000001
 20
18090.0
  0
LWPOLYLINE
  5
BA
330
17
100
AcDbEntity
  8
IMPL_COLLIDER
100
AcDbPolyline
 90
4
 70
1
 10
-56400.00000000001
 20
17910.0
 10
-56220.0
 20
17910.0
 10
-56220.0
 20
18090.0
 10
-56400.00000000001
 20
18090.0
  0
LWPOLYLINE
  5
BB
330
17
100
AcDbEntity
  8
IMPL_COLLIDER
100
AcDbPolyline
 90
4
 70
1
 10
-56510.00000000001
 20
17650.0
 10
-56110.0
 20
17650.0
 10
-56110.0
 20
18350.0
 10
-56510.00000000001
 20
18350.0
  0
LWPOLYLINE
  5
BC
330
17
100
AcDbEntity
  8
IMPL_COLLIDER
100
AcDbPolyline
 90
4
 70
1
 10
-59600.0
 20
17910.0
 10
-56400.0
 20
17910.0
 10
-56400.0
 20
18090.0
 10
-59600.0
 20
18090.0
  0
LWPOLYLINE
  5
BD
330
17
100
AcDbEntity
  8
IMPL_COLLIDER
100
AcDbPolyline
 90
4
 70
1
 10
-59600.0
 20
17910.0
 10
-56400.0
 20
17910.0
 10
-56400.0
 20
18090.0
 10
-59600.0
 20
18090.0
  0
LWPOLYLINE
  5
BE
330
17
100
AcDbEntity
  8
IMPL_COLLIDER
100
AcDbPolyline
 90
4
 70
1
 10
-58525.0
 20
17940.0
 10
-57475.0
 20
17940.0
 10
-57475.0
 20
18060.0
 10
-58525.0
 20
18060.0
  0
LWPOLYLINE
  5
BF
330
17
100
AcDbEntity
  8
IMPL_COLLIDER
100
AcDbPolyline
 90
4
 70
1
 10
-59780.0
 20
11910.0
 10
-59599.99999999999
 20
11910.0
 10
-59599.99999999999
 20
12090.0
 10
-59780.0
 20
12090.0
  0
LWPOLYLINE
  5
C0
330
17
100
AcDbEntity
  8
IMPL_COLLIDER
100
AcDbPolyline
 90
4
 70
1
 10
-59780.0
 20
11910.0
 10
-59599.99999999999
 20
11910.0
 10
-59599.99999999999
 20
12090.0
 10
-59780.0
 20
12090.0
  0
LWPOLYLINE
  5
C1
330
17
100
AcDbEntity
  8
IMPL_COLLIDER
100
AcDbPolyline
 90
4
 70
1
 10
-59890.0
 20
11650.0
 10
-59489.99999999999
 20
11650.0
 10
-59489.99999999999
 20
12350.0
 10
-59890.0
 20
12350.0
  0
LWPOLYLINE
  5
C2
330
17
100
AcDbEntity
  8
IMPL_COLLIDER
100
AcDbPolyline
 90
4
 70
1
 10
-56400.00000000001
 20
11910.0
 10
-56220.0
 20
11910.0
 10
-56220.0
 20
12090.0
 10
-56400.00000000001
 20
12090.0
  0
LWPOLYLINE
  5
C3
330
17
100
AcDbEntity
  8
IMPL_COLLIDER
100
AcDbPolyline
 90
4
 70
1
 10
-56400.00000000001
 20
11910.0
 10
-56220.0
 20
11910.0
 10
-56220.0
 20
12090.0
 10
-56400.00000000001
 20
12090.0
  0
LWPOLYLINE
  5
C4
330
17
100
AcDbEntity
  8
IMPL_COLLIDER
100
AcDbPolyline
 90
4
 70
1
 10
-56510.00000000001
 20
11650.0
 10
-56110.0
 20
11650.0
 10
-56110.0
 20
12350.0
 10
-56510.00000000001
 20
12350.0
  0
LWPOLYLINE
  5
C5
330
17
100
AcDbEntity
  8
IMPL_COLLIDER
100
AcDbPolyline
 90
4
 70
1
 10
-59600.0
 20
11910.0
 10
-56400.0
 20
11910.0
 10
-56400.0
 20
12090.0
 10
-59600.0
 20
12090.0
  0
LWPOLYLINE
  5
C6
330
17
100
AcDbEntity
  8
IMPL_COLLIDER
100
AcDbPolyline
 90
4
 70
1
 10
-59600.0
 20
11910.0
 10
-56400.0
 20
11910.0
 10
-56400.0
 20
12090.0
 10
-59600.0
 20
12090.0
  0
LWPOLYLINE
  5
C7
330
17
100
AcDbEntity
  8
IMPL_COLLIDER
100
AcDbPolyline
 90
4
 70
1
 10
-58525.0
 20
11940.0
 10
-57475.0
 20
11940.0
 10
-57475.0
 20
12060.0
 10
-58525.0
 20
12060.0
  0
LWPOLYLINE
  5
C8
330
17
100
AcDbEntity
  8
IMPL_COLLIDER
100
AcDbPolyline
 90
4
 70
1
 10
-63000.0
 20
5580.0
 10
-43500.0
 20
5580.0
 10
-43500.0
 20
5720.000000000001
 10
-63000.0
 20
5720.000000000001
  0
LWPOLYLINE
  5
C9
330
17
100
AcDbEntity
  8
IMPL_COLLIDER
100
AcDbPolyline
 90
4
 70
1
 10
-63000.0
 20
5610.0
 10
-43500.0
 20
5610.0
 10
-43500.0
 20
5690.0
 10
-63000.0
 20
5690.0
  0
LWPOLYLINE
  5
CA
330
17
100
AcDbEntity
  8
IMPL_COLLIDER
100
AcDbPolyline
 90
4
 70
1
 10
-41500.0
 20
5580.0
 10
-29000.0
 20
5580.0
 10
-29000.0
 20
5720.000000000001
 10
-41500.0
 20
5720.000000000001
  0
LWPOLYLINE
  5
CB
330
17
100
AcDbEntity
  8
IMPL_COLLIDER
100
AcDbPolyline
 90
4
 70
1
 10
-41500.0
 20
5610.0
 10
-29000.0
 20
5610.0
 10
-29000.0
 20
5690.0
 10
-41500.0
 20
5690.0
  0
LWPOLYLINE
  5
CC
330
17
100
AcDbEntity
  8
IMPL_COLLIDER
100
AcDbPolyline
 90
4
 70
1
 10
-61250.0
 20
3724.9999999999995
 10
-58750.0
 20
3724.9999999999995
 10
-58750.0
 20
4375.0
 10
-61250.0
 20
4375.0
  0
LWPOLYLINE
  5
CD
330
17
100
AcDbEntity
  8
IMPL_COLLIDER
100
AcDbPolyline
 90
4
 70
1
 10
-61035.0
 20
3809.9999999999995
 10
-60965.0
 20
3809.9999999999995
 10
-60965.0
 20
4290.0
 10
-61035.0
 20
4290.0
  0
LWPOLYLINE
  5
CE
330
17
100
AcDbEntity
  8
IMPL_COLLIDER
100
AcDbPolyline
 90
4
 70
1
 10
-59035.0
 20
3809.9999999999995
 10
-58965.0
 20
3809.9999999999995
 10
-58965.0
 20
4290.0
 10
-59035.0
 20
4290.0
  0
LWPOLYLINE
  5
CF
330
17
100
AcDbEntity
  8
IMPL_COLLIDER
100
AcDbPolyline
 90
4
 70
1
 10
-57250.0
 20
3724.9999999999995
 10
-54750.0
 20
3724.9999999999995
 10
-54750.0
 20
4375.0
 10
-57250.0
 20
4375.0
  0
LWPOLYLINE
  5
D0
330
17
100
AcDbEntity
  8
IMPL_COLLIDER
100
AcDbPolyline
 90
4
 70
1
 10
-57035.0
 20
3809.9999999999995
 10
-56965.0
 20
3809.9999999999995
 10
-56965.0
 20
4290.0
 10
-57035.0
 20
4290.0
  0
LWPOLYLINE
  5
D1
330
17
100
AcDbEntity
  8
IMPL_COLLIDER
100
AcDbPolyline
 90
4
 70
1
 10
-55035.0
 20
3809.9999999999995
 10
-54965.0
 20
3809.9999999999995
 10
-54965.0
 20
4290.0
 10
-55035.0
 20
4290.0
  0
LWPOLYLINE
  5
D2
330
17
100
AcDbEntity
  8
IMPL_COLLIDER
100
AcDbPolyline
 90
4
 70
1
 10
-53250.0
 20
3724.9999999999995
 10
-50750.0
 20
3724.9999999999995
 10
-50750.0
 20
4375.0
 10
-53250.0
 20
4375.0
  0
LWPOLYLINE
  5
D3
330
17
100
AcDbEntity
  8
IMPL_COLLIDER
100
AcDbPolyline
 90
4
 70
1
 10
-53035.0
 20
3809.9999999999995
 10
-52965.0
 20
3809.9999999999995
 10
-52965.0
 20
4290.0
 10
-53035.0
 20
4290.0
  0
LWPOLYLINE
  5
D4
330
17
100
AcDbEntity
  8
IMPL_COLLIDER
100
AcDbPolyline
 90
4
 70
1
 10
-51035.0
 20
3809.9999999999995
 10
-50965.0
 20
3809.9999999999995
 10
-50965.0
 20
4290.0
 10
-51035.0
 20
4290.0
  0
LWPOLYLINE
  5
D5
330
17
100
AcDbEntity
  8
IMPL_COLLIDER
100
AcDbPolyline
 90
4
 70
1
 10
-49250.0
 20
3724.9999999999995
 10
-46750.0
 20
3724.9999999999995
 10
-46750.0
 20
4375.0
 10
-49250.0
 20
4375.0
  0
LWPOLYLINE
  5
D6
330
17
100
AcDbEntity
  8
IMPL_COLLIDER
100
AcDbPolyline
 90
4
 70
1
 10
-49035.0
 20
3809.9999999999995
 10
-48965.0
 20
3809.9999999999995
 10
-48965.0
 20
4290.0
 10
-49035.0
 20
4290.0
  0
LWPOLYLINE
  5
D7
330
17
100
AcDbEntity
  8
IMPL_COLLIDER
100
AcDbPolyline
 90
4
 70
1
 10
-47035.0
 20
3809.9999999999995
 10
-46965.0
 20
3809.9999999999995
 10
-46965.0
 20
4290.0
 10
-47035.0
 20
4290.0
  0
LWPOLYLINE
  5
D8
330
17
100
AcDbEntity
  8
IMPL_COLLIDER
100
AcDbPolyline
 90
4
 70
1
 10
180000.0
 20
0.0
 10
500000.0
 20
0.0
 10
500000.0
 20
300000.0
 10
180000.0
 20
300000.0
  0
LWPOLYLINE
  5
D9
330
17
100
AcDbEntity
  8
IMPL_COLLIDER
100
AcDbPolyline
 90
4
 70
1
 10
180000.0
 20
0.0
 10
180700.0
 20
0.0
 10
180700.0
 20
300000.0
 10
180000.0
 20
300000.0
  0
LWPOLYLINE
  5
DA
330
17
100
AcDbEntity
  8
IMPL_COLLIDER
100
AcDbPolyline
 90
4
 70
1
 10
499299.99999999994
 20
0.0
 10
500000.0
 20
0.0
 10
500000.0
 20
300000.0
 10
499299.99999999994
 20
300000.0
  0
LWPOLYLINE
  5
DB
330
17
100
AcDbEntity
  8
IMPL_COLLIDER
100
AcDbPolyline
 90
4
 70
1
 10
180000.0
 20
0.0
 10
500000.0
 20
0.0
 10
500000.0
 20
700.0
 10
180000.0
 20
700.0
  0
LWPOLYLINE
  5
DC
330
17
100
AcDbEntity
  8
IMPL_COLLIDER
100
AcDbPolyline
 90
4
 70
1
 10
180000.0
 20
299299.99999999994
 10
500000.0
 20
299299.99999999994
 10
500000.0
 20
300000.0
 10
180000.0
 20
300000.0
  0
LWPOLYLINE
  5
DD
330
17
100
AcDbEntity
  8
IMPL_COLLIDER
100
AcDbPolyline
 90
4
 70
1
 10
489645.0000000001
 20
144725.0
 10
490195.00000000006
 20
144725.0
 10
490195.00000000006
 20
145275.0
 10
489645.0000000001
 20
145275.0
  0
LWPOLYLINE
  5
DE
330
17
100
AcDbEntity
  8
IMPL_COLLIDER
100
AcDbPolyline
 90
4
 70
1
 10
480205.00000000006
 20
144725.0
 10
480755.0
 20
144725.0
 10
480755.0
 20
145275.0
 10
480205.00000000006
 20
145275.0
  0
LWPOLYLINE
  5
DF
330
17
100
AcDbEntity
  8
IMPL_COLLIDER
100
AcDbPolyline
 90
4
 70
1
 10
487976.08176178974
 20
161237.19418907518
 10
488526.0817617897
 20
161237.19418907518
 10
488526.0817617897
 20
161787.1941890752
 10
487976.08176178974
 20
161787.1941890752
  0
LWPOLYLINE
  5
E0
330
17
100
AcDbEntity
  8
IMPL_COLLIDER
100
AcDbPolyline
 90
4
 70
1
 10
478726.2993744638
 20
159351.6900689218
 10
479276.29937446374
 20
159351.6900689218
 10
479276.29937446374
 20
159901.69006892183
 10
478726.2993744638
 20
159901.69006892183
  0
LWPOLYLINE
  5
E1
330
17
100
AcDbEntity
  8
IMPL_COLLIDER
100
AcDbPolyline
 90
4
 70
1
 10
483058.47766589106
 20
177122.52630262755
 10
483608.47766589106
 20
177122.52630262755
 10
483608.47766589106
 20
177672.52630262758
 10
483058.47766589106
 20
177672.52630262758
  0
LWPOLYLINE
  5
E2
330
17
100
AcDbEntity
  8
IMPL_COLLIDER
100
AcDbPolyline
 90
4
 70
1
 10
474357.4509006767
 20
173461.14224314626
 10
474907.45090067666
 20
173461.14224314626
 10
474907.45090067666
 20
174011.14224314629
 10
474357.4509006767
 20
174011.14224314629
  0
LWPOLYLINE
  5
E3
330
17
100
AcDbEntity
  8
IMPL_COLLIDER
100
AcDbPolyline
 90
4
 70
1
 10
475149.92570612754
 20
191803.24638919017
 10
475699.9257061275
 20
191803.24638919017
 10
475699.9257061275
 20
192353.2463891902
 10
475149.92570612754
 20
192353.2463891902
  0
LWPOLYLINE
  5
E4
330
17
100
AcDbEntity
  8
IMPL_COLLIDER
100
AcDbPolyline
 90
4
 70
1
 10
467297.87514756026
 20
186563.12215156926
 10
467847.8751475602
 20
186563.12215156926
 10
467847.8751475602
 20
187113.12215156926
 10
467297.87514756026
 20
187113.12215156926
  0
LWPOLYLINE
  5
E5
330
17
100
AcDbEntity
  8
IMPL_COLLIDER
100
AcDbPolyline
 90
4
 70
1
 10
464650.4928314085
 20
204791.6054579158
 10
465200.49283140845
 20
204791.6054579158
 10
465200.49283140845
 20
205341.6054579158
 10
464650.4928314085
 20
205341.6054579158
  0
LWPOLYLINE
  5
E6
330
17
100
AcDbEntity
  8
IMPL_COLLIDER
100
AcDbPolyline
 90
4
 70
1
 10
457870.288601282
 20
198223.31568067733
 10
458420.28860128194
 20
198223.31568067733
 10
458420.28860128194
 20
198773.31568067733
 10
457870.288601282
 20
198773.31568067733
  0
LWPOLYLINE
  5
E7
330
17
100
AcDbEntity
  8
IMPL_COLLIDER
100
AcDbPolyline
 90
4
 70
1
 10
452066.11765342375
 20
215718.3877521943
 10
452616.1176534237
 20
215718.3877521943
 10
452616.1176534237
 20
216268.3877521943
 10
452066.11765342375
 20
216268.3877521943
  0
LWPOLYLINE
  5
E8
330
17
100
AcDbEntity
  8
IMPL_COLLIDER
100
AcDbPolyline
 90
4
 70
1
 10
446501.9578633019
 20
208092.52872976338
 10
447051.95786330185
 20
208092.52872976338
 10
447051.95786330185
 20
208642.5287297634
 10
446501.9578633019
 20
208642.5287297634
  0
LWPOLYLINE
  5
E9
330
17
100
AcDbEntity
  8
IMPL_COLLIDER
100
AcDbPolyline
 90
4
 70
1
 10
437967.7228106341
 20
224349.11839597055
 10
438517.7228106341
 20
224349.11839597055
 10
438517.7228106341
 20
224899.11839597055
 10
437967.7228106341
 20
224899.11839597055
  0
LWPOLYLINE
  5
EA
330
17
100
AcDbEntity
  8
IMPL_COLLIDER
100
AcDbPolyline
 90
4
 70
1
 10
433695.0239460818
 20
215931.4201112342
 10
434245.02394608175
 20
215931.4201112342
 10
434245.02394608175
 20
216481.42011123424
 10
433695.0239460818
 20
216481.42011123424
  0
LWPOLYLINE
  5
EB
330
17
100
AcDbEntity
  8
IMPL_COLLIDER
100
AcDbPolyline
 90
4
 70
1
 10
422949.4283783623
 20
230589.51512579163
 10
423499.42837836227
 20
230589.51512579163
 10
423499.42837836227
 20
231139.51512579163
 10
422949.4283783623
 20
231139.51512579163
  0
LWPOLYLINE
  5
EC
330
17
100
AcDbEntity
  8
IMPL_COLLIDER
100
AcDbPolyline
 90
4
 70
1
 10
419988.3785656997
 20
221625.9341445693
 10
420538.3785656996
 20
221625.9341445693
 10
420538.3785656996
 20
222175.9341445693
 10
419988.3785656997
 20
222175.9341445693
  0
LWPOLYLINE
  5
ED
330
17
100
AcDbEntity
  8
IMPL_COLLIDER
100
AcDbPolyline
 90
4
 70
1
 10
406770.47986266133
 20
233430.5552187355
 10
407320.4798626613
 20
233430.5552187355
 10
407320.4798626613
 20
233980.5552187355
 10
406770.47986266133
 20
233980.5552187355
  0
LWPOLYLINE
  5
EE
330
17
100
AcDbEntity
  8
IMPL_COLLIDER
100
AcDbPolyline
 90
4
 70
1
 10
406329.95070440497
 20
224000.8397373052
 10
406879.9507044049
 20
224000.8397373052
 10
406879.9507044049
 20
224550.83973730524
 10
406329.95070440497
 20
224550.83973730524
  0
LWPOLYLINE
  5
EF
330
17
100
AcDbEntity
  8
IMPL_COLLIDER
100
AcDbPolyline
 90
4
 70
1
 10
375719.0852612812
 20
235970.91547043278
 10
376269.0852612811
 20
235970.91547043278
 10
376269.0852612811
 20
236520.91547043278
 10
375719.0852612812
 20
236520.91547043278
  0
LWPOLYLINE
  5
F0
330
17
100
AcDbEntity
  8
IMPL_COLLIDER
100
AcDbPolyline
 90
4
 70
1
 10
377442.0760394819
 20
226689.4876288647
 10
377992.07603948185
 20
226689.4876288647
 10
377992.07603948185
 20
227239.4876288647
 10
377442.0760394819
 20
227239.4876288647
  0
LWPOLYLINE
  5
F1
330
17
100
AcDbEntity
  8
IMPL_COLLIDER
100
AcDbPolyline
 90
4
 70
1
 10
360415.2203457424
 20
233429.48939196893
 10
360965.22034574236
 20
233429.48939196893
 10
360965.22034574236
 20
233979.48939196893
 10
360415.2203457424
 20
233979.48939196893
  0
LWPOLYLINE
  5
F2
330
17
100
AcDbEntity
  8
IMPL_COLLIDER
100
AcDbPolyline
 90
4
 70
1
 10
362427.18523064157
 20
224206.3881075889
 10
362977.1852306415
 20
224206.3881075889
 10
362977.1852306415
 20
224756.3881075889
 10
362427.18523064157
 20
224756.3881075889
  0
LWPOLYLINE
  5
F3
330
17
100
AcDbEntity
  8
IMPL_COLLIDER
100
AcDbPolyline
 90
4
 70
1
 10
344949.710036698
 20
229074.87718893882
 10
345499.7100366979
 20
229074.87718893882
 10
345499.7100366979
 20
229624.87718893882
 10
344949.710036698
 20
229624.87718893882
  0
LWPOLYLINE
  5
F4
330
17
100
AcDbEntity
  8
IMPL_COLLIDER
100
AcDbPolyline
 90
4
 70
1
 10
348023.644827766
 20
220149.3786090128
 10
348573.644827766
 20
220149.3786090128
 10
348573.644827766
 20
220699.3786090128
 10
348023.644827766
 20
220699.3786090128
  0
LWPOLYLINE
  5
F5
330
17
100
AcDbEntity
  8
IMPL_COLLIDER
100
AcDbPolyline
 90
4
 70
1
 10
330349.487048626
 20
223229.07209834593
 10
330899.487048626
 20
223229.07209834593
 10
330899.487048626
 20
223779.07209834596
 10
330349.487048626
 20
223779.07209834596
  0
LWPOLYLINE
  5
F6
330
17
100
AcDbEntity
  8
IMPL_COLLIDER
100
AcDbPolyline
 90
4
 70
1
 10
334243.6312498007
 20
214629.6976478142
 10
334793.6312498006
 20
214629.6976478142
 10
334793.6312498006
 20
215179.6976478142
 10
334243.6312498007
 20
215179.6976478142
  0
LWPOLYLINE
  5
F7
330
17
100
AcDbEntity
  8
IMPL_COLLIDER
100
AcDbPolyline
 90
4
 70
1
 10
316284.4687145577
 20
216321.11236510714
 10
316834.46871455765
 20
216321.11236510714
 10
316834.46871455765
 20
216871.11236510714
 10
316284.4687145577
 20
216871.11236510714
  0
LWPOLYLINE
  5
F8
330
17
100
AcDbEntity
  8
IMPL_COLLIDER
100
AcDbPolyline
 90
4
 70
1
 10
320641.31967593706
 20
207946.66016210738
 10
321191.319675937
 20
207946.66016210738
 10
321191.319675937
 20
208496.66016210738
 10
320641.31967593706
 20
208496.66016210738
  0
LWPOLYLINE
  5
F9
330
17
100
AcDbEntity
  8
IMPL_COLLIDER
100
AcDbPolyline
 90
4
 70
1
 10
302835.32853120205
 20
209217.17911025631
 10
303385.328531202
 20
209217.17911025631
 10
303385.328531202
 20
209767.17911025634
 10
302835.32853120205
 20
209767.17911025634
  0
LWPOLYLINE
  5
FA
330
17
100
AcDbEntity
  8
IMPL_COLLIDER
100
AcDbPolyline
 90
4
 70
1
 10
307241.2243086307
 20
200868.42576628714
 10
307791.2243086307
 20
200868.42576628714
 10
307791.2243086307
 20
201418.42576628717
 10
307241.2243086307
 20
201418.42576628717
  0
LWPOLYLINE
  5
FB
330
17
100
AcDbEntity
  8
IMPL_COLLIDER
100
AcDbPolyline
 90
4
 70
1
 10
289162.03560270125
 20
202081.58977572795
 10
289712.0356027012
 20
202081.58977572795
 10
289712.0356027012
 20
202631.58977572795
 10
289162.03560270125
 20
202631.58977572795
  0
LWPOLYLINE
  5
FC
330
17
100
AcDbEntity
  8
IMPL_COLLIDER
100
AcDbPolyline
 90
4
 70
1
 10
293519.51591767574
 20
193707.46502715815
 10
294069.5159176757
 20
193707.46502715815
 10
294069.5159176757
 20
194257.46502715815
 10
293519.51591767574
 20
194257.46502715815
  0
LWPOLYLINE
  5
FD
330
17
100
AcDbEntity
  8
IMPL_COLLIDER
100
AcDbPolyline
 90
4
 70
1
 10
275489.15157330554
 20
194736.1046503221
 10
276039.1515733055
 20
194736.1046503221
 10
276039.1515733055
 20
195286.10465032212
 10
275489.15157330554
 20
195286.10465032212
  0
LWPOLYLINE
  5
FE
330
17
100
AcDbEntity
  8
IMPL_COLLIDER
100
AcDbPolyline
 90
4
 70
1
 10
280138.39218668727
 20
186520.37816273246
 10
280688.3921866872
 20
186520.37816273246
 10
280688.3921866872
 20
187070.3781627325
 10
280138.39218668727
 20
187070.3781627325
  0
LWPOLYLINE
  5
FF
330
17
100
AcDbEntity
  8
IMPL_COLLIDER
100
AcDbPolyline
 90
4
 70
1
 10
262315.85284349264
 20
186607.97952345654
 10
262865.8528434926
 20
186607.97952345654
 10
262865.8528434926
 20
187157.97952345657
 10
262315.85284349264
 20
187157.97952345657
  0
LWPOLYLINE
  5
100
330
17
100
AcDbEntity
  8
IMPL_COLLIDER
100
AcDbPolyline
 90
4
 70
1
 10
267626.0589772057
 20
178803.15339999454
 10
268176.05897720566
 20
178803.15339999454
 10
268176.05897720566
 20
179353.15339999454
 10
267626.0589772057
 20
179353.15339999454
  0
LWPOLYLINE
  5
101
330
17
100
AcDbEntity
  8
IMPL_COLLIDER
100
AcDbPolyline
 90
4
 70
1
 10
217636.244184734
 20
84853.45386743039
 10
218186.244184734
 20
84853.45386743039
 10
218186.244184734
 20
85403.4538674304
 10
217636.244184734
 20
85403.4538674304
  0
LWPOLYLINE
  5
102
330
17
100
AcDbEntity
  8
IMPL_COLLIDER
100
AcDbPolyline
 90
4
 70
1
 10
226795.21280382373
 20
87139.69397610874
 10
227345.21280382373
 20
87139.69397610874
 10
227345.21280382373
 20
87689.69397610876
 10
226795.21280382373
 20
87689.69397610876
  0
LWPOLYLINE
  5
103
330
17
100
AcDbEntity
  8
IMPL_COLLIDER
100
AcDbPolyline
 90
4
 70
1
 10
223021.20178425056
 20
69579.0272228796
 10
223571.2017842506
 20
69579.0272228796
 10
223571.2017842506
 20
70129.0272228796
 10
223021.20178425056
 20
70129.0272228796
  0
LWPOLYLINE
  5
104
330
17
100
AcDbEntity
  8
IMPL_COLLIDER
100
AcDbPolyline
 90
4
 70
1
 10
231591.517181197
 20
73536.71518390719
 10
232141.51718119704
 20
73536.71518390719
 10
232141.51718119704
 20
74086.7151839072
 10
231591.517181197
 20
74086.7151839072
  0
LWPOLYLINE
  5
105
330
17
100
AcDbEntity
  8
IMPL_COLLIDER
100
AcDbPolyline
 90
4
 70
1
 10
231370.50302277142
 20
55225.04373018198
 10
231920.50302277145
 20
55225.04373018198
 10
231920.50302277145
 20
55775.04373018197
 10
231370.50302277142
 20
55775.04373018197
  0
LWPOLYLINE
  5
106
330
17
100
AcDbEntity
  8
IMPL_COLLIDER
100
AcDbPolyline
 90
4
 70
1
 10
239053.72547561562
 20
60709.72172803298
 10
239603.72547561562
 20
60709.72172803298
 10
239603.72547561562
 20
61259.72172803298
 10
239053.72547561562
 20
61259.72172803298
  0
LWPOLYLINE
  5
107
330
17
100
AcDbEntity
  8
IMPL_COLLIDER
100
AcDbPolyline
 90
4
 70
1
 10
241762.5876286469
 20
43069.28239774034
 10
242312.58762864693
 20
43069.28239774034
 10
242312.58762864693
 20
43619.28239774033
 10
241762.5876286469
 20
43619.28239774033
  0
LWPOLYLINE
  5
108
330
17
100
AcDbEntity
  8
IMPL_COLLIDER
100
AcDbPolyline
 90
4
 70
1
 10
248383.16223071335
 20
49798.442221854544
 10
248933.16223071335
 20
49798.442221854544
 10
248933.16223071335
 20
50348.44222185454
 10
248383.16223071335
 20
50348.44222185454
  0
LWPOLYLINE
  5
109
330
17
100
AcDbEntity
  8
IMPL_COLLIDER
100
AcDbPolyline
 90
4
 70
1
 10
254320.99303214526
 20
32665.401696165474
 10
254870.99303214526
 20
32665.401696165474
 10
254870.99303214526
 20
33215.40169616547
 10
254320.99303214526
 20
33215.40169616547
  0
LWPOLYLINE
  5
10A
330
17
100
AcDbEntity
  8
IMPL_COLLIDER
100
AcDbPolyline
 90
4
 70
1
 10
259710.60429722894
 20
40415.607526418185
 10
260260.60429722889
 20
40415.607526418185
 10
260260.60429722889
 20
40965.607526418185
 10
259710.60429722894
 20
40965.607526418185
  0
LWPOLYLINE
  5
10B
330
17
100
AcDbEntity
  8
IMPL_COLLIDER
100
AcDbPolyline
 90
4
 70
1
 10
268658.0932681982
 20
24370.62158256339
 10
269208.09326819814
 20
24370.62158256339
 10
269208.09326819814
 20
24920.621582563388
 10
268658.0932681982
 20
24920.621582563388
  0
LWPOLYLINE
  5
10C
330
17
100
AcDbEntity
  8
IMPL_COLLIDER
100
AcDbPolyline
 90
4
 70
1
 10
272700.00752592157
 20
32901.53766075873
 10
273250.00752592157
 20
32901.53766075873
 10
273250.00752592157
 20
33451.53766075873
 10
272700.00752592157
 20
33451.53766075873
  0
LWPOLYLINE
  5
10D
330
17
100
AcDbEntity
  8
IMPL_COLLIDER
100
AcDbPolyline
 90
4
 70
1
 10
284308.4951633529
 20
18451.035703353606
 10
284858.49516335287
 20
18451.035703353606
 10
284858.49516335287
 20
19001.035703353606
 10
284308.4951633529
 20
19001.035703353606
  0
LWPOLYLINE
  5
10E
330
17
100
AcDbEntity
  8
IMPL_COLLIDER
100
AcDbPolyline
 90
4
 70
1
 10
286932.0482291002
 20
27519.142965136954
 10
287482.0482291001
 20
27519.142965136954
 10
287482.0482291001
 20
28069.14296513695
 10
286932.0482291002
 20
28069.14296513695
  0
LWPOLYLINE
  5
10F
330
17
100
AcDbEntity
  8
IMPL_COLLIDER
100
AcDbPolyline
 90
4
 70
1
 10
299714.77097959694
 20
15204.06605802248
 10
300264.7709795969
 20
15204.06605802248
 10
300264.7709795969
 20
15754.066058022481
 10
299714.77097959694
 20
15754.066058022481
  0
LWPOLYLINE
  5
110
330
17
100
AcDbEntity
  8
IMPL_COLLIDER
100
AcDbPolyline
 90
4
 70
1
 10
300979.0040704286
 20
24559.028093864534
 10
301529.0040704286
 20
24559.028093864534
 10
301529.0040704286
 20
25109.02809386453
 10
300979.0040704286
 20
25109.02809386453
  0
LWPOLYLINE
  5
111
330
17
100
AcDbEntity
  8
IMPL_COLLIDER
100
AcDbPolyline
 90
4
 70
1
 10
315378.32883065654
 20
14232.677133266596
 10
315928.3288306565
 20
14232.677133266596
 10
315928.3288306565
 20
14782.677133266598
 10
315378.32883065654
 20
14782.677133266598
  0
LWPOLYLINE
  5
112
330
17
100
AcDbEntity
  8
IMPL_COLLIDER
100
AcDbPolyline
 90
4
 70
1
 10
315282.05726671615
 20
23672.18621933545
 10
315832.0572667161
 20
23672.18621933545
 10
315832.0572667161
 20
24222.18621933545
 10
315282.05726671615
 20
24222.18621933545
  0
LWPOLYLINE
  5
113
330
17
100
AcDbEntity
  8
IMPL_COLLIDER
100
AcDbPolyline
 90
4
 70
1
 10
331876.2263787463
 20
15656.340112877859
 10
332426.2263787462
 20
15656.340112877859
 10
332426.2263787462
 20
16206.340112877857
 10
331876.2263787463
 20
16206.340112877857
  0
LWPOLYLINE
  5
114
330
17
100
AcDbEntity
  8
IMPL_COLLIDER
100
AcDbPolyline
 90
4
 70
1
 10
330353.84207680984
 20
24972.77430398432
 10
330903.8420768098
 20
24972.77430398432
 10
330903.8420768098
 20
25522.774303984315
 10
330353.84207680984
 20
25522.774303984315
  0
LWPOLYLINE
  5
115
330
17
100
AcDbEntity
  8
IMPL_COLLIDER
100
AcDbPolyline
 90
4
 70
1
 10
347670.3324626244
 20
19467.580246861246
 10
348220.33246262436
 20
19467.580246861246
 10
348220.33246262436
 20
20017.580246861242
 10
347670.3324626244
 20
20017.580246861242
  0
LWPOLYLINE
  5
116
330
17
100
AcDbEntity
  8
IMPL_COLLIDER
100
AcDbPolyline
 90
4
 70
1
 10
344773.74589676823
 20
28452.199674889427
 10
345323.7458967682
 20
28452.199674889427
 10
345323.7458967682
 20
29002.199674889423
 10
344773.74589676823
 20
29002.199674889423
  0
LWPOLYLINE
  5
117
330
17
100
AcDbEntity
  8
IMPL_COLLIDER
100
AcDbPolyline
 90
4
 70
1
 10
362323.516481254
 20
25418.772864121147
 10
362873.516481254
 20
25418.772864121147
 10
362873.516481254
 20
25968.772864121147
 10
362323.516481254
 20
25968.772864121147
  0
LWPOLYLINE
  5
118
330
17
100
AcDbEntity
  8
IMPL_COLLIDER
100
AcDbPolyline
 90
4
 70
1
 10
358131.06806640734
 20
33876.72629795188
 10
358681.0680664073
 20
33876.72629795188
 10
358681.0680664073
 20
34426.72629795187
 10
358131.06806640734
 20
34426.72629795187
  0
LWPOLYLINE
  5
119
330
17
100
AcDbEntity
  8
IMPL_COLLIDER
100
AcDbPolyline
 90
4
 70
1
 10
376248.81144219276
 20
33722.54303212189
 10
376798.8114421927
 20
33722.54303212189
 10
376798.8114421927
 20
34272.54303212189
 10
376248.81144219276
 20
34272.54303212189
  0
LWPOLYLINE
  5
11A
330
17
100
AcDbEntity
  8
IMPL_COLLIDER
100
AcDbPolyline
 90
4
 70
1
 10
370795.4902567119
 20
41428.05327142378
 10
371345.49025671184
 20
41428.05327142378
 10
371345.49025671184
 20
41978.05327142378
 10
370795.4902567119
 20
41978.05327142378
  0
LWPOLYLINE
  5
11B
330
17
100
AcDbEntity
  8
IMPL_COLLIDER
100
AcDbPolyline
 90
4
 70
1
 10
388791.06437459256
 20
45339.18507167007
 10
389341.0643745925
 20
45339.18507167007
 10
389341.0643745925
 20
45889.18507167007
 10
388791.06437459256
 20
45889.18507167007
  0
LWPOLYLINE
  5
11C
330
17
100
AcDbEntity
  8
IMPL_COLLIDER
100
AcDbPolyline
 90
4
 70
1
 10
381187.129381058
 20
50933.268786998226
 10
381737.1293810579
 20
50933.268786998226
 10
381737.1293810579
 20
51483.268786998226
 10
381187.129381058
 20
51483.268786998226
  0
LWPOLYLINE
  5
11D
330
17
100
AcDbEntity
  8
IMPL_COLLIDER
100
AcDbPolyline
 90
4
 70
1
 10
408197.51516913914
 20
70736.49859418793
 10
408747.5151691391
 20
70736.49859418793
 10
408747.5151691391
 20
71286.49859418793
 10
408197.51516913914
 20
71286.49859418793
  0
LWPOLYLINE
  5
11E
330
17
100
AcDbEntity
  8
IMPL_COLLIDER
100
AcDbPolyline
 90
4
 70
1
 10
399365.2669123345
 20
74068.91374392113
 10
399915.2669123345
 20
74068.91374392113
 10
399915.2669123345
 20
74618.91374392113
 10
399365.2669123345
 20
74618.91374392113
  0
LWPOLYLINE
  5
11F
330
17
100
AcDbEntity
  8
IMPL_COLLIDER
100
AcDbPolyline
 90
4
 70
1
 10
413904.7092964821
 20
85488.02083057427
 10
414454.7092964821
 20
85488.02083057427
 10
414454.7092964821
 20
86038.02083057429
 10
413904.7092964821
 20
86038.02083057429
  0
LWPOLYLINE
  5
120
330
17
100
AcDbEntity
  8
IMPL_COLLIDER
100
AcDbPolyline
 90
4
 70
1
 10
404890.1027631847
 20
88289.88968008022
 10
405440.10276318464
 20
88289.88968008022
 10
405440.10276318464
 20
88839.88968008023
 10
404890.1027631847
 20
88839.88968008023
  0
LWPOLYLINE
  5
121
330
17
100
AcDbEntity
  8
IMPL_COLLIDER
100
AcDbPolyline
 90
4
 70
1
 10
417516.79026068037
 20
101148.64101327135
 10
418066.7902606803
 20
101148.64101327135
 10
418066.7902606803
 20
101698.64101327135
 10
417516.79026068037
 20
101698.64101327135
  0
LWPOLYLINE
  5
122
330
17
100
AcDbEntity
  8
IMPL_COLLIDER
100
AcDbPolyline
 90
4
 70
1
 10
408191.1174507659
 20
102613.36851093888
 10
408741.1174507659
 20
102613.36851093888
 10
408741.1174507659
 20
103163.36851093888
 10
408191.1174507659
 20
103163.36851093888
  0
LWPOLYLINE
  5
123
330
17
100
AcDbEntity
  8
IMPL_COLLIDER
100
AcDbPolyline
 90
4
 70
1
 10
419033.0544959335
 20
116549.02953914326
 10
419583.05449593347
 20
116549.02953914326
 10
419583.05449593347
 20
117099.02953914327
 10
419033.0544959335
 20
117099.02953914327
  0
LWPOLYLINE
  5
124
330
17
100
AcDbEntity
  8
IMPL_COLLIDER
100
AcDbPolyline
 90
4
 70
1
 10
409603.86122831353
 20
117000.59827352414
 10
410153.8612283135
 20
117000.59827352414
 10
410153.8612283135
 20
117550.59827352416
 10
409603.86122831353
 20
117550.59827352416
  0
LWPOLYLINE
  5
125
330
17
100
AcDbEntity
  8
IMPL_COLLIDER
100
AcDbPolyline
 90
4
 70
1
 10
419292.9748923806
 20
131757.7573463529
 10
419842.97489238053
 20
131757.7573463529
 10
419842.97489238053
 20
132307.75734635294
 10
419292.9748923806
 20
132307.75734635294
  0
LWPOLYLINE
  5
126
330
17
100
AcDbEntity
  8
IMPL_COLLIDER
100
AcDbPolyline
 90
4
 70
1
 10
409853.00946247205
 20
131732.20970197517
 10
410403.00946247205
 20
131732.20970197517
 10
410403.00946247205
 20
132282.20970197517
 10
409853.00946247205
 20
132282.20970197517
  0
LWPOLYLINE
  5
127
330
17
100
AcDbEntity
  8
IMPL_COLLIDER
100
AcDbPolyline
 90
4
 70
1
 10
419247.63350095757
 20
147089.34526796103
 10
419797.63350095757
 20
147089.34526796103
 10
419797.63350095757
 20
147639.34526796103
 10
419247.63350095757
 20
147639.34526796103
  0
LWPOLYLINE
  5
128
330
17
100
AcDbEntity
  8
IMPL_COLLIDER
100
AcDbPolyline
 90
4
 70
1
 10
409807.6562009092
 20
147110.0473106071
 10
410357.6562009091
 20
147110.0473106071
 10
410357.6562009091
 20
147660.0473106071
 10
409807.6562009092
 20
147660.0473106071
  0
LWPOLYLINE
  5
129
330
17
100
AcDbEntity
  8
IMPL_COLLIDER
100
AcDbPolyline
 90
4
 70
1
 10
419289.16094214545
 20
162220.26658621867
 10
419839.1609421454
 20
162220.26658621867
 10
419839.1609421454
 20
162770.26658621867
 10
419289.16094214545
 20
162770.26658621867
  0
LWPOLYLINE
  5
12A
330
17
100
AcDbEntity
  8
IMPL_COLLIDER
100
AcDbPolyline
 90
4
 70
1
 10
409849.29881788575
 20
162169.24624745094
 10
410399.29881788575
 20
162169.24624745094
 10
410399.29881788575
 20
162719.24624745094
 10
409849.29881788575
 20
162719.24624745094
  0
LWPOLYLINE
  5
12B
330
17
100
AcDbEntity
  8
IMPL_COLLIDER
100
AcDbPolyline
 90
4
 70
1
 10
418710.76099144336
 20
178031.2337892659
 10
419260.7609914433
 20
178031.2337892659
 10
419260.7609914433
 20
178581.2337892659
 10
418710.76099144336
 20
178581.2337892659
  0
LWPOLYLINE
  5
12C
330
17
100
AcDbEntity
  8
IMPL_COLLIDER
100
AcDbPolyline
 90
4
 70
1
 10
409299.94010066055
 20
177289.5801223804
 10
409849.9401006605
 20
177289.5801223804
 10
409849.9401006605
 20
177839.58012238043
 10
409299.94010066055
 20
177839.58012238043
  0
LWPOLYLINE
  5
12D
330
17
100
AcDbEntity
  8
IMPL_COLLIDER
100
AcDbPolyline
 90
4
 70
1
 10
343812.96553599933
 20
271146.99125450593
 10
344362.96553599933
 20
271146.99125450593
 10
344362.96553599933
 20
271696.99125450593
 10
343812.96553599933
 20
271696.99125450593
  0
LWPOLYLINE
  5
12E
330
17
100
AcDbEntity
  8
IMPL_COLLIDER
100
AcDbPolyline
 90
4
 70
1
 10
341253.62637206883
 20
262060.55174037436
 10
341803.6263720688
 20
262060.55174037436
 10
341803.6263720688
 20
262610.5517403743
 10
341253.62637206883
 20
262610.5517403743
  0
LWPOLYLINE
  5
12F
330
17
100
AcDbEntity
  8
IMPL_COLLIDER
100
AcDbPolyline
 90
4
 70
1
 10
327799.1221553726
 20
274381.1207647137
 10
328349.1221553725
 20
274381.1207647137
 10
328349.1221553725
 20
274931.1207647136
 10
327799.1221553726
 20
274931.1207647136
  0
LWPOLYLINE
  5
130
330
17
100
AcDbEntity
  8
IMPL_COLLIDER
100
AcDbPolyline
 90
4
 70
1
 10
326629.4242591777
 20
265013.86893551436
 10
327179.42425917764
 20
265013.86893551436
 10
327179.42425917764
 20
265563.86893551436
 10
326629.4242591777
 20
265563.86893551436
  0
LWPOLYLINE
  5
131
330
17
100
AcDbEntity
  8
IMPL_COLLIDER
100
AcDbPolyline
 90
4
 70
1
 10
311201.2911018988
 20
275179.95986118534
 10
311751.2911018988
 20
275179.95986118534
 10
311751.2911018988
 20
275729.9598611853
 10
311201.2911018988
 20
275729.9598611853
  0
LWPOLYLINE
  5
132
330
17
100
AcDbEntity
  8
IMPL_COLLIDER
100
AcDbPolyline
 90
4
 70
1
 10
311466.5697169447
 20
265743.68796724343
 10
312016.56971694465
 20
265743.68796724343
 10
312016.56971694465
 20
266293.6879672434
 10
311466.5697169447
 20
266293.6879672434
  0
LWPOLYLINE
  5
133
330
17
100
AcDbEntity
  8
IMPL_COLLIDER
100
AcDbPolyline
 90
4
 70
1
 10
295562.8816984732
 20
273602.2865838948
 10
296112.8816984731
 20
273602.2865838948
 10
296112.8816984731
 20
274152.28658389475
 10
295562.8816984732
 20
274152.28658389475
  0
LWPOLYLINE
  5
134
330
17
100
AcDbEntity
  8
IMPL_COLLIDER
100
AcDbPolyline
 90
4
 70
1
 10
297190.74754280003
 20
264303.70320830075
 10
297740.7475428
 20
264303.70320830075
 10
297740.7475428
 20
264853.7032083007
 10
297190.74754280003
 20
264853.7032083007
  0
LWPOLYLINE
  5
135
330
17
100
AcDbEntity
  8
IMPL_COLLIDER
100
AcDbPolyline
 90
4
 70
1
 10
280300.40586105303
 20
269752.4627364585
 10
280850.405861053
 20
269752.4627364585
 10
280850.405861053
 20
270302.4627364585
 10
280300.40586105303
 20
270302.4627364585
  0
LWPOLYLINE
  5
136
330
17
100
AcDbEntity
  8
IMPL_COLLIDER
100
AcDbPolyline
 90
4
 70
1
 10
283282.9307843839
 20
260796.004447508
 10
283832.93078438385
 20
260796.004447508
 10
283832.93078438385
 20
261346.00444750793
 10
283282.9307843839
 20
261346.00444750793
  0
LWPOLYLINE
  5
137
330
17
100
AcDbEntity
  8
IMPL_COLLIDER
100
AcDbPolyline
 90
4
 70
1
 10
264931.4299737546
 20
263219.66550850536
 10
265481.42997375457
 20
263219.66550850536
 10
265481.42997375457
 20
263769.66550850536
 10
264931.4299737546
 20
263769.66550850536
  0
LWPOLYLINE
  5
138
330
17
100
AcDbEntity
  8
IMPL_COLLIDER
100
AcDbPolyline
 90
4
 70
1
 10
269318.5700262456
 20
254861.0410905865
 10
269868.57002624555
 20
254861.0410905865
 10
269868.57002624555
 20
255411.04109058654
 10
269318.5700262456
 20
255411.04109058654
  0
LWPOLYLINE
  5
139
330
17
100
AcDbEntity
  8
IMPL_COLLIDER
100
AcDbPolyline
 90
4
 70
1
 10
250997.9747724528
 20
254368.83375341137
 10
251547.9747724528
 20
254368.83375341137
 10
251547.9747724528
 20
254918.83375341137
 10
250997.9747724528
 20
254918.83375341137
  0
LWPOLYLINE
  5
13A
330
17
100
AcDbEntity
  8
IMPL_COLLIDER
100
AcDbPolyline
 90
4
 70
1
 10
256708.2197705446
 20
246851.73976292752
 10
257258.21977054453
 20
246851.73976292752
 10
257258.21977054453
 20
247401.73976292755
 10
256708.2197705446
 20
247401.73976292755
  0
LWPOLYLINE
  5
13B
330
17
100
AcDbEntity
  8
IMPL_COLLIDER
100
AcDbPolyline
 90
4
 70
1
 10
238948.39107561868
 20
243490.30800213804
 10
239498.39107561868
 20
243490.30800213804
 10
239498.39107561868
 20
244040.30800213807
 10
238948.39107561868
 20
244040.30800213807
  0
LWPOLYLINE
  5
13C
330
17
100
AcDbEntity
  8
IMPL_COLLIDER
100
AcDbPolyline
 90
4
 70
1
 10
245852.4807722109
 20
237052.3622535775
 10
246402.4807722109
 20
237052.3622535775
 10
246402.4807722109
 20
237602.36225357754
 10
245852.4807722109
 20
237602.36225357754
  0
LWPOLYLINE
  5
13D
330
17
100
AcDbEntity
  8
IMPL_COLLIDER
100
AcDbPolyline
 90
4
 70
1
 10
229147.0658261944
 20
230961.33718776228
 10
229697.0658261944
 20
230961.33718776228
 10
229697.0658261944
 20
231511.3371877623
 10
229147.0658261944
 20
231511.3371877623
  0
LWPOLYLINE
  5
13E
330
17
100
AcDbEntity
  8
IMPL_COLLIDER
100
AcDbPolyline
 90
4
 70
1
 10
237063.4903188614
 20
225818.9813801677
 10
237613.49031886144
 20
225818.9813801677
 10
237613.49031886144
 20
226368.98138016774
 10
237063.4903188614
 20
226368.98138016774
  0
LWPOLYLINE
  5
13F
330
17
100
AcDbEntity
  8
IMPL_COLLIDER
100
AcDbPolyline
 90
4
 70
1
 10
221483.5422493051
 20
216337.88405238924
 10
222033.5422493051
 20
216337.88405238924
 10
222033.5422493051
 20
216887.88405238927
 10
221483.5422493051
 20
216887.88405238927
  0
LWPOLYLINE
  5
140
330
17
100
AcDbEntity
  8
IMPL_COLLIDER
100
AcDbPolyline
 90
4
 70
1
 10
230220.65440951602
 20
212763.46506465232
 10
230770.65440951602
 20
212763.46506465232
 10
230770.65440951602
 20
213313.46506465235
 10
230220.65440951602
 20
213313.46506465235
  0
LWPOLYLINE
  5
141
330
17
100
AcDbEntity
  8
IMPL_COLLIDER
100
AcDbPolyline
 90
4
 70
1
 10
216806.92730952927
 20
200933.03743958488
 10
217356.92730952927
 20
200933.03743958488
 10
217356.92730952927
 20
201483.03743958488
 10
216806.92730952927
 20
201483.03743958488
  0
LWPOLYLINE
  5
142
330
17
100
AcDbEntity
  8
IMPL_COLLIDER
100
AcDbPolyline
 90
4
 70
1
 10
226057.5965044231
 20
199051.8890013581
 10
226607.5965044231
 20
199051.8890013581
 10
226607.5965044231
 20
199601.8890013581
 10
226057.5965044231
 20
199601.8890013581
  0
LWPOLYLINE
  5
143
330
17
100
AcDbEntity
  8
IMPL_COLLIDER
100
AcDbPolyline
 90
4
 70
1
 10
215100.29228113306
 20
184425.16956675972
 10
215650.29228113306
 20
184425.16956675972
 10
215650.29228113306
 20
184975.16956675975
 10
215100.29228113306
 20
184975.16956675975
  0
LWPOLYLINE
  5
144
330
17
100
AcDbEntity
  8
IMPL_COLLIDER
100
AcDbPolyline
 90
4
 70
1
 10
224540.15089430308
 20
184373.50368479543
 10
225090.1508943031
 20
184373.50368479543
 10
225090.1508943031
 20
184923.50368479543
 10
224540.15089430308
 20
184923.50368479543
  0
LWPOLYLINE
  5
145
330
17
100
AcDbEntity
  8
IMPL_COLLIDER
100
AcDbPolyline
 90
4
 70
1
 10
216528.1266936382
 20
168356.89405641847
 10
217078.12669363822
 20
168356.89405641847
 10
217078.12669363822
 20
168906.89405641847
 10
216528.1266936382
 20
168906.89405641847
  0
LWPOLYLINE
  5
146
330
17
100
AcDbEntity
  8
IMPL_COLLIDER
100
AcDbPolyline
 90
4
 70
1
 10
235378.13401529676
 20
141755.2781277757
 10
235928.13401529676
 20
141755.2781277757
 10
235928.13401529676
 20
142305.27812777573
 10
235378.13401529676
 20
142305.27812777573
  0
LWPOLYLINE
  5
147
330
17
100
AcDbEntity
  8
IMPL_COLLIDER
100
AcDbPolyline
 90
4
 70
1
 10
237274.23146345036
 20
125116.91266668709
 10
237824.23146345036
 20
125116.91266668709
 10
237824.23146345036
 20
125666.9126666871
 10
237274.23146345036
 20
125666.9126666871
  0
LWPOLYLINE
  5
148
330
17
100
AcDbEntity
  8
IMPL_COLLIDER
100
AcDbPolyline
 90
4
 70
1
 10
244390.74466252304
 20
131319.23802798695
 10
244940.74466252307
 20
131319.23802798695
 10
244940.74466252307
 20
131869.23802798695
 10
244390.74466252304
 20
131869.23802798695
  0
LWPOLYLINE
  5
149
330
17
100
AcDbEntity
  8
IMPL_COLLIDER
100
AcDbPolyline
 90
4
 70
1
 10
248182.56969142958
 20
113863.13715829399
 10
248732.5696914296
 20
113863.13715829399
 10
248732.5696914296
 20
114413.137158294
 10
248182.56969142958
 20
114413.137158294
  0
LWPOLYLINE
  5
14A
330
17
100
AcDbEntity
  8
IMPL_COLLIDER
100
AcDbPolyline
 90
4
 70
1
 10
254497.31725101697
 20
120880.08544502703
 10
255047.31725101697
 20
120880.08544502703
 10
255047.31725101697
 20
121430.08544502703
 10
254497.31725101697
 20
121430.08544502703
  0
LWPOLYLINE
  5
14B
330
17
100
AcDbEntity
  8
IMPL_COLLIDER
100
AcDbPolyline
 90
4
 70
1
 10
260690.99332550043
 20
103963.08972128059
 10
261240.99332550037
 20
103963.08972128059
 10
261240.99332550037
 20
104513.08972128059
 10
260690.99332550043
 20
104513.08972128059
  0
LWPOLYLINE
  5
14C
330
17
100
AcDbEntity
  8
IMPL_COLLIDER
100
AcDbPolyline
 90
4
 70
1
 10
266103.3672223079
 20
111697.41637595178
 10
266653.36722230783
 20
111697.41637595178
 10
266653.36722230783
 20
112247.4163759518
 10
266103.3672223079
 20
112247.4163759518
  0
LWPOLYLINE
  5
14D
330
17
100
AcDbEntity
  8
IMPL_COLLIDER
100
AcDbPolyline
 90
4
 70
1
 10
273952.3758002639
 20
95590.81245743674
 10
274502.37580026384
 20
95590.81245743674
 10
274502.37580026384
 20
96140.81245743675
 10
273952.3758002639
 20
96140.81245743675
  0
LWPOLYLINE
  5
14E
330
17
100
AcDbEntity
  8
IMPL_COLLIDER
100
AcDbPolyline
 90
4
 70
1
 10
278661.3108159786
 20
103772.47066453488
 10
279211.31081597856
 20
103772.47066453488
 10
279211.31081597856
 20
104322.47066453489
 10
278661.3108159786
 20
104322.47066453489
  0
LWPOLYLINE
  5
14F
330
17
100
AcDbEntity
  8
IMPL_COLLIDER
100
AcDbPolyline
 90
4
 70
1
 10
287279.47229646274
 20
88349.86433713663
 10
287829.4722964627
 20
88349.86433713663
 10
287829.4722964627
 20
88899.86433713665
 10
287279.47229646274
 20
88899.86433713665
  0
LWPOLYLINE
  5
150
330
17
100
AcDbEntity
  8
IMPL_COLLIDER
100
AcDbPolyline
 90
4
 70
1
 10
291651.4153919576
 20
96716.4474849787
 10
292201.4153919576
 20
96716.4474849787
 10
292201.4153919576
 20
97266.4474849787
 10
291651.4153919576
 20
97266.4474849787
  0
LWPOLYLINE
  5
151
330
17
100
AcDbEntity
  8
IMPL_COLLIDER
100
AcDbPolyline
 90
4
 70
1
 10
300581.9976987912
 20
81419.36151573744
 10
301131.99769879115
 20
81419.36151573744
 10
301131.99769879115
 20
81969.36151573746
 10
300581.9976987912
 20
81969.36151573746
  0
LWPOLYLINE
  5
152
330
17
100
AcDbEntity
  8
IMPL_COLLIDER
100
AcDbPolyline
 90
4
 70
1
 10
304972.39240673336
 20
89776.27687419798
 10
305522.39240673336
 20
89776.27687419798
 10
305522.39240673336
 20
90326.27687419798
 10
304972.39240673336
 20
90326.27687419798
  0
LWPOLYLINE
  5
153
330
17
100
AcDbEntity
  8
IMPL_COLLIDER
100
AcDbPolyline
 90
4
 70
1
 10
313882.11273804447
 20
74385.60452028847
 10
314432.1127380444
 20
74385.60452028847
 10
314432.1127380444
 20
74935.60452028849
 10
313882.11273804447
 20
74935.60452028849
  0
LWPOLYLINE
  5
154
330
17
100
AcDbEntity
  8
IMPL_COLLIDER
100
AcDbPolyline
 90
4
 70
1
 10
318274.1893801622
 20
82741.6360406792
 10
318824.18938016216
 20
82741.6360406792
 10
318824.18938016216
 20
83291.63604067921
 10
318274.1893801622
 20
83291.63604067921
  0
LWPOLYLINE
  5
155
330
17
100
AcDbEntity
  8
IMPL_COLLIDER
100
AcDbPolyline
 90
4
 70
1
 10
327578.8961496278
 20
67499.98136670719
 10
328128.89614962775
 20
67499.98136670719
 10
328128.89614962775
 20
68049.9813667072
 10
327578.8961496278
 20
68049.9813667072
  0
LWPOLYLINE
  5
156
330
17
100
AcDbEntity
  8
IMPL_COLLIDER
100
AcDbPolyline
 90
4
 70
1
 10
331595.50453478564
 20
76042.84137259983
 10
332145.5045347856
 20
76042.84137259983
 10
332145.5045347856
 20
76592.84137259984
 10
331595.50453478564
 20
76592.84137259984
  0
LWPOLYLINE
  5
157
330
17
100
AcDbEntity
  8
IMPL_COLLIDER
100
AcDbPolyline
 90
4
 70
1
 10
457464.7952555696
 20
77963.01024513169
 10
458014.79525556957
 20
77963.01024513169
 10
458014.79525556957
 20
78513.0102451317
 10
457464.7952555696
 20
78513.0102451317
  0
LWPOLYLINE
  5
158
330
17
100
AcDbEntity
  8
IMPL_COLLIDER
100
AcDbPolyline
 90
4
 70
1
 10
451387.1558478041
 20
85186.29891644858
 10
451937.15584780404
 20
85186.29891644858
 10
451937.15584780404
 20
85736.29891644859
 10
451387.1558478041
 20
85736.29891644859
  0
LWPOLYLINE
  5
159
330
17
100
AcDbEntity
  8
IMPL_COLLIDER
100
AcDbPolyline
 90
4
 70
1
 10
469257.05164205766
 20
89774.98616753901
 10
469807.0516420576
 20
89774.98616753901
 10
469807.0516420576
 20
90324.98616753903
 10
469257.05164205766
 20
90324.98616753903
  0
LWPOLYLINE
  5
15A
330
17
100
AcDbEntity
  8
IMPL_COLLIDER
100
AcDbPolyline
 90
4
 70
1
 10
462013.69184684294
 20
95828.69072566426
 10
462563.69184684294
 20
95828.69072566426
 10
462563.69184684294
 20
96378.69072566427
 10
462013.69184684294
 20
96378.69072566427
  0
LWPOLYLINE
  5
15B
330
17
100
AcDbEntity
  8
IMPL_COLLIDER
100
AcDbPolyline
 90
4
 70
1
 10
478745.78879733075
 20
103512.1643821783
 10
479295.7887973307
 20
103512.1643821783
 10
479295.7887973307
 20
104062.16438217831
 10
478745.78879733075
 20
104062.16438217831
  0
LWPOLYLINE
  5
15C
330
17
100
AcDbEntity
  8
IMPL_COLLIDER
100
AcDbPolyline
 90
4
 70
1
 10
470512.55811595684
 20
108130.33637413385
 10
471062.5581159568
 20
108130.33637413385
 10
471062.5581159568
 20
108680.33637413387
 10
470512.55811595684
 20
108680.33637413387
  0
LWPOLYLINE
  5
15D
330
17
100
AcDbEntity
  8
IMPL_COLLIDER
100
AcDbPolyline
 90
4
 70
1
 10
485463.85907402466
 20
118753.88812198548
 10
486013.8590740246
 20
118753.88812198548
 10
486013.8590740246
 20
119303.8881219855
 10
485463.85907402466
 20
119303.8881219855
  0
LWPOLYLINE
  5
15E
330
17
100
AcDbEntity
  8
IMPL_COLLIDER
100
AcDbPolyline
 90
4
 70
1
 10
476496.5468917459
 20
121703.61899539671
 10
477046.5468917458
 20
121703.61899539671
 10
477046.5468917458
 20
122253.61899539673
 10
476496.5468917459
 20
122253.61899539673
  0
LWPOLYLINE
  5
15F
330
17
100
AcDbEntity
  8
IMPL_COLLIDER
100
AcDbPolyline
 90
4
 70
1
 10
489065.81495257874
 20
134971.15494345367
 10
489615.81495257874
 20
134971.15494345367
 10
489615.81495257874
 20
135521.1549434537
 10
489065.81495257874
 20
135521.1549434537
  0
LWPOLYLINE
  5
160
330
17
100
AcDbEntity
  8
IMPL_COLLIDER
100
AcDbPolyline
 90
4
 70
1
 10
479692.0661216847
 20
136087.5925168596
 10
480242.0661216846
 20
136087.5925168596
 10
480242.0661216846
 20
136637.5925168596
 10
479692.0661216847
 20
136637.5925168596
  0
LWPOLYLINE
  5
161
330
17
100
AcDbEntity
  8
IMPL_COLLIDER
100
AcDbPolyline
 90
4
 70
1
 10
181355.00199709085
 20
152540.09148531817
 10
227355.00199709085
 20
152540.09148531817
 10
227355.00199709085
 20
164540.09148531817
 10
181355.00199709085
 20
164540.09148531817
  0
LWPOLYLINE
  5
162
330
17
100
AcDbEntity
  8
IMPL_COLLIDER
100
AcDbPolyline
 90
4
 70
1
 10
187912.84685910968
 20
158023.5413385133
 10
219912.84685910968
 20
158023.5413385133
 10
219912.84685910968
 20
159523.5413385133
 10
187912.84685910968
 20
159523.5413385133
  0
LWPOLYLINE
  5
163
330
17
100
AcDbEntity
  8
IMPL_COLLIDER
100
AcDbPolyline
 90
4
 70
1
 10
186586.3814451661
 20
158723.89089809876
 10
218586.3814451661
 20
158723.89089809876
 10
218586.3814451661
 20
160223.89089809876
 10
186586.3814451661
 20
160223.89089809876
  0
LWPOLYLINE
  5
164
330
17
100
AcDbEntity
  8
IMPL_COLLIDER
100
AcDbPolyline
 90
4
 70
1
 10
185259.91603122253
 20
159424.24045768418
 10
217259.91603122253
 20
159424.24045768418
 10
217259.91603122253
 20
160924.24045768418
 10
185259.91603122253
 20
160924.24045768418
  0
LWPOLYLINE
  5
165
330
17
100
AcDbEntity
  8
IMPL_COLLIDER
100
AcDbPolyline
 90
4
 70
1
 10
180855.00199709085
 20
152040.09148531817
 10
227855.00199709085
 20
152040.09148531817
 10
227855.00199709085
 20
165040.09148531817
 10
180855.00199709085
 20
165040.09148531817
  0
LWPOLYLINE
  5
166
330
17
100
AcDbEntity
  8
IMPL_COLLIDER
100
AcDbPolyline
 90
4
 70
1
 10
218456.44721109868
 20
174651.10874857687
 10
218706.44721109868
 20
174651.10874857687
 10
218706.44721109868
 20
174901.10874857687
 10
218456.44721109868
 20
174901.10874857687
  0
LWPOLYLINE
  5
167
330
17
100
AcDbEntity
  8
IMPL_COLLIDER
100
AcDbPolyline
 90
4
 70
1
 10
209613.34445147487
 20
179320.10581247968
 10
209863.34445147487
 20
179320.10581247968
 10
209863.34445147487
 20
179570.10581247968
 10
209613.34445147487
 20
179570.10581247968
  0
LWPOLYLINE
  5
168
330
17
100
AcDbEntity
  8
IMPL_COLLIDER
100
AcDbPolyline
 90
4
 70
1
 10
198846.65954270685
 20
137510.07715815672
 10
199096.65954270685
 20
137510.07715815672
 10
199096.65954270685
 20
137760.07715815672
 10
198846.65954270685
 20
137760.07715815672
  0
LWPOLYLINE
  5
169
330
17
100
AcDbEntity
  8
IMPL_COLLIDER
100
AcDbPolyline
 90
4
 70
1
 10
190003.556783083
 20
142179.07422205954
 10
190253.556783083
 20
142179.07422205954
 10
190253.556783083
 20
142429.07422205954
 10
190003.556783083
 20
142429.07422205954
  0
TEXT
  5
16A
330
17
100
AcDbEntity
  8
NOTES
100
AcDbText
 10
0.0
 20
19000.0
 30
0.0
 40
240.0
  1
THE COMMONS - v0.5 IMPLEMENTATION OVERLAY / PROPOSED CHANGES - NOT SOURCE CAD
100
AcDbText
  0
ENDSEC
  0
SECTION
  2
OBJECTS
  0
DICTIONARY
  5
A
330
0
100
AcDbDictionary
281
1
  3
ACAD_COLOR
350
B
  3
ACAD_GROUP
350
C
  3
ACAD_LAYOUT
350
D
  3
ACAD_MATERIAL
350
E
  3
ACAD_MLEADERSTYLE
350
F
  3
ACAD_MLINESTYLE
350
10
  3
ACAD_PLOTSETTINGS
350
11
  3
ACAD_PLOTSTYLENAME
350
12
  3
ACAD_SCALELIST
350
14
  3
ACAD_TABLESTYLE
350
15
  3
ACAD_VISUALSTYLE
350
16
  3
EZDXF_META
350
2D
  0
DICTIONARY
  5
B
330
A
100
AcDbDictionary
281
1
  0
DICTIONARY
  5
C
330
A
100
AcDbDictionary
281
1
  0
DICTIONARY
  5
D
330
A
100
AcDbDictionary
281
1
  3
Model
350
1A
  3
Layout1
350
1E
  0
DICTIONARY
  5
E
330
A
100
AcDbDictionary
281
1
  3
ByBlock
350
1F
  3
ByLayer
350
20
  3
Global
350
21
  0
DICTIONARY
  5
F
330
A
100
AcDbDictionary
281
1
  3
Standard
350
2C
  0
DICTIONARY
  5
10
330
A
100
AcDbDictionary
281
1
  3
Standard
350
22
  0
DICTIONARY
  5
11
330
A
100
AcDbDictionary
281
1
  0
ACDBDICTIONARYWDFLT
  5
12
330
A
100
AcDbDictionary
281
1
  3
Normal
350
13
100
AcDbDictionaryWithDefault
340
13
  0
ACDBPLACEHOLDER
  5
13
330
12
  0
DICTIONARY
  5
14
330
A
100
AcDbDictionary
281
1
  0
DICTIONARY
  5
15
330
A
100
AcDbDictionary
281
1
  0
DICTIONARY
  5
16
330
A
100
AcDbDictionary
281
1
  0
LAYOUT
  5
1A
330
D
100
AcDbPlotSettings
  1

  4
A3
  6

 40
7.5
 41
20.0
 42
7.5
 43
20.0
 44
420.0
 45
297.0
 46
0.0
 47
0.0
 48
0.0
 49
0.0
140
0.0
141
0.0
142
1.0
143
1.0
 70
1024
 72
1
 73
0
 74
5
  7

 75
16
 76
0
 77
2
 78
300
147
1.0
148
0.0
149
0.0
100
AcDbLayout
  1
Model
 70
1
 71
0
 10
0.0
 20
0.0
 11
420.0
 21
297.0
 12
0.0
 22
0.0
 32
0.0
 14
1e+20
 24
1e+20
 34
1e+20
 15
-1e+20
 25
-1e+20
 35
-1e+20
146
0.0
 13
0.0
 23
0.0
 33
0.0
 16
1.0
 26
0.0
 36
0.0
 17
0.0
 27
1.0
 37
0.0
 76
1
330
17
  0
LAYOUT
  5
1E
330
D
100
AcDbPlotSettings
  1

  4
A3
  6

 40
7.5
 41
20.0
 42
7.5
 43
20.0
 44
420.0
 45
297.0
 46
0.0
 47
0.0
 48
0.0
 49
0.0
140
0.0
141
0.0
142
1.0
143
1.0
 70
0
 72
1
 73
0
 74
5
  7

 75
16
 76
0
 77
2
 78
300
147
1.0
148
0.0
149
0.0
100
AcDbLayout
  1
Layout1
 70
1
 71
1
 10
0.0
 20
0.0
 11
420.0
 21
297.0
 12
0.0
 22
0.0
 32
0.0
 14
1e+20
 24
1e+20
 34
1e+20
 15
-1e+20
 25
-1e+20
 35
-1e+20
146
0.0
 13
0.0
 23
0.0
 33
0.0
 16
1.0
 26
0.0
 36
0.0
 17
0.0
 27
1.0
 37
0.0
 76
1
330
1B
  0
MATERIAL
  5
1F
102
{ACAD_REACTORS
330
E
102
}
330
E
100
AcDbMaterial
  1
ByBlock
  2

 70
0
 40
1.0
 71
1
 41
1.0
 91
-1023410177
 42
1.0
 72
1
  3

 73
1
 74
1
 75
1
 44
0.5
 73
0
 45
1.0
 46
1.0
 77
1
  4

 78
1
 79
1
170
1
 48
1.0
171
1
  6

172
1
173
1
174
1
140
1.0
141
1.0
175
1
  7

176
1
177
1
178
1
143
1.0
179
1
  8

270
1
271
1
272
1
145
1.0
146
1.0
273
1
  9

274
1
275
1
276
1
 42
1.0
 72
1
  3

 73
1
 74
1
 75
1
 94
63
  0
MATERIAL
  5
20
102
{ACAD_REACTORS
330
E
102
}
330
E
100
AcDbMaterial
  1
ByLayer
  2

 70
0
 40
1.0
 71
1
 41
1.0
 91
-1023410177
 42
1.0
 72
1
  3

 73
1
 74
1
 75
1
 44
0.5
 73
0
 45
1.0
 46
1.0
 77
1
  4

 78
1
 79
1
170
1
 48
1.0
171
1
  6

172
1
173
1
174
1
140
1.0
141
1.0
175
1
  7

176
1
177
1
178
1
143
1.0
179
1
  8

270
1
271
1
272
1
145
1.0
146
1.0
273
1
  9

274
1
275
1
276
1
 42
1.0
 72
1
  3

 73
1
 74
1
 75
1
 94
63
  0
MATERIAL
  5
21
102
{ACAD_REACTORS
330
E
102
}
330
E
100
AcDbMaterial
  1
Global
  2

 70
0
 40
1.0
 71
1
 41
1.0
 91
-1023410177
 42
1.0
 72
1
  3

 73
1
 74
1
 75
1
 44
0.5
 73
0
 45
1.0
 46
1.0
 77
1
  4

 78
1
 79
1
170
1
 48
1.0
171
1
  6

172
1
173
1
174
1
140
1.0
141
1.0
175
1
  7

176
1
177
1
178
1
143
1.0
179
1
  8

270
1
271
1
272
1
145
1.0
146
1.0
273
1
  9

274
1
275
1
276
1
 42
1.0
 72
1
  3

 73
1
 74
1
 75
1
 94
63
  0
MLINESTYLE
  5
22
102
{ACAD_REACTORS
330
10
102
}
330
10
100
AcDbMlineStyle
  2
Standard
 70
0
  3

 62
256
 51
90.0
 52
90.0
 71
2
 49
0.5
 62
256
  6
BYLAYER
 49
-0.5
 62
256
  6
BYLAYER
  0
MLEADERSTYLE
  5
2C
102
{ACAD_REACTORS
330
F
102
}
330
F
100
AcDbMLeaderStyle
179
2
170
2
171
1
172
0
 90
2
 40
0.0
 41
0.0
173
1
 91
-1056964608
 92
-2
290
1
 42
2.0
291
1
 43
8.0
  3
Standard
 44
4.0
300

342
29
174
1
175
1
176
0
178
1
 93
-1056964608
 45
4.0
292
0
297
0
 46
4.0
 94
-1056964608
 47
1.0
 49
1.0
140
1.0
294
1
141
0.0
177
0
142
1.0
295
0
296
0
143
3.75
271
0
272
9
273
9
  0
DICTIONARY
  5
2D
330
A
100
AcDbDictionary
280
1
281
1
  3
CREATED_BY_EZDXF
350
2E
  3
WRITTEN_BY_EZDXF
350
16D
  0
DICTIONARYVAR
  5
2E
330
2D
100
DictionaryVariables
280
0
  1
1.4.4 @ 2026-10-07T10:37:54.145587+00:00
  0
DICTIONARYVAR
  5
16D
330
2D
100
DictionaryVariables
280
0
  1
1.4.4 @ 2026-10-07T10:37:54.166891+00:00
  0
ENDSEC
  0
EOF
